/* XPM */
static char * greenbox6_xpm[] = {
"64 64 222 2",
"  	c None",
". 	c #4B5648",
"+ 	c #989C8D",
"@ 	c #989C8C",
"# 	c #979C8D",
"$ 	c #979C8C",
"% 	c #979B8C",
"& 	c #687059",
"* 	c #979A8C",
"= 	c #687159",
"- 	c #697159",
"; 	c #969A8C",
"> 	c #96998B",
", 	c #69725B",
"' 	c #6A725A",
") 	c #69725A",
"! 	c #95998B",
"~ 	c #959889",
"{ 	c #6A725C",
"] 	c #6A725B",
"^ 	c #6B725B",
"/ 	c #6B725C",
"( 	c #94988A",
"_ 	c #949788",
": 	c #939789",
"< 	c #939889",
"[ 	c #939787",
"} 	c #6C735D",
"| 	c #6B735D",
"1 	c #939788",
"2 	c #929787",
"3 	c #6C745E",
"4 	c #919687",
"5 	c #919685",
"6 	c #6C755E",
"7 	c #6D755E",
"8 	c #6D745E",
"9 	c #919585",
"0 	c #919584",
"a 	c #6F765F",
"b 	c #6F755F",
"c 	c #6F7560",
"d 	c #6D765F",
"e 	c #6D7660",
"f 	c #6F7660",
"g 	c #909483",
"h 	c #707760",
"i 	c #707660",
"j 	c #707661",
"k 	c #6F7760",
"l 	c #6F7761",
"m 	c #707761",
"n 	c #8F9382",
"o 	c #717761",
"p 	c #717762",
"q 	c #707762",
"r 	c #8E9381",
"s 	c #727762",
"t 	c #727862",
"u 	c #727763",
"v 	c #717862",
"w 	c #717763",
"x 	c #717863",
"y 	c #727863",
"z 	c #8E9281",
"A 	c #8D9280",
"B 	c #727963",
"C 	c #8D9180",
"D 	c #8C9180",
"E 	c #737963",
"F 	c #737964",
"G 	c #727A64",
"H 	c #727A63",
"I 	c #737A63",
"J 	c #727964",
"K 	c #8C917F",
"L 	c #747A65",
"M 	c #747B65",
"N 	c #737B65",
"O 	c #737A65",
"P 	c #747A64",
"Q 	c #747B64",
"R 	c #737A64",
"S 	c #737B64",
"T 	c #8C907F",
"U 	c #8B907E",
"V 	c #757B66",
"W 	c #747B66",
"X 	c #757B65",
"Y 	c #8B8F7E",
"Z 	c #8A8F7D",
"` 	c #767B67",
" .	c #767C67",
"..	c #757B67",
"+.	c #767B66",
"@.	c #767C66",
"#.	c #757C66",
"$.	c #757C67",
"%.	c #8A8E7D",
"&.	c #898E7C",
"*.	c #777C68",
"=.	c #767C68",
"-.	c #777C67",
";.	c #888D7B",
">.	c #777D68",
",.	c #878C7B",
"'.	c #777E69",
").	c #787E69",
"!.	c #777E68",
"~.	c #787E68",
"{.	c #878C7A",
"].	c #787E6A",
"^.	c #797E6B",
"/.	c #787E6B",
"(.	c #797E6A",
"_.	c #797E69",
":.	c #858B79",
"<.	c #797F6B",
"[.	c #797F6A",
"}.	c #858C79",
"|.	c #858B78",
"1.	c #848B78",
"2.	c #7A806C",
"3.	c #79806C",
"4.	c #7A806B",
"5.	c #848A77",
"6.	c #838A77",
"7.	c #7B806C",
"8.	c #838977",
"9.	c #7B816D",
"0.	c #7B816C",
"a.	c #7B806D",
"b.	c #828876",
"c.	c #7C816F",
"d.	c #7C826F",
"e.	c #7B826F",
"f.	c #818775",
"g.	c #7D8270",
"h.	c #7C8370",
"i.	c #7D8370",
"j.	c #7D8371",
"k.	c #7C8371",
"l.	c #808774",
"m.	c #7E8371",
"n.	c #7D8471",
"o.	c #7D8472",
"p.	c #7E8471",
"q.	c #7E8472",
"r.	c #7D8372",
"s.	c #7E8372",
"t.	c #808773",
"u.	c #808573",
"v.	c #7F8472",
"w.	c #7E8572",
"x.	c #7F8572",
"y.	c #808572",
"z.	c #7F8573",
"A.	c #7F8773",
"B.	c #808772",
"C.	c #7F8772",
"D.	c #808875",
"E.	c #818875",
"F.	c #808775",
"G.	c #818774",
"H.	c #818874",
"I.	c #818876",
"J.	c #818976",
"K.	c #828976",
"L.	c #828875",
"M.	c #828975",
"N.	c #828977",
"O.	c #828A77",
"P.	c #838976",
"Q.	c #838A76",
"R.	c #838B77",
"S.	c #848C78",
"T.	c #848B77",
"U.	c #858B77",
"V.	c #858C78",
"W.	c #878C79",
"X.	c #878D7B",
"Y.	c #878D7A",
"Z.	c #888E7B",
"`.	c #898E7B",
" +	c #8A8F7C",
".+	c #898F7D",
"++	c #8B907D",
"@+	c #8A907E",
"#+	c #8D9181",
"$+	c #8D9281",
"%+	c #8E9282",
"&+	c #8E9382",
"*+	c #8F9482",
"=+	c #8F9383",
"-+	c #8F9483",
";+	c #909583",
">+	c #909584",
",+	c #909484",
"'+	c #919684",
")+	c #929687",
"!+	c #929685",
"~+	c #949889",
"{+	c #949789",
"]+	c #939888",
"^+	c #949888",
"/+	c #95988A",
"(+	c #949989",
"_+	c #94998A",
":+	c #95998A",
"<+	c #96998A",
"[+	c #959A8B",
"}+	c #969A8B",
"|+	c #979A8B",
"1+	c #969B8C",
"2+	c #676F58",
"3+	c #677058",
"4+	c #686F58",
"5+	c #676F57",
"6+	c #666D57",
"7+	c #666F57",
"8+	c #676D57",
"9+	c #666D56",
". . . . . . . . . . . . . . . . . . . . . . . . . . . . . . . . . . . . . . . . . . . . . . . . . . . . . . . . . . . . . . . . ",
". + + @ @ # # # # # + + + + # # + + + + + + + # # # + + $ $ # # # # # # # # # + + + # # # # $ $ @ + + + + $ $ @ @ @ # # # # + . ",
". + + @ @ # # # # # + + + + # # + + + + + + + # # # + + $ $ # # # # # # # # # + + + # # # # $ $ @ + + + + $ $ @ @ @ # # # # + . ",
". % % & & & & & & & & & & & & & & & & & & & & & & & & & & & & & & & & & & & & & & & & & & & & & & & & & & & & & & & & & & % % . ",
". * * = = - - = = = = = = = = = = = = = = = = = = = = = = = - - = = = = = = = = = = = = = = = = - - - - = = = = = = = = = ; * . ",
". > > , , ' ' ' ' ' , , , , , , , , , , , , , , ) ) ) ) ) ) ' ' ' , , , , ) ) ) ) ) ) ) ) ) ) ) ' ' ' ) ) ) ) ) ) ) ) ) ) ! > . ",
". ~ ~ { { ] ^ ^ ^ ^ { { { { { ] ] ] { { { { { { ] ] ] ] ] ] ] ] / { { { { ] ] ] ] ] ] ] ] ] { ] ] ] ] ] ] ] ] ] ] ] ] ] ] ( ( . ",
". _ _ / / / / / / / / / / / / / / / / / / / / / / / / / / / / / / / / / / / / / / / / / / / / / / / / / / / / / / / / / / : < . ",
". [ [ } } } } } } } } } } } | | | | | } } } } | } } } } } } } } } } } } } } } } } } } } } } } } } } } } } | | | | | } } } 1 1 . ",
". 2 2 3 3 3 3 3 3 3 3 3 3 3 3 3 3 3 3 3 3 3 3 3 3 3 3 3 3 3 3 3 3 3 3 3 3 3 3 3 3 3 3 3 3 3 3 3 3 3 3 3 3 3 3 3 3 3 3 3 3 2 2 . ",
". 4 5 6 6 7 7 8 8 8 7 7 7 7 6 6 6 6 6 7 7 7 7 3 7 7 7 7 6 6 3 7 7 7 8 7 7 6 7 7 7 8 8 8 8 7 7 7 6 6 6 6 6 6 6 6 6 6 7 7 7 4 4 . ",
". 9 0 a a a a b b c a a a a d d d d a a a a a b a a a d e e e f f f c b a a a a a a b b c a a a d d a d d e d a d d a a f 9 9 . ",
". g g h h h h i i j j h h k k k k k h h h h h i i h k l l l l m m j j j i h h h h h h j j h h k k k h h l l k h k k k m m g g . ",
". n n o o o o o o p p o m m m m m m o o o m o o o m m q q q q p p p q q o o o m o o o p p o m m m m o o q q o o o m m p p n n . ",
". r r s t t t s u u u v v p p p p p t t v v t s s p p w w x x y u u w w s s p p p t t u u v v v v v s s x x u s s p p u u z r . ",
". A A y B B y y y y y B B y y y y B B B B B y y y y y y y B B y y y y y y y y y y B B y y y B B B B y y B B y y y y y y y C A . ",
". D D E E E E E F F F G H B B B B I I I H B B E B B J J J J J J J J J F F E B B B E E E E B B H H H H G G G J B B B J F F D D . ",
". K K L L L L M L L L N N O L P Q Q Q Q R O R Q R O O O N O L O O O L L L L O O R P P P P R R S Q S S N N M O O O N O L L T K . ",
". U U V V V V V V V W W W W V X X X X X M W M X M W W W W W V W W W V V V V W W M X X X X M M M X M W W W V W W W W W V V Y U . ",
". Z Z ` ` ` `  .` ` ........` +.@.@.@.+.....V @.V ..........` ......` ` ` ......V +.+.+.V V V V @.#.$.$.$.` ............` %.Z . ",
". &.&.*.=.=.*.*.*.*.*.=.=.=.=.=. . .-.-.=.=.=.-.=.=.=.=.=.=.=.=.=.=.=.*.=.=.=.=.=.-.-. . . . . .-. .=.=.*.*.=.=.=.=.=.=.=.&.&.. ",
". ;.;.>.>.>.>.>.>.>.>.>.>.>.>.>.>.>.>.>.>.>.>.>.>.>.>.>.>.>.>.>.>.>.>.>.>.>.>.>.>.>.>.>.>.>.>.>.>.>.>.>.>.>.>.>.>.>.>.>.>.;.;.. ",
". ,.,.'.'.'.'.).).).).'.'.'.'.'.'.!.!.).'.'.).~.'.'.'.'.'.'.'.'.'.'.'.'.'.'.'.'.'.'.'.'.'.'.!.!.!.~.'.'.).).).'.'.'.'.'.'.,.,.. ",
". {.{.].].].].^.].].].]././.].].].].].].].(.(._.].].].].].].].].].].]./././././.].].].].].].].].].(.(.(.(.(.(.(.(.(.].]./.{.{.. ",
". :.:.<.<.<.<.<.<.<.<.<.<.<.<.<.<.<.<.<.<.<.<.[.<.<.<.<.<.<.<.<.<.<.<.<.<.<.<.<.<.<.<.<.<.<.<.<.<.<.<.<.<.<.<.<.<.<.<.<.<.}.}.. ",
". |.1.2.2.3.2.2.2.2.2.2.2.2.2.2.2.2.2.2.2.2.2.4.2.2.2.2.2.2.2.2.2.2.2.2.2.2.2.2.2.4.2.2.3.2.2.2.2.2.4.2.2.2.2.2.2.2.2.2.3.|.|.. ",
". 5.6.7.7.2.7.7.7.7.7.7.7.7.7.7.7.7.7.7.7.7.7.7.7.7.7.7.7.7.7.7.7.7.7.7.7.7.7.7.7.7.7.7.2.7.7.7.7.7.7.7.7.7.7.7.7.7.7.7.2.5.5.. ",
". 8.8.9.9.0.9.9.9.a.9.9.9.9.9.9.9.9.9.9.9.9.9.0.9.9.9.9.9.9.0.9.9.9.a.a.9.9.9.9.9.0.9.9.9.9.9.9.9.9.0.9.9.9.9.9.9.a.9.9.9.8.8.. ",
". b.b.c.d.e.d.d.d.d.d.d.d.d.d.d.d.d.d.d.d.d.d.d.d.d.d.d.d.d.d.d.d.d.c.c.d.d.d.d.d.d.d.d.d.d.d.d.d.d.d.d.d.d.d.d.d.d.d.e.e.b.b.. ",
". f.f.g.h.h.i.i.i.j.i.i.i.i.i.i.i.i.i.i.i.i.i.i.i.j.j.j.j.i.i.i.i.i.g.g.g.i.i.i.i.i.i.i.j.i.i.i.i.i.i.i.i.i.i.i.i.i.i.k.k.f.f.. ",
". l.l.m.n.o.p.p.p.q.q.p.p.p.n.p.m.p.p.p.p.p.p.r.o.o.o.s.s.q.q.p.p.p.m.m.m.m.m.m.m.m.p.q.q.p.p.p.m.m.m.m.p.p.p.m.p.p.p.r.r.t.l.. ",
". u.u.v.w.w.x.x.x.x.x.x.x.w.w.w.v.v.x.x.x.x.q.q.q.w.w.v.v.x.x.x.x.x.v.v.v.v.v.v.v.v.v.x.x.x.x.x.v.v.v.v.x.x.v.v.v.x.x.q.q.y.t.. ",
". v.v.y.z.A.t.B.t.t.t.B.B.C.C.y.y.y.B.B.B.B.z.z.z.A.A.u.u.t.t.t.B.B.y.y.y.y.y.y.y.y.y.t.t.B.B.y.y.y.y.y.B.B.B.y.B.B.B.z.z.v.x.. ",
". s.s.t.l.l.l.t.l.l.l.t.t.t.t.t.t.t.t.t.t.t.l.l.l.l.l.l.l.l.l.l.t.t.t.t.t.t.t.t.t.t.t.t.t.t.t.t.t.t.t.t.t.t.t.t.t.t.l.l.l.m.q.. ",
". j.k.f.f.f.f.f.f.D.D.E.E.f.f.f.f.f.f.f.F.F.F.E.f.f.f.f.f.F.F.F.E.G.G.G.G.f.f.E.f.f.G.l.l.l.l.l.G.f.f.G.G.H.H.H.H.H.f.f.f.g.i.. ",
". e.e.b.b.b.b.b.I.J.J.K.K.b.b.b.b.b.b.b.I.I.I.K.b.b.b.b.K.I.I.I.K.L.L.L.L.b.b.K.b.b.E.E.E.E.E.E.b.b.b.L.L.M.M.M.M.K.b.b.b.c.d.. ",
". 9.9.8.8.8.8.8.N.N.O.O.8.8.8.8.8.8.8.N.N.N.N.6.8.8.8.8.8.N.N.N.N.8.P.P.P.8.8.6.8.8.K.K.K.K.K.K.8.8.8.P.P.Q.Q.Q.Q.6.8.8.8.a.9.. ",
". 2.2.5.5.5.6.6.6.6.6.6.5.5.5.6.6.6.5.6.6.6.6.5.5.5.5.5.5.6.6.6.6.6.5.5.5.5.6.R.6.5.6.6.6.6.6.6.5.5.5.5.5.5.5.5.6.6.6.6.6.7.7.. ",
". 2.2.|.|.1.1.1.1.1.1.1.|.|.|.1.1.1.1.1.1.1.1.|.|.|.|.|.1.1.1.1.1.1.1.|.|.1.1.S.1.1.1.1.1.T.T.T.|.|.|.U.U.U.U.U.1.1.1.1.1.2.2.. ",
". <.<.:.:.:.:.:.}.}.}.}.}.}.}.}.}.:.:.:.:.}.}.}.}.}.}.}.}.}.}.}.}.}.}.:.:.}.}.}.}.}.:.:.:.:.V.V.V.}.}.V.V.V.V.V.}.}.}.}.:.<.<.. ",
". /./.{.{.W.W.{.{.{.{.{.{.W.W.{.{.{.{.{.{.{.{.{.{.{.{.{.{.{.{.{.{.{.{.{.{.W.W.{.{.{.{.{.{.{.{.{.{.{.{.{.W.W.W.{.{.{.{.{.{.].].. ",
". ).'.,.,.{.,.,.,.,.,.,.,.X.Y.X.,.,.,.,.,.,.,.,.,.,.,.,.,.X.X.X.,.,.,.,.,.{.X.X.X.,.,.,.,.,.,.X.X.X.X.X.Y.{.,.,.,.,.,.,.,.).).. ",
". >.>.;.;.;.;.;.;.;.;.;.;.Z.Z.Z.;.;.;.;.;.;.;.;.;.;.;.;.;.Z.Z.Z.;.;.;.;.;.;.Z.Z.Z.;.;.;.;.;.;.Z.Z.Z.Z.Z.;.;.;.;.;.;.;.;.;.>.>.. ",
". *.*.&.&.`.&.&.&.&.&.&.&.&.`.&.&.&.&.&.&.&.&.&.&.&.&.&.&.&.&.&.&.&.&.`.`.`.&.&.&.&.&.&.&.&.&.&.&.&.&.&.&.`.&.&.&.&.&.&.&.*.*.. ",
". +.+.%.Z  +Z Z Z  +Z Z Z Z  +Z Z Z  +Z Z %.Z Z Z .+Z Z Z Z Z Z Z Z  + + + +Z Z Z Z Z Z Z Z Z Z Z Z Z Z Z  +Z Z Z Z Z Z Z ` ` . ",
". X X Y U ++U U U ++U U U U ++U U U U U U Y U U U @+U U U U U U U U U ++++++U U U U U U U U U U U U U U U ++U U U U U U U V V . ",
". P P T K K K K K K K K K K K K K K K K K K K K K K K K K K D D D K K K K K K K K D K K K K K K K K K K K K K K K D K K K L L . ",
". B E D D D D D D D D D D D D D D D D D D D D D D D D D D D D D D D D D D D D D D D D D D D D D D D D D D D D D D D D D D E E . ",
". B y C A A C C C A A #+#+A A A A A $+$+A A A A A C C C C $+$+$+$+$+A A C C A A A $+$+C C A A A A A $+$+A A C C C $+$+A A y y . ",
". v v z z r z z z r r %+%+z r r r r &+&+r r r r z z z z z %+&+&+&+&+r r z z r r r &+%+z z r r r r r &+&+r r z z z &+&+r r s v . ",
". m o n n n n n *+*+*+=+=+n n n n *+*+*+*+*+*+*+n n n n n =+=+=+=+-+*+*+n n *+*+*+=+=+n n n *+*+n n =+=+*+*+n n =+=+=+n n o m . ",
". k h g g g g g ;+;+>+>+,+,+g g g g ;+;+;+;+;+;+g g g g g ,+,+,+,+,+;+;+;+g ;+;+g ,+g g g g ;+g g ,+,+,+>+;+g g ,+,+g g g h k . ",
". d a 9 9 9 9 5 5 5 5 5 9 9 9 9 9 0 '+'+'+'+'+'+0 0 9 9 9 9 9 9 9 9 5 5 5 '+'+'+0 9 0 0 0 0 5 9 9 9 9 9 9 5 9 9 9 9 0 0 0 a d . ",
". 3 7 4 4 4 4 4 4 4 4 4 4 4 4 4 4 5 5 5 5 4 5 5 5 4 4 4 4 4 4 4 4 4 4 2 2 )+!+5 5 4 5 5 5 5 4 4 4 4 4 4 4 4 4 4 4 4 5 5 5 6 6 . ",
". 3 3 2 2 2 2 2 2 2 2 2 2 2 2 2 2 2 2 2 2 2 2 2 2 2 2 2 2 2 2 2 2 2 2 2 2 [ 2 2 2 2 2 2 2 2 2 2 2 2 2 2 2 2 2 2 2 2 2 2 2 3 3 . ",
". | } [ [ 1 1 1 1 1 1 1 1 1 [ [ [ [ [ [ [ [ [ [ [ [ 1 1 1 1 [ [ [ 1 1 1 1 1 1 1 1 1 [ [ [ 1 1 1 1 [ [ [ [ [ [ [ [ [ [ [ [ | | . ",
". / / 1 1 : < < < ~+~+< ~+{+_ _ 1 1 ]+]+]+]+]+]+]+]+< < < : 1 1 1 < ~+~+~+~+~+~+~+: _ _ _ ~+< < 1 1 1 1 ]+^+_ _ _ _ _ _ _ / / . ",
". ] ] ~+~+( ( ( ( ~+( ( /+/+~ ~ ~+~+~+~+~+~+~+~+(+(+_+_+( ( ~+~+~+_+_+:+:+/+/+( ( ( ~ ~ /+/+( ( ( ~+~+~+~+~ ~ ~ ~ ~ ~ ~ ~ ] ] . ",
". ) ) ! ! ! ! > ! :+! > > > > <+:+:+! ! ! ! ! > [+[+[+! ! ! ! ! ! [+[+}+}+> > ! ! > > > > > > ! ! ! > > > > > > > > > <+<+) ) . ",
". = = ; ; ; * * |+}+; * * * * * }+}+; ; ; ; * * * 1+1+; ; ; ; ; ; ; 1+% * * * ; ; * * * * * * * ; ; * * * * * * * * * |+|+= = . ",
". & & % % % % % % % % % % % % % % % % % % % % % % % % % % % % % % % % % % % % % % % % % % % % % % % % % % % % % % % % % % & & . ",
". 2+2+2+2+2+2+2+3+2+4+4+4+4+4+4+2+2+2+2+2+2+2+2+2+2+3+2+2+2+2+2+2+4+2+2+2+2+4+2+2+2+4+4+4+2+2+2+2+2+2+2+2+2+2+2+2+2+4+4+4+2+5+. ",
". 6+6+6+6+6+6+7+7+7+8+8+8+8+8+8+6+6+6+7+7+6+6+6+6+6+7+7+6+6+6+6+6+8+8+6+6+8+8+6+6+6+8+8+8+8+6+6+6+6+6+6+6+6+6+6+6+6+8+8+8+8+9+. ",
". . . . . . . . . . . . . . . . . . . . . . . . . . . . . . . . . . . . . . . . . . . . . . . . . . . . . . . . . . . . . . . . "};
