/* XPM */
static char * iconback2_xpm[] = {
"64 64 437 2",
"  	c None",
". 	c #4C6545",
"+ 	c #51694A",
"@ 	c #586F52",
"# 	c #60765A",
"$ 	c #667B5F",
"% 	c #687D62",
"& 	c #677C61",
"* 	c #657A5F",
"= 	c #63785D",
"- 	c #62765B",
"; 	c #61765B",
"> 	c #63775C",
", 	c #64795D",
"' 	c #64795E",
") 	c #63795D",
"! 	c #62785C",
"~ 	c #62775B",
"{ 	c #61765A",
"] 	c #60755A",
"^ 	c #607559",
"/ 	c #607659",
"( 	c #5F7558",
"_ 	c #5C7255",
": 	c #586F51",
"< 	c #546B4D",
"[ 	c #506849",
"} 	c #526A4A",
"| 	c #5C7355",
"1 	c #6A7F64",
"2 	c #778B71",
"3 	c #80927A",
"4 	c #83957D",
"5 	c #82947C",
"6 	c #7D8F78",
"7 	c #7C8E76",
"8 	c #7B8D75",
"9 	c #7B8E75",
"0 	c #7C8F76",
"a 	c #7D9077",
"b 	c #7B8F75",
"c 	c #7A8D74",
"d 	c #7A8C74",
"e 	c #798C73",
"f 	c #788B72",
"g 	c #788C72",
"h 	c #798C72",
"i 	c #768970",
"j 	c #71866B",
"k 	c #6B8064",
"l 	c #647A5D",
"m 	c #5D7456",
"n 	c #556D4D",
"o 	c #63795C",
"p 	c #768A70",
"q 	c #889982",
"r 	c #92A38D",
"s 	c #96A690",
"t 	c #94A58F",
"u 	c #91A28C",
"v 	c #8EA089",
"w 	c #8C9E87",
"x 	c #8C9D86",
"y 	c #8D9E87",
"z 	c #8D9F88",
"A 	c #8D9F87",
"B 	c #8B9D86",
"C 	c #8B9D85",
"D 	c #8A9C84",
"E 	c #899B83",
"F 	c #899B84",
"G 	c #889A83",
"H 	c #889A82",
"I 	c #879981",
"J 	c #889B83",
"K 	c #889B82",
"L 	c #879A82",
"M 	c #879A81",
"N 	c #84977E",
"O 	c #7E9278",
"P 	c #768A6F",
"Q 	c #6C8265",
"R 	c #637A5C",
"S 	c #546D4D",
"T 	c #657B5E",
"U 	c #798D73",
"V 	c #97A892",
"W 	c #9AAA95",
"X 	c #98A893",
"Y 	c #91A38C",
"Z 	c #8FA18A",
"` 	c #8FA189",
" .	c #8EA088",
"..	c #8C9F87",
"+.	c #8DA087",
"@.	c #8DA088",
"#.	c #8C9E86",
"$.	c #8B9E86",
"%.	c #8B9E85",
"&.	c #8A9D85",
"*.	c #8A9D84",
"=.	c #899C84",
"-.	c #899C83",
";.	c #889C82",
">.	c #85997F",
",.	c #7E9378",
"'.	c #758A6E",
").	c #6A8163",
"!.	c #607858",
"~.	c #526B4B",
"{.	c #62795C",
"].	c #768B70",
"^.	c #92A38C",
"/.	c #93A58E",
"(.	c #90A28A",
"_.	c #8C9F86",
":.	c #869A81",
"<.	c #869980",
"[.	c #869A80",
"}.	c #84987E",
"|.	c #83977D",
"1.	c #84987D",
"2.	c #85987E",
"3.	c #83987D",
"4.	c #82977C",
"5.	c #82967C",
"6.	c #81967B",
"7.	c #81957A",
"8.	c #80947A",
"9.	c #7F9479",
"0.	c #80957A",
"a.	c #83977C",
"b.	c #82967B",
"c.	c #81957B",
"d.	c #7F9379",
"e.	c #7C9176",
"f.	c #768B6F",
"g.	c #6C8365",
"h.	c #61795A",
"i.	c #57704F",
"j.	c #506949",
"k.	c #5F7658",
"l.	c #71866A",
"m.	c #889B81",
"n.	c #809479",
"o.	c #7A8F74",
"p.	c #798F73",
"q.	c #788E72",
"r.	c #788D71",
"s.	c #778C70",
"t.	c #768C6F",
"u.	c #778D71",
"v.	c #778D70",
"w.	c #758B6E",
"x.	c #748A6D",
"y.	c #738A6D",
"z.	c #768C70",
"A.	c #758B6F",
"B.	c #73896C",
"C.	c #72896C",
"D.	c #708669",
"E.	c #587050",
"F.	c #4F6847",
"G.	c #4E6746",
"H.	c #5C7354",
"I.	c #798E73",
"J.	c #7F9378",
"K.	c #7A9074",
"L.	c #72886B",
"M.	c #708769",
"N.	c #6F8668",
"O.	c #6E8567",
"P.	c #6D8466",
"Q.	c #6B8364",
"R.	c #6D8465",
"S.	c #6C8465",
"T.	c #6B8264",
"U.	c #6A8263",
"V.	c #698163",
"W.	c #6A8264",
"X.	c #6B8263",
"Y.	c #6A8162",
"Z.	c #698162",
"`.	c #698062",
" +	c #688061",
".+	c #667E5F",
"++	c #5A7252",
"@+	c #516A49",
"#+	c #496240",
"$+	c #4D6645",
"%+	c #597152",
"&+	c #697F62",
"*+	c #698061",
"=+	c #677F60",
"-+	c #657D5E",
";+	c #677E5F",
">+	c #657E5E",
",+	c #647D5D",
"'+	c #647C5D",
")+	c #647C5C",
"!+	c #657D5D",
"~+	c #637B5C",
"{+	c #627B5B",
"]+	c #607959",
"^+	c #5C7554",
"/+	c #556E4D",
"(+	c #4D6745",
"_+	c #455F3D",
":+	c #4A6342",
"<+	c #576F50",
"[+	c #677D60",
"}+	c #637B5B",
"|+	c #637C5C",
"1+	c #627A5A",
"2+	c #617A5A",
"3+	c #617959",
"4+	c #617A59",
"5+	c #627A5B",
"6+	c #5F7858",
"7+	c #5E7756",
"8+	c #5A7352",
"9+	c #536D4C",
"0+	c #4B6543",
"a+	c #435E3C",
"b+	c #47603F",
"c+	c #556D4E",
"d+	c #667C5F",
"e+	c #72886C",
"f+	c #687F60",
"g+	c #677F5F",
"h+	c #667E5E",
"i+	c #627B5A",
"j+	c #5F7857",
"k+	c #5E7757",
"l+	c #607958",
"m+	c #5D7756",
"n+	c #5D7655",
"o+	c #597251",
"p+	c #536C4B",
"q+	c #4A6443",
"r+	c #435D3B",
"s+	c #455D3D",
"t+	c #546C4D",
"u+	c #657C5E",
"v+	c #73886C",
"w+	c #5F7757",
"x+	c #5D7656",
"y+	c #5D7555",
"z+	c #5C7555",
"A+	c #587251",
"B+	c #526C4A",
"C+	c #4A6442",
"D+	c #425D3A",
"E+	c #445D3C",
"F+	c #536B4C",
"G+	c #5B7454",
"H+	c #587150",
"I+	c #526B4A",
"J+	c #425C3A",
"K+	c #788E71",
"L+	c #72896B",
"M+	c #5E7857",
"N+	c #5B7453",
"O+	c #5B7554",
"P+	c #5A7453",
"Q+	c #577050",
"R+	c #496341",
"S+	c #455E3D",
"T+	c #667D5E",
"U+	c #607859",
"V+	c #5F7958",
"W+	c #597352",
"X+	c #566F4E",
"Y+	c #506A48",
"Z+	c #486240",
"`+	c #415B39",
" @	c #47613F",
".@	c #667F5F",
"+@	c #556F4E",
"@@	c #4F6947",
"#@	c #576F4F",
"$@	c #667D5F",
"%@	c #71876A",
"&@	c #5A7452",
"*@	c #556F4D",
"=@	c #4C6645",
"-@	c #597151",
";@	c #677E60",
">@	c #70876A",
",@	c #5C7655",
"'@	c #4E6747",
")@	c #5A7253",
"!@	c #687F61",
"~@	c #73896D",
"{@	c #5E7656",
"]@	c #506847",
"^@	c #5B7353",
"/@	c #6A8062",
"(@	c #758A6D",
"_@	c #798E72",
":@	c #587250",
"<@	c #4F6747",
"[@	c #748A6E",
"}@	c #546E4C",
"|@	c #4E6846",
"1@	c #47623F",
"2@	c #697F61",
"3@	c #5A7353",
"4@	c #546D4C",
"5@	c #405B38",
"6@	c #4B6442",
"7@	c #71886A",
"8@	c #577150",
"9@	c #536D4B",
"0@	c #46613F",
"a@	c #496241",
"b@	c #566E4E",
"c@	c #667C5E",
"d@	c #688060",
"e@	c #46603F",
"f@	c #405A38",
"g@	c #476140",
"h@	c #647B5D",
"i@	c #748A6C",
"j@	c #6F8567",
"k@	c #46603E",
"l@	c #465F3E",
"m@	c #546C4C",
"n@	c #4D6746",
"o@	c #455F3E",
"p@	c #536C4C",
"q@	c #70866A",
"r@	c #698161",
"s@	c #5C7454",
"t@	c #6F8568",
"u@	c #415C39",
"v@	c #435C3B",
"w@	c #526A4B",
"x@	c #71876B",
"y@	c #415A3B",
"z@	c #52694B",
"A@	c #647A5E",
"B@	c #72876B",
"C@	c #486341",
"D@	c #415C3A",
"E@	c #415A3A",
"F@	c #51694B",
"G@	c #647B5E",
"H@	c #57714F",
"I@	c #546E4D",
"J@	c #41593A",
"K@	c #6E8566",
"L@	c #5F7758",
"M@	c #678060",
"N@	c #597351",
"O@	c #435D3A",
"P@	c #425A3A",
"Q@	c #72886A",
"R@	c #657C5D",
"S@	c #425D3B",
"T@	c #486140",
"U@	c #506948",
"V@	c #4E6646",
"W@	c #5D7556",
"X@	c #516B49",
"Y@	c #546D4B",
"Z@	c #4C6543",
"`@	c #445E3C",
" #	c #566F4F",
".#	c #455F3C",
"+#	c #758C6E",
"@#	c #4E6745",
"##	c #6C8364",
"$#	c #637C5B",
"%#	c #587151",
"&#	c #748B6E",
"*#	c #768D70",
"=#	c #465F3D",
"-#	c #56704E",
";#	c #6B8365",
">#	c #607A59",
",#	c #4D6744",
"'#	c #516A48",
")#	c #4C6644",
"!#	c #4C6544",
"~#	c #738A6C",
"{#	c #62795B",
"]#	c #6E8467",
"^#	c #445F3C",
"/#	c #627A5C",
"(#	c #71886B",
"_#	c #6C8466",
":#	c #6F8669",
"<#	c #657C5F",
"[#	c #597252",
"}#	c #46613E",
"|#	c #445E3D",
"1#	c #6D8366",
"2#	c #56704F",
"3#	c #526C4B",
"4#	c #4F6948",
"5#	c #3E5937",
"6#	c #647B5C",
"7#	c #5C7455",
"8#	c #4E6847",
"9#	c #45603D",
"0#	c #3C5734",
"a#	c #546C4B",
"b#	c #4B6443",
"c#	c #4A6341",
"d#	c #486241",
"e#	c #445F3D",
"f#	c #3F5A37",
"g#	c #395431",
"h#	c #3E5936",
"i#	c #47603E",
"j#	c #405B39",
"k#	c #405A37",
"l#	c #3F5937",
"m#	c #3E5836",
"n#	c #3D5835",
"o#	c #3D5735",
"p#	c #3C5634",
"q#	c #3A5532",
"r#	c #395331",
"s#	c #37522F",
"t#	c #415B38",
"u#	c #3F5936",
"v#	c #3D5734",
"w#	c #3B5633",
"x#	c #3B5533",
"y#	c #3C5633",
"z#	c #3B5532",
"A#	c #385330",
"B#	c #385230",
"C#	c #37512F",
"D#	c #36512E",
". + @ # $ % & * = - ; ; - > , ' ' , ) ) ) ) ) ! ~ { ] ] ] # # ] ^ ^ ^ ^ ^ ^ ^ ] ] ] ] ] ] # # # / / / / / # { { { { # ( _ : < [ ",
"} | 1 2 3 4 5 3 6 7 8 8 9 0 a a a 0 0 b b 0 0 9 c d e e e e e e e f f f f f f f g g g g g g h g g f 2 2 f g g g e e f i j k l m ",
"n o p q r s t u v w x x w y z z A w B C C C C C D D E E F F E E E E G H H I I H H H H G J E J K L M I I I M M H H H I N O P Q R ",
"S T U w V W X t Y Z ` v ` ` Z ` `  .A ..A +.@.@.A #.$.#.#.#.%.%.C C &.*.=.-.-.-.-.=.*.&.%.%.%.*.*.-.K K K K ;.-.-.-.K >.,.'.).!.",
"~.{.].H ^./.(._.-.:.<.>.<.[.<.<.>.}.|.|.1.2.>.>.}.|.|.|.3.|.|.4.5.5.5.6.7.8.9.9.8.0.6.5.a.a.5.b.c.0.9.9.9.9.9.9.8.8.d.e.f.g.h.i.",
"j.k.l.8.m.K }.n.e.o.p.p.p.p.p.q.r.s.t.t.s.r.q.q.r.u.v.u.u.r.v.s.s.t.t.f.w.x.x.x.y.x.w.f.z.z.t.A.w.x.y.B.B.C.C.B.B.y.B.D.).h.E.F.",
"G.H.Q I.9.J.K.t.L.M.D.D.D.D.N.O.P.g.Q.Q.g.P.O.O.P.R.S.R.P.P.P.R.g.g.g.Q.T.U.U.U.V.U.W.Q.Q.Q.Q.T.T.X.).Y.Z.`. + +`.Z. +.+h.++@+#+",
"$+%+&+A.K.p.w.M.S.T.U.U.T.U.Y.*+=+.+-+-+.+;+=+=+.+.+.+.+;+=+=+.+.+>+-+-+,+,+'+'+)+)+'+!+-+-+-+-+-+-+-+'+)+~+~+{+{+~+{+]+^+/+(+_+",
":+<+[+B.q.v.C.O.X.`.*+`.`. +=+.+!+)+}+}+~+)+)+)+|+~+~+|+)+'+)+~+}+1+2+3+]+]+]+3+3+3+4+1+1+1+5+}+~+~+~+{+2+]+!.6+6+6+6+7+8+9+0+a+",
"b+c+d+e+r.z.L.P.U.Z.`.*+ +f+g+h+!+|+{+{+{+}+}+{+{+i+{+{+{+{+5+2+3+!.j+k+7+k+k+j+j+j+6+l+]+]+4+2+5+{+{+1+3+6+k+7+m+k+k+n+o+p+q+r+",
"s+t+u+v+r.t.L.P.U.Z.*+ +f+=+.+-+'+~+{+{+}+~+~+}+{+5+5+5+5+1+2+3+!.w+7+n+n+x+m+7+7+7+k+j+6+6+l+]+3+2+1+3+!.w+x+y+z+n+x+z+A+B+C+D+",
"E+F+T e+r.z.L.O.T.Z. +f+g+.+h+-+'+~+{+}+~+)+)+~+}+{+{+{+5+1+2+]+!.w+7+x+x+7+7+k+k+k+k+j+6+6+6+6+6+l+]+l+6+7+z+^+G+^+z+G+H+I+:+J+",
"E+F+T e+K+v.L+O.T.Z. +=+.+h+-+!+)+}+}+~+)+'+)+|+}+{+{+{+{+1+2+2+]+6+j+k+k+M+j+j+M+k+j+6+l+6+6+k+k+k+j+w+7+n+^+N+N+G+O+P+Q+@+R+J+",
"S+t+u+e+r.v.L+O.T.Z. +=+.+T+-+'+|+}+~+)+'+,+'+|+}+}+}+}+{+{+1+2+2+]+U+!.!.!.]+]+!.!.]+3+2+]+V+M+7+7+7+m+n+^+G+P+P+P+N+W+X+Y+Z+`+",
" @c+u+L.u.t.L.P.T.Z. +=+.@h+-+,+|+|+|+'+,+,+'+|+}+}+|+)+}+}+}+{+{+1+2+3+3+2+2+2+4+2+2+1+5+2+]+j+7+x+n+n+^+^+N+N+N+N+P+o++@@@Z+`+",
":+#@$@L.v.A.%@R.U.*+ +=+.+.+-+'+'+)+'+'+'+'+)+|+~+~+)+)+~+~+}+~+~+{+{+1+2+1+1+1+{+}+}+}+{+1+]+j+7+n+n+^+^+^+^+N+N+N+&@o+*@@@Z+`+",
"=@-@;@B.u.A.>@g.Z. + +=+g+h+!+,+)+)+)+'+)+)+|+|+|+)+)+)+~+~+~+~+~+~+{+1+1+2+1+{+{+~+}+}+5+2+]+6+7+x+n+,@,@,@,@z+^+G+N+o+*@@@Z+`+",
"'@)@!@~@r.A.%@g.Z. + +=+g+h+!+'+)+)+)+)+|+~+~+~+~+|+|+|+~+{+{+}+~+}+{+1+2+2+1+{+}+~+}+5+1+3+]+6+w+7+7+{@{@{@{@n+n+^+N+o+/+@@Z+`+",
"]@^@/@(@_@s.L.P.).*+ +=+g+>+'+|+}+|+}+}+}+}+}+}+~+|+|+~+{+{+5+5+{+5+1+2+3+3+h.5+{+}+{+1+4+3+]+!.6+6+6+6+6+6+j+k+{@^+N+:@/+@@Z+`+",
"<@^@`.[@p.u.L+P.U.`. +=+.+,+|+{+{+{+{+i+i+{+{+{+{+{+~+{+{+1+2+2+2+2+2+]+]+]+3+2+1+1+1+2+3+]+]+]+]+3+4+4+4+3+]+6+7+z+P+H+}@|@1@`+",
"$+++2@x._@v.L+P.U. +f+g+T+)+{+1+1+1+1+2+2+5+{+{+{+{+5+1+1+3+3+]+l+l+l+l+!.l+]+3+2+2+2+3+]+3+4+2+2+2+1+1+1+2+3+!.7+z+3@H+4@|@ @5@",
"6@E.;@B.K+t.7@S.Z.f+g+.+!+}+1+1+1+1+1+1+1+5+{+{+{+5+2+2+]+]+!.6+6+6+6+6+6+l+]+]+3+3+]+]+]+]+4+2+1+1+1+5+5+1+3+6+x+^+8+8@9@(+0@5@",
"a@b@c@%@t.w.M.T.d@.+>+-+)+{+2+2+1+{+{+5+5+{+{+{+{+5+2+3+]+!.6+j+j+j+j+6+]+]+3+3+3+]+]+V+6+l+3+2+2+2+2+2+1+2+l+k+n+^+8+8@p+(+e@f@",
"g@n h@D.w.i@j@Y..+,+)+|+{+1+2+2+i+{+{+{+{+{+}+}+}+1+3+]+]+l+!.j+j+j+6+]+3+h.2+2+h.3+]+!.6+!.]+3+2+2+2+2+2+3+!.7+,@O+8+8@p+(+k@f@",
"l@m@h@D.'.B.O.`.-+~+}+{+1+2+2+2+{+{+{+i+i+i+i+{+1+4+]+l+]+3+]+l+6+!.]+3+2+2+2+2+2+3+]+6+6+l+]+4+4+3+3+3+3+]+w+x+z+O+3@8@9+n@ @5@",
"o@p@h@q@w.B.O.r@>+)+}+}+}+{+{+{+}+{+{+1+2+2+2+2+4+]+l+]+4+2+4+3+]+]+]+2+2+2+2+1+1+2+3+3+3+2+1+1+1+4+4+3+3+!.w+{@y+s@8+8@9+|@ @`+",
"E+F+h@%@f.x.t@)..+!+'+'+'+'+'+'+)+~+{+2+3+3+3+]+]+!.!.l+3+4+3+3+]+]+3+3+3+3+4+2+1+1+5+5+{+}+~+}+{+5+2+3+]+!.w+{@z+G+W+i.9+|@Z+u@",
"v@w@h@x@s.w.M.T.d@.+h+h+h+h+.+-+-+)+{+2+3+]+]+]+l+6+6+l+]+]+]+]+l+l+l+l+l+]+3+2+1+{+}+}+|+'+'+)+~+{+5+2+]+!.w+{@y+N+o+i.4@@@Z+u@",
"y@z@A@B@u.t.%@g.Z.=+;+;+;+;+g+.+>+,+}+1+3+]+]+]+l+!.!.l+l+l+!.j+j+j+j+j+j+6+l+4+1+1+{+}+~+)+|+~+{+1+2+]+!.j+k+x+^+3@A+i.4@@@C@D@",
"E@F@G@v+q.s.L.P.Y. +=+g+=+=+=+=+;+-+|+5+3+]+]+h.h.]+]+]+3+]+l+j+k+7+7+7+7+k+j+]+3+3+3+3+1+1+1+1+3+l+6+j+k+7+x+n+G+8+A+H@I@Y+R+D+",
"J@F@A@v+q.v.L+K@U. +=+=+=+f+ +*+ +.+'+{+4+3+2+2+1+1+2+1+1+4+]+j+7+x+x+x+n+x+k+6+!.!.L@w+6+!.!.6+k+7+x+n+n+y+z+^+N+W+o+8@/+Y+R+D+",
"J@z@l B@r.v.L+K@X.*+M@=+=+ +Z.Z.*+=+!+}+1+1+i+}+}+}+{+{+{+{+4+6+7+x+n+n+n+x+7+j+j+k+{@x+x+{@7+x+z+O+N+N+N+N+N+P+8+W+N@:@+@Y+C+O@",
"P@z@l x@v.t.L.K@X.Z. +d@ +Z.).).`.=+-+|+{+{+~+)+|+|+~+|+|+~+1+]+j+k+7+7+{@7+w+j+j+k+{@{@{@{@n+y+N+3@8+8+8+8+8+8+8+8+W+A+X+@+C+r+",
"E+F+h@%@z.w.Q@K@X.Z. + +`.Z.Y.Z. +=+-+'+)+)+R@!+R@'+'+'+'+)+{+]+6+6+6+6+6+j+6+!.!.6+j+j+j+w+7+n+G+3@8+8+8+8+8+8+8+8+8+A++@Y+R+S@",
"T@b@u+x@z.w.7@P.X.Z. + + +*+*+ +=+.+-+,+,+-+-+-+-+!+!+-+!+'+}+2+3+]+2+2+h.3+h.h.h.h.h.h.3+]+6+7+y+^+N+N+N+N+N+N+N+N+P+o++@U@R+O@",
"V@)@!@B.s.w.7@P.X.`. + +*+*+ +=+.+-+!+,+-+h+h+h+T+-+-+-+-+'+~+5+1+5+}+|+~+}+{+{+{+{+{+{+1+3+!.j+k+{@x+n+n+n+n+z+z+z+^+8+X+Y+R+O@",
"I+W@).x.v.w.7@P.U.r@ + +*+ +=+.+-+,+)+,+-+.+.+.+-+-+-+,+'+)+~+}+}+~+'+!+'+'+|+|+|+|+|+~+}+1+3+l+!.!.!.!.6+j+j+w+w+j+7+^+H+X@C+r+",
"I@6+g.w.K+t.7@P.U.Z.*+r@r@ +=+h+!+'+)+!+.+=+=+.+h+-+!+'+)+|+}+}+}+)+-+>+-+'+'+'+)+)+|+|+{+2+h.h.2+2+2+2+2+4+4+3+3+4+]+k+8+Y@Z@`@",
" #3+P.w.K+t.7@P.U.Z.`.Z.Z. +=+.+-+,+,+-+.+=+=+;+.+-+!+'+'+~+{+{+~+'+-+-+!+'+)+|+|+|+|+}+{+1+2+1+{+}+}+{+{+5+1+1+{+}+{+]+z+/+$+.#",
"i.h.P.A.K++#>@S.).Z.Z.Z.Z. +=+.+>+-+-+h+=+d@d@=+.+h+-+-+'+~+{+5+}+'+-+-+,+)+)+)+)+|+~+{+{+1+5+{+~+|+|+~+}+}+}+}+~+'+'+5+{@X+@#_+",
"H+5+P.w.r.w.D.##Z. + + +f+g+;+.+.+T+T+.+=+ + +=+=+;+.+-+'+{+2+2+{+|+,+!+'+)+'+'+)+|+}+{+{+5+{+~+~+)+'+)+|+|+$#|+)+'+R@}+k+i.G._+",
"%#5+P.&#*#x.N.U. +=+.@h+-+-+-+-+-+-+-+.+=+=+ +=+=+=+=+h+'+1+]+]+1+~+'+!+!+!+!+,+'+|+}+{+{+{+{+{+~+'+'+,+,+'+)+)+'+!+!+}+k+i.G._+",
"H+2+g.x.t.B.O.Z..+-+'+|+~+|+)+,+!+-+-+>+.+=+=+=+=+=+=+h+)+2+U+]+5+|+-+>+h+h+h+-+'+~+}+{+{+5+1+1+{+|+'+!+!+,+'+)+'+!+'+{+{@X+@#=#",
"Q+h.g.~@w.L.P. +!+|+{+1+1+i+}+|+)+'+'+-+-+h+h+h+.+.+.+-+~+h.]+3+{+'+.+g+=+=+.+h+,+|+{+{+5+2+h.h.1+~+'+!+!+,+'+)+'+'+'+5+x+X+G.=#",
"-#!.T.B.&#7@;#=+)+{+1+2+2+1+{+}+~+|+)+'+'+'+)+)+,+!+>+,+}+3+3+1+'+.+=+ +*+ +f+.+!+~+{+1+2+4+]+]+>#i+|+'+'+'+'+'+,+!+'+1+x+X+@#=#",
"4@w+).L+x.%@T..+~+1+2+1+1+5+}+}+~+~+}+}+{+{+1+1+}+|+)+}+1+3+3+}+!+;+ +Z.Y.Z.Z.=+-+|+{+2+2+3+l+l+]+2+{+|+)+'+'+'+'+'+)+2+y+*@,#.#",
"'#s@`.L.x.M.U.h+}+{+{+}+~+|+)+)+~+~+5+2+3+]+l+]+3+2+2+2+]+l+]+{+'+.+=+ +Z.).Z.f+h+)+1+2+3+]+]+l+]+3+1+{+|+'+'+,+'+'+~+3+z+/+)#`@",
"!#-@;@%@y.M.U..+|+|+)+,+!+!+!+!+'+|+{+2+3+]+]+]+]+3+3+l+6+6+l+2+~+'+-+.+!@*+ +=+-+}+2+]+l+]+]+]+]+3+2+5+~+)+!+!+'+)+}+]+G+I@)#`@",
"T@c+u+D.~#M.T.g+-+-+-+h+.+.+h+T+-+'+}+5+2+2+2+2+2+2+]+l+6+6+!.3+1+5+}+)+-+.+.+-+)+1+l+6+6+!.]+3+4+2+2+{+~+'+'+'+)+)+{+l+G+}@)#`@",
"S+F+R t@B.M.Q. +g+=+=+;@.+.+.+.+T+!+)+~+~+~+|+|+~+}+1+h.3+]+]+3+2+2+2+2+{+|+|+}+2+!.k+7+k+6+]+3+2+2+1+{+}+)+'+)+)+}+1+!.G+}@)#`@",
"r+} {#O.B.M.g.*+=+=+=+=+g+;+;+.+>+!+'+'+'+-+-+-+,+'+)+~+}+{+5+5+2+2+]+]+]+]+]+]+6+k+x+x+k+6+]+3+3+3+3+2+{+}+}+}+{+1+h.6+N+S )#`@",
"v@} {#]#B.%@g.`.=+=+=+;+.+.+.+h+-+,+'+,+-+h+.+.+-+!+!+!+'+'+|+~+{+1+3+l+j+j+j+w+k+k+x+k+k+k+6+6+6+]+]+]+2+2+2+2+3+]+!.7+8+4@)#`@",
"E+} {#]#B.7@S. +.@h+h+h+h+.+.+h+T+!+!+!+-+h+.+.+-+!+-+-+-+,+'+)+~+{+2+l+6+w+w+w+w+w+w+w+w+w+w+w+w+w+6+6+!.!.6+6+k+k+x+^+A+p+)#^#",
"S+~./#t@y.(#_# +.+-+-+>+h+.+.+h+T+-+!+R@-+T+.+-+!+'+'+,+'+'+|+|+$#{+2+l+j+j+j+6+6+V+]+]+!.j+k+k+k+k+k+k+k+k+m+x+,@z+O+8+i.I+0+`@",
"_+p@R :#x.L.P.*+.+-+>+h+.+.@.+.+.+.+-+!+-+h+.+h+!+'+|+~+}+}+}+}+}+{+2+]+!.!.l+]+]+3+4+4+]+6+j+k+k+k+7+m+x+n+z+^+G+N+8+H+/+Y+C+a+",
"l@t+R@%@A.~#O.Z.=+.+.+=+=+=+=+=+f+=+.+-+-+T+.+-+'+~+{+2+2+2+2+{+{+{+1+3+3+h.2+1+2+2+4+4+3+!.j+k+k+7+x+n+z+^+O+O+G+P+W+i.9+F.Z+D+",
"l@n $@e+v.w.N.Q.Z. +Z.Z.Z. + + + +d@.+-+!+!+-+!+)+5+3+]+!.U+]+2+5+{+5+1+2+5+}+{+1+h.]+]+!.6+j+k+7+x+n+^+^+^+^+^+O+N+W+i.9@|@ @`+",
"l@c+[+~@r.t.M.g.).).X.T.U.Z. +f+f+g+-+)+~+~+~+}+1+]+6+w+7+k+w+U+h.1+1+1+5+}+~+{+h.!.j+k+k+7+7+x+,@^+N+N+N+s@^+^+^+N+8+i.9@|@ @`+",
"l@n <#L.z.x.t@X.*+`.).U.Z.f+h+-+,+|+1+]+6+6+6+j+k+{@n+z+^+s@z+x+w+6+!.!.U+3+3+!.w+n+^+s@G+N+N+8+[#A+H+A+[#8+3@8+8+W+:@X+B+(+}#5@",
"|#~.{#1#%@O.Z.-+'+'+-+-+)+1+!.w+k+n+G+3@8+8+8+8+o+o+H+8@i.2#i.H+o+8+3@^@^@^@^@3@o+H+i.2#X+X+*@/+4@9@9+}@+@-#2#X+X++@I@3#4#q+`@5#",
"r+'@^@~+$@6#L@7#G+s@7#G+++H+#@X+/+}@p+B+I+B+B+B+I+I+@+Y+4#@@@@Y+X@I+B+I+I+I+I+I+@+Y+4#@@8#|@|@(+(+)#(+G.F.4#4#@@F.|@|@)#C+9#`+0#",
"`+a@} Q+-@#@a#@+@+@+@+U@8#$+!#0+b#C+R+R+R+c#C+C+c#R+Z+Z+ @ @ @Z+Z+C@d#Z+Z+T@Z+Z+Z+ @ @k@k@9#_+^#^#^#e#_+k@e@k@k@k@k@_+`@D+f#0#g#",
"h#r+d#!#)#6@#+ @i#i#k@_+`@r+D+J+u@u@5@5@j#u@J+J+J+u@`+5@k#f#k#5@5@f@f@f#l#l#l#f#f#f#l#h#h#m#n#n#o#o#n#m#h#l#h#h#h#m#m#o#p#q#r#s#",
"0#l#J+r+r+J+t#k#k#l#u#m#n#v#0#w#w#q#q#q#x#w#0#v#v#0#y#w#x#w#w#w#z#q#q#g#g#g#g#q#q#q#g#g#g#A#A#A#A#A#A#A#g#g#g#r#r#A#A#A#B#s#C#D#"};
