/* XPM */
static char * menutitleback2_xpm[] = {
"270 26 267 2",
"  	c None",
". 	c #BCC0AF",
"+ 	c #BCC0AE",
"@ 	c #BBC0AF",
"# 	c #BBC0AE",
"$ 	c #BEC2B1",
"% 	c #BDC1B0",
"& 	c #B8BCAB",
"* 	c #AEB3A0",
"= 	c #A1A892",
"- 	c #969E86",
"; 	c #90987E",
"> 	c #8E967C",
", 	c #8E967D",
"' 	c #90987F",
") 	c #919980",
"! 	c #909980",
"~ 	c #90997F",
"{ 	c #91997F",
"] 	c #8D967C",
"^ 	c #8F987F",
"/ 	c #ADB3A0",
"( 	c #B7BCAB",
"_ 	c #BCC1B0",
": 	c #BDC2B1",
"< 	c #BBBFAD",
"[ 	c #B5B9A7",
"} 	c #A9AE9A",
"| 	c #9AA18B",
"1 	c #8D967D",
"2 	c #858E74",
"3 	c #838C72",
"4 	c #848D72",
"5 	c #868F74",
"6 	c #879075",
"7 	c #878F75",
"8 	c #888F75",
"9 	c #878F76",
"0 	c #879076",
"a 	c #889075",
"b 	c #848D71",
"c 	c #838C71",
"d 	c #858E73",
"e 	c #9AA18A",
"f 	c #A8AE9A",
"g 	c #B4B9A8",
"h 	c #BABFAE",
"i 	c #B9BDAC",
"j 	c #B8BCAA",
"k 	c #B3B7A4",
"l 	c #A8AE99",
"m 	c #9BA28B",
"n 	c #8F977E",
"o 	c #889076",
"p 	c #899177",
"q 	c #889177",
"r 	c #868E73",
"s 	c #B3B8A5",
"t 	c #B8BDAB",
"u 	c #B9BEAD",
"v 	c #B6BBA9",
"w 	c #B5BAA8",
"x 	c #B1B6A2",
"y 	c #A7AD98",
"z 	c #8A9379",
"A 	c #889176",
"B 	c #8B947A",
"C 	c #8C947A",
"D 	c #8C937A",
"E 	c #8B9479",
"F 	c #8B937A",
"G 	c #8B9379",
"H 	c #9BA28C",
"I 	c #A7AD99",
"J 	c #B1B6A3",
"K 	c #B6BBAA",
"L 	c #B4B9A6",
"M 	c #AFB4A0",
"N 	c #A6AC97",
"O 	c #9CA38C",
"P 	c #939A81",
"Q 	c #8D957B",
"R 	c #8E957C",
"S 	c #8E957D",
"T 	c #8D957C",
"U 	c #8D957D",
"V 	c #8C937B",
"W 	c #939A82",
"X 	c #9CA28C",
"Y 	c #B4B8A6",
"Z 	c #B1B7A3",
"` 	c #B0B6A2",
" .	c #ACB29E",
"..	c #A5AC96",
"+.	c #959B83",
"@.	c #90977E",
"#.	c #8F967D",
"$.	c #91987F",
"%.	c #919780",
"&.	c #8F997F",
"*.	c #90977F",
"=.	c #909880",
"-.	c #8F9880",
";.	c #909780",
">.	c #8F977F",
",.	c #91987E",
"'.	c #91977F",
").	c #8F987E",
"!.	c #8F9980",
"~.	c #8F967E",
"{.	c #959B84",
"].	c #9CA38D",
"^.	c #A5AB96",
"/.	c #B0B5A2",
"(.	c #AEB4A0",
"_.	c #ADB39F",
":.	c #AAB09C",
"<.	c #A4AB95",
"[.	c #9DA48D",
"}.	c #969D86",
"|.	c #929981",
"1.	c #919880",
"2.	c #929980",
"3.	c #939B82",
"4.	c #929A82",
"5.	c #929B82",
"6.	c #939B81",
"7.	c #929A81",
"8.	c #929B81",
"9.	c #9DA38D",
"0.	c #A4AA95",
"a.	c #AAAF9C",
"b.	c #ADB29F",
"c.	c #ABB19D",
"d.	c #A3AA94",
"e.	c #9DA48E",
"f.	c #989F88",
"g.	c #949C84",
"h.	c #939B83",
"i.	c #949B83",
"j.	c #959C84",
"k.	c #959D84",
"l.	c #959D83",
"m.	c #949D83",
"n.	c #959C83",
"o.	c #949C83",
"p.	c #949D84",
"q.	c #979F88",
"r.	c #ABB09D",
"s.	c #A6AC98",
"t.	c #A2A993",
"u.	c #99A089",
"v.	c #979E86",
"w.	c #979E87",
"x.	c #989E87",
"y.	c #989E86",
"z.	c #99A08A",
"A.	c #A2A994",
"B.	c #A5AC97",
"C.	c #A4AB96",
"D.	c #A1A893",
"E.	c #9EA58F",
"F.	c #999F88",
"G.	c #98A089",
"H.	c #99A088",
"I.	c #9AA28B",
"J.	c #A6AD98",
"K.	c #A4A995",
"L.	c #A3A994",
"M.	c #A1A792",
"N.	c #9FA58F",
"O.	c #9BA38C",
"P.	c #9BA38B",
"Q.	c #9CA38B",
"R.	c #9AA28C",
"S.	c #9CA48D",
"T.	c #A0A691",
"U.	c #9FA590",
"V.	c #9EA48E",
"W.	c #9EA58E",
"X.	c #9DA58E",
"Y.	c #9DA58F",
"Z.	c #9DA48F",
"`.	c #9EA48F",
" +	c #A0A690",
".+	c #A1A791",
"++	c #A0A792",
"@+	c #A0A892",
"#+	c #A1A891",
"$+	c #A0A891",
"%+	c #A0A791",
"&+	c #9FA690",
"*+	c #9AA38C",
"=+	c #9BA38D",
"-+	c #A2A893",
";+	c #A2AA94",
">+	c #A3A993",
",+	c #A3AA93",
"'+	c #A6AC96",
")+	c #A5AD97",
"!+	c #A3AA95",
"~+	c #989F89",
"{+	c #A5AB97",
"]+	c #A7AD9A",
"^+	c #A7AE99",
"/+	c #A7AE98",
"(+	c #AAB09B",
"_+	c #A9B09C",
":+	c #A2A892",
"<+	c #9BA18A",
"[+	c #ACB29D",
"}+	c #ACB19E",
"|+	c #ABB29E",
"1+	c #A9AF9A",
"2+	c #9BA18B",
"3+	c #9AA089",
"4+	c #A3A893",
"5+	c #AFB4A1",
"6+	c #AFB5A1",
"7+	c #AEB5A0",
"8+	c #AEB4A1",
"9+	c #AEB3A1",
"0+	c #AEB5A1",
"a+	c #AEB5A2",
"b+	c #AEB4A2",
"c+	c #AAB19C",
"d+	c #B2B7A4",
"e+	c #B1B7A4",
"f+	c #B1B6A4",
"g+	c #8A9277",
"h+	c #989F87",
"i+	c #A4AA94",
"j+	c #B4B9A7",
"k+	c #B3B8A6",
"l+	c #B3B9A6",
"m+	c #B3B9A5",
"n+	c #B4B9A5",
"o+	c #B6BBA8",
"p+	c #899277",
"q+	c #8C947B",
"r+	c #B7BBA9",
"s+	c #B6BAA8",
"t+	c #B6BAA9",
"u+	c #B9BDAB",
"v+	c #B0B5A1",
"w+	c #868F75",
"x+	c #8A9278",
"y+	c #969D85",
"z+	c #B8BDAC",
"A+	c #B7BCAA",
"B+	c #B7BDAB",
"C+	c #BABDAC",
"D+	c #B2B6A3",
"E+	c #A5AA95",
"F+	c #8A9378",
"G+	c #818A6F",
"H+	c #828B70",
"I+	c #B0B6A3",
"J+	c #AEB49F",
"K+	c #AEB39F",
"L+	c #AFB3A0",
"M+	c #B0B4A1",
"N+	c #A9AE99",
"O+	c #9EA48D",
"P+	c #828C70",
"Q+	c #838C70",
"R+	c #838B70",
". . . . + + + + + + + + + @ @ @ @ @ @ @ @ @ @ @ @ @ @ @ @ @ @ @ @ @ @ @ @ @ @ @ @ @ @ . . . . . . . . . . . . . . . . . @ @ @ @ @ @ @ @ . . . . . . . . . . . . . . . . . . . . . . . . . . . . . . @ @ @ @ @ @ @ @ @ @ @ @ . . . . . . . . . # # # # # # # # @ @ @ @ @ @ @ @ @ @ @ @ @ @ @ @ @ @ @ @ @ @ @ @ @ @ @ @ @ @ @ @ @ @ @ @ @ @ . . . . . . . . . . . . . @ @ @ @ @ @ @ @ @ @ @ @ @ @ @ @ @ # # # # # # # # + + + + . . . . . . . . . . . . . . . . . # # # # # # # # # + + + + + + + + + + + + @ @ @ @ @ @ @ @ @ @ @ @ @ @ @ @ @ @ @ @ @ @ @ @ @ ",
"$ % & * = - ; > , ' ) ) ) ) ) ) ) ) ) ) ) ) ! ! ! ! ! ) ) ) ) ! ! ! ! ! ! ! ! ! ! ! ) ) ) ) ) ) ) ) ) ) ) ) ) ) ) ) ) ) ! ! ! ! ! ! ! ! ) ) ) ) ) ) ) ) ) ) ) ) ) ) ) ) ) ) ) ) ) ) ) ) ) ) ) ) ) ) ! ! ! ! ! ! ! ! ! ! ! ! ) ) ) ) ) ) ) ) ) ! ! ~ ~ ~ ~ ! ) ) ) ) ) ) ) ) ) ) ! ! ! ! ! ! ! ! ! ! ! ! ! ! ! ! ! ! ! ! ! ! ! ! ! ! ! ! ! ) ) ) ) ) ) ) ) ) ) ) ) ) ! ! ! ! ! ! ! ! ! ! ! ! ! ! ! ! ! ! ! ~ ~ ~ ~ { { { { ) ) ) ) ) ) ) ) ) ) ) ) ) ) ) ) ) ) ! ! ! ~ ~ ~ ~ ! ! ) ) ) ) ) ) ) { { { { ) ) ! ! ! ! ! ! ! ' ! ! ! ! ! ! ! ' , ] ^ - = / ( _ : ",
". < [ } | 1 2 3 4 5 6 6 6 6 6 7 7 7 8 8 8 8 8 7 7 7 7 8 8 8 8 8 7 7 7 7 8 8 8 8 8 7 7 7 7 9 9 9 9 0 0 0 0 0 0 0 0 0 0 0 0 0 6 6 6 6 6 6 6 6 6 6 6 6 6 6 6 6 6 0 0 0 0 0 0 0 0 0 0 0 0 0 9 9 9 9 9 9 9 9 7 7 7 7 7 7 7 7 6 6 6 6 6 6 6 6 6 6 6 6 6 7 7 7 7 7 7 7 7 7 7 7 7 7 7 7 7 a 6 6 6 6 9 9 9 9 9 9 9 9 9 9 9 9 6 6 6 6 6 6 6 6 6 6 6 6 6 6 6 6 6 6 7 7 7 7 7 7 7 7 7 7 7 7 7 7 7 7 7 7 7 7 6 6 6 6 6 6 6 6 6 6 6 6 6 6 6 6 6 6 6 6 6 6 6 6 6 6 6 6 6 6 6 6 6 6 6 6 6 6 6 6 6 6 6 6 6 6 6 6 6 6 6 6 6 6 6 6 6 6 6 6 5 6 6 6 6 6 6 6 5 b c d ] e f g h @ ",
"i j k l m n o 2 5 o p p p p p p p p p p p p p p p p p p p p p p p p p p p p p p p p p p p p p p p p p p p p p p p p p p p q q q q q q q q q q q q q q q q q q q p p p p p p p p p p p p p p p p p p q q q p p p p p p p p p p p p p p p p p p p p p p p p p p p p p p p p p p p p p p p p p p p p p p p p p p p p p p p p p p p p p p p p p p p p p p p p p p p p p p p p p p p p p p p p p p p p p p p p p p p p p p p p p p p p p p p p p p p p p p p p p p p q q q q q q q q q q q q q q q q q q q q p p p p p p p p o p p p p p p p o 5 r o n m l s t u ",
"v w x y m { z A p z B B B B C C C C C C D D D D D D D C C D D D D D D D D D D D D D D D D C C C C C C C C C C C C B B B B B B B B B B E E E E E E B B B B B B B B B C C C C C C C C C C C C C C F F F F F F F D C C C C C C C C B B B B B B B B B B B B B B F F F F F F B C C C C C C C C C D D D D D D D D D D D D D C B B B B B B C C C C C C C C C C C D D D D D D D D D D D D D D D D D D D C C C C C C C C C B B B B B B B B B B B B B B B B B B B B B B B B B B B B B B B B B B B B B B B B B B B B B B B C C C C G B B B C C C C G p p G ) H I J w K ",
"L s M N O P Q G C Q > > > > > > > > > > > R R R R R R > > > R R R R R R R S S S S S S S S S S > > > > ] ] ] ] ] ] ] ] ] T T T T T T T T T T T T ] ] ] ] > > > > > > > > > > > > > ] ] ] ] > > > > > R R R R R R R R R T T T T T T T U U U U U U U U 1 1 1 1 1 1 1 1 1 , , , , , S S S S S S S S S U U U U U U U R R R R R R R R R R R R R T T T T > > > > > > > > > > > > > S S S S S S S S > > > > > ] ] ] ] ] ] ] ] ] ] ] ] ] ] ] ] > R R R R > > > > 1 1 1 1 1 1 1 1 1 > > > R R R R R R R R T T T T T T T T T S S S T T T T T S S S T V D T W X N M s Y ",
"Z `  ...O +.@.> #.@.$.$.$.$.$.$.$.$.$.$.$.$.$.$.$.$.$.$.$.$.$.$.$.$.$.$.%.%.%.%.%.%.%.%.%.' ' ' ' &.&.&.&.^ ^ ^ ^ *.*.*.*.*.*.*.*.*.; @.; ; ' ' ' ' ' ' { ' ' { { { { ; ; ; ; ^ ^ ^ ^ ' ' ' ' ; ; ; ; ; ; ; ; ; *.*.*.*.^ ^ ^ ^ *.*.*.*.*.=.=.=.=.-.-.-.-.=.=.=.=.=.=.=.=.=.=.=.=.=.;.;.;.;.=.=.=.=.=.=.=.=.' ' ' ' $.$.$.$.$.' ' ' ' ^ ^ ^ ^ >.>.>.>.; ; ; ; ; ,.,.,.,.$.$.$.$.'.'.'.'.' ' ' ' ).).).).).^ ^ ^ ^ ~ ~ ~ ~ ~ ~ ~ &.; ; ; ; ; ' ' ' ' ' ' ' ' !.!.! ! =.=.=.=.*.*.*.*.*.*.*.*.*.' ' ' ' ^ ^ ^ ^ *.*.*.*.*.*.^ ^ *.*.*.*.*.*.~.S *.{.].^. ./.J ",
"(._.:.<.[.}.|.1.2.|.W W W W W W W W W W W 3.3.3.3.W W W W W 3.3.3.3.W W W W W W W W W 4.4.4.4.4.5.5.5.5.5.5.5.4.4.4.4.4.W W W W P P P P 6.6.6.6.6.6.6.6.6.6.6.6.6.6.6.6.P 7.7.7.4.4.4.4.4.7.7.7.7.6.6.6.6.6.7.7.7.7.4.4.4.4.4.4.4.4.4.4.4.4.5.5.5.5.4.4.4.4.4.W W W W 4.4.4.4.4.4.4.4.4.4.4.4.4.W W W W W W W W W W W W W W W W 4.4.4.4.4.4.4.4.4.7.7.7.7.7.P P P P P P P P P P P P P P P 7.7.7.7.7.7.7.7.7.7.7.7.7.8.6.6.6.6.8.8.8.8.8.8.5.5.5.5.5.5.5.5.5.5.5.3.3.3.W 4.4.4.4.4.4.4.4.4.4.4.4.4.4.5.5.5.4.4.4.4.4.W W |.4.4.4.4.4.W W |.) 1.|.}.9.0.a.b.* ",
"c.c.f d.e.f.g.h.i.g.j.g.g.g.j.j.j.j.j.j.j.j.k.k.k.j.j.j.j.j.j.k.k.k.j.j.j.j.j.j.j.j.j.j.j.j.j.j.g.g.g.g.g.g.g.g.g.g.g.g.j.j.j.j.j.j.j.j.j.k.l.l.m.m.l.l.l.l.l.l.j.j.j.j.j.j.g.g.g.g.g.g.g.g.g.g.j.j.k.l.l.j.j.g.g.g.g.g.g.g.g.g.g.g.g.g.g.g.g.g.g.g.g.g.g.g.g.g.j.j.j.g.g.g.g.g.g.g.g.g.g.g.g.g.g.j.j.j.j.j.j.j.j.j.j.g.g.g.g.g.g.g.g.g.g.g.g.g.g.g.g.g.j.j.j.n.n.n.n.n.j.j.j.j.j.g.g.g.g.g.g.g.g.g.g.g.o.o.o.o.o.n.n.n.l.l.l.l.l.m.p.p.p.p.p.p.p.p.k.k.k.k.k.j.j.j.j.j.j.j.g.g.g.g.g.g.g.g.g.g.g.g.g.g.g.g.g.g.g.g.g.g.g.g.g.g.g.g.g.g.g.h.h.g.q.e.d.f r.c.",
"f f s.t.e.u.v.}.}.w.w.w.w.w.w.w.w.w.w.w.w.w.x.x.x.w.w.w.w.w.w.x.x.x.w.w.w.w.w.w.w.w.w.w.w.w.w.w.w.w.w.w.w.w.w.w.w.w.w.w.w.w.w.w.w.w.w.w.w.w.w.w.w.w.w.w.w.w.w.w.w.w.w.w.w.w.w.w.w.w.w.w.w.x.x.x.x.y.y.y.y.v.w.w.w.w.w.w.w.w.w.w.w.w.w.w.w.w.w.w.w.w.w.w.w.w.w.w.w.w.w.w.w.w.w.w.w.w.w.w.w.w.w.w.w.w.w.w.w.w.w.w.w.w.w.w.w.w.w.w.w.w.w.w.w.w.w.w.w.w.w.w.w.w.w.w.w.w.w.w.w.w.w.w.w.w.w.w.w.w.w.w.w.w.w.w.w.w.w.w.w.w.w.w.w.w.w.w.x.x.x.x.w.w.w.w.w.w.w.w.x.x.x.x.x.x.x.x.x.x.x.x.w.w.w.w.w.w.w.w.w.w.w.w.w.w.w.w.w.w.w.w.w.w.w.w.w.w.w.w.w.}.}.w.z.e.A.s.f f ",
"s.B.C.D.E.m u.F.u.u.u.u.u.u.G.u.u.u.u.u.u.u.u.u.u.u.u.u.u.u.u.u.u.u.u.u.u.u.u.u.u.u.u.u.u.u.u.u.u.u.u.u.u.u.u.u.u.u.u.u.u.u.u.u.u.u.u.u.u.u.u.u.u.u.u.u.u.u.u.u.u.u.u.u.u.u.u.u.u.u.u.u.u.u.u.u.u.u.H.H.H.u.u.u.u.u.u.u.u.u.u.u.u.u.u.u.u.u.u.u.u.u.u.u.u.u.u.u.u.u.u.u.u.u.u.u.u.u.u.u.u.u.u.u.u.u.u.u.u.u.u.u.u.u.u.u.u.u.u.u.u.u.u.u.u.u.u.u.u.u.u.u.u.u.u.H.u.u.u.u.u.u.u.u.u.u.u.u.G.u.u.u.u.u.u.u.u.u.u.u.u.u.u.u.u.u.u.u.u.u.u.u.u.H.u.u.u.u.u.u.u.u.u.u.u.u.u.u.u.u.u.u.u.u.u.u.u.u.u.u.u.u.u.u.u.u.u.u.u.u.u.u.u.u.u.u.u.u.u.u.u.G.f.G.I.E.D.^.N J.",
"0.K.L.M.N.9.X m m O O O.O.O.P.P.O.O O O O O O O O O O O O O O O O O O O O O O O H O O O O O O O O O O O O O O O O O O O O O O O O O O O O O O O O O O O O O O.O O O O O O O O O O O O O O O O O O O O Q.Q.O O O O O O O O O O O O O O O O O O O O.O.O O O O O O Q.Q.O O O O O O O O O O O O O X X X X X X X X X X X O O O O O O O O O O O O O O O O O O O O O Q.O O O O O O O O O O O O.O.O O O O O O O O O O O O O O O O O O O O O O O O Q.O O O O O O O O O O O O O O O O O O O O O O O O O O O O X X O O O O O O.O.O.O.O O O O O.O.O.O.R.I.O.S.E.M.L.K.0.",
"M.M.M.T.U.N.V.V.W.X.Y.Y.Y.Y.Y.Y.E.W.W.W.W.W.W.W.W.W.W.W.W.W.W.W.W.W.W.W.W.W.E.E.E.E.E.E.E.E.E.W.W.W.W.W.W.W.W.W.W.W.W.W.X.X.X.W.W.W.W.W.W.V.V.V.W.W.W.W.W.W.W.W.W.W.W.W.W.W.W.W.W.W.W.W.W.W.E.E.E.E.Z.Z.Z.Y.Y.Y.Y.Y.Y.Y.Y.Y.Y.Y.Y.E.E.E.`.`.`.`.`.E.E.E.E.E.E.E.E.E.E.E.E.E.E.W.W.W.W.W.W.W.W.W.W.V.V.V.V.V.V.V.V.V.V.V.V.V.V.V.V.V.V.V.V.V.V.V.V.V.V.V.V.V.V.V.V.W.W.W.W.E.E.E.E.E.E.E.E.E.E.W.W.W.W.W.W.W.W.W.W.W.W.W.V.V.V.V.V.V.V.V.V.V.V.V.V.V.W.W.W.W.W.W.W.W.W.W.W.W.W.W.W.V.V.V.W.W.W.W.W.W.W.W.W.W.W.W.W.E.Y.Z.Z.W.W.W.W.E.Y.Z.Z.Z.Z.Z.E.U. +.+.+.+",
"`.`.E.U. +T..+.+M.M.++++++++++++++M.M.M..+.+.+.+.+.+= M.M..+.+.+.+.+.+= = = @+@+@+@+@+@+= = #+#+#+#+#+#+#+#+#+#+$+$+$+%+%+%+%+%+.+.+.+.+.+.+.+.+.+.+.+.+.+.+.+.+.+.+.+.+.+.+.+.+%+%+%+%+%+%+++++++++++++++++++++++++++++++++++++++M.M.M.M.M.M.M.M.M.M.M.M.M.++++++++++++= = = #+#+#+#+#+#+#+.+.+.+.+.+.+.+.+.+.+.+.+.+.+.+.+.+.+.+.+.+.+.+.+.+.+.+.+.+.+.+.+.+.+.+.+.+.+.+.+.+.+.+%+%+%+%+%+%+%+%+%+%+%+%+%+%+%+.+.+.+.+.+.+.+.+.+.+.+.+.+.+.+.+.+.+.+.+.+#+#+#+#+#+#+#+#+#+#+#+.+.+.+.+.+#+#+#+#+#+#+#+#+#+#+#+M.++++++++#+#+#+M.++++++++++++++T.&+N.V.V.V.",
"I.*+=+Y.%+-+L.0.0.L.L.L.L.L.L.L.L.L.L.L.L.L.L.L.L.L.L.L.L.L.L.L.L.L.L.L.A.A.A.;+;+;+;+;+;+;+;+d.d.d.d.d.d.d.d.L.L.L.L.L.L.L.L.L.L.L.L.L.L.L.L.L.L.L.L.L.L.L.L.L.L.L.L.L.L.A.A.A.A.A.A.A.A.A.A.A.A.d.d.d.d.d.L.L.L.L.L.L.L.L.L.L.L.L.L.L.L.L.L.L.d.d.L.A.A.A.A.A.A.A.A.A.A.A.A.;+d.d.d.d.L.L.>+>+>+>+>+>+>+>+>+>+>+>+>+>+L.L.L.L.L.L.L.L.d.d.d.d.d.d.L.L.L.L.L.L.L.L.>+t.t.t.t.t.t.t.t.t.t.t.t.t.t.t.t.t.t.t.t.t.t.t.>+L.L.L.L.L.L.L.L.L.L.L.L.L.>+>+>+>+>+>+>+>+,+,+,+,+,+,+,+,+,+,+,+,+,+,+,+,+,+d.d.d.d.d.L.L.L.L.L.L.L.d.L.L.L.L.L.L.L.0.0.L.-+T.V.X m m ",
"f.G.e [.%+0.N s.N N N B.B.B.B.B.B.B.B.B.B.B.B.B.B.B.B.B.B.B.B.B.B.B.B.B.B.B.B.B.B.B.B.B.B.B.B.B.B.B.B.B.B.N N N N N N N N N B.B.B.B.B.B.B.B.B.B.B.B.B.B.B.B.B.B.B.B.B.B.B.B.B.B.B.B.B.B.B.B.B.B.B.B.B.N N N N N N N N N N N N N N N N N N B.B.B.B.B.B.B.B.B.B.B.B.B.B.B.B.B.B.B.B.B.B.B.B.B.B.B.B.B.B.B.....'+'+'+N N B.B.B.B.B.B.B.B.B.B.B.)+)+B.B.B.B.B.B.B.B.B.B.B.B.B.................................................N N N N N N N N N N '+'+'+'+'+'+'+'+'+'+'+'+'+'+'+'+'+'+'+'+............B.B.B.B.B.B.B.B.B.B.B.B.B.B.B.B.B.B.B.B.B.s.B.!+%+[.e u.f.",
"}.- ~+].M.{+]+f f ]+I I I y y y y I I I I I I I I I I I I I I I I I I I I I I I I I I I I I I I I I I ^+^+^+^+^+^+^+^+/+/+/+/+^+^+^+^+^+^+I I I I I I I I I I I I I I I I I I I I I I I I I I I I I I I I I I I I I I I I I I I I I I I I I ^+^+^+^+^+^+^+^+^+^+^+^+^+^+^+^+^+^+^+I I I I I I I I I I I I I I I I I I I I /+/+/+/+^+^+^+^+^+^+^+^+^+^+^+^+^+^+^+^+I I I I I I I I I I I I I I I I I I I I I ^+^+^+^+^+^+^+^+^+^+^+^+^+^+^+^+^+^+^+^+^+^+/+/+/+/+/+y y y y y y I I I I I I I I I I I I I I I I I I I I I ^+I I I I I I I ^+f f ]+{+M.].f.- }.",
"i.i.- m = y :.c.c.:.:.(+(+(+(+(+(+(+:.:.:.:.:.:.:.:.:.:.:.:.:.:.:.:.:.:.:.:.:.(+(+(+:.:.:.:.:.:.:.:.:.:.:.:.:.:.:.:.(+(+(+(+(+(+(+:.:.:.:.:.:.:.:.:.:.:.:.(+(+(+:.:.:.:.:.:.:.:.:.:.a.a.a.:.:.:.:.:.:.:.:.:.:.:.:.:.:._+_+_+:.:.:.:.:.:.:.:.:.:.:.:.:.:.:.:.:.:.:.:.:.:.:.:.:.:.:.:.:.:.:.:.:.:.:.(+(+(+(+(+(+(+(+(+(+(+(+(+(+(+(+(+:.:.:.:.:.:.:.:.:.:.:.:.:.:.:.:.:.:.:.:.:.:.:.:.:.:.:.:.:.:.:.:.:.:.:.:.:.:.:.:.:.:.:.:.:.:.:.:.:.:.:.:.:.:.:.:.:.(+(+(+(+(+(+(+(+(+(+(+:.:.:.:.:.:.:.:.:.:.:.:.:.:.:.:.:.:.:.:.:.:.:.:.:.:.:.:.:.:.:.c.c.:.y :+X v.i.i.",
"$.2.n.<+:+} b.* / b. . . .[+[+[+ . . . . . . . . . . . . . . . . . . . . . . .[+[+[+ . . . . . . . . . . . . . . . . . .[+[+[+ . . . . . . . . . . . . . . . . . . . . . . . . . . .}+}+}+ . . . . . . . . . . . . . .|+|+|+ . . . . . . . . . . . . . . . . . . . . . . . . . . . . . . . . . . . . . .[+[+[+[+[+[+[+[+[+[+[+[+ . . . . . . . . . . . . . . . . . . . . . . . . . . . . . . . . . . . . . . . . . . . . . . . . . . . . . . . . . . . . . . . . .[+[+[+ . . . . . . . . . . . . . . . . . . . . . . . ._. . . . . . . ._./ (._.1+-+2+j.|.1.",
"> #.P 3+4+:.5+J ` 6+(.(.7+7+7+(.(.(.(.(.(.(.(.(.(.(.(.(.(.(.(.(.(.(.(.(.(.(.(.(.(.7+7+7+7+8+8+8+8+8+9+9+8+8+8+8+8+(.(.7+7+(.7+7+7+7+(.(.(.(.(.(.(.(.8+8+8+8+8+8+8+8+8+8+8+8+8+(.(.(.(.(.(.(.(.7+7+7+7+7+(.7+(.(.(.(.(.(.(.(.(.(.(.(.(.(.(.(.(.(.(.8+8+8+8+8+8+0+8+a+a+a+a+b+b+b+b+b+8+8+8+8+8+8+8+8+7+7+7+7+(.(.(.(.(.(.* (.(.(.(.(.(.7+7+7+7+(.(.(.(.0+0+0+0+0+b+a+b+8+8+8+8+8+(.* * (.(.(.(.(.7+7+7+7+7+(.(.(.(.(.(.(.(.(.(.(.(.8+8+8+8+8+8+8+8+8+8+8+8+8+7+7+7+7+(.(.(.(.(.(.(.(.(.(.(.(.(.8+8+8+8+a+a+a+0+8+8+8+8+8+6+a+0+8+8+8+8+8+6+` Z 6+c+>+3+P #.R ",
"E C ' H.>+ .d+Y s d+J J J J J J J J J J J J J J J J Z J J J J J J J J Z Z Z Z Z Z Z Z Z Z Z e+e+f+f+f+f+f+f+f+f+J J J J J J J J J J J J J J J J J Z Z Z Z Z Z Z Z Z Z Z Z Z Z Z Z Z Z Z Z Z Z Z Z Z Z Z Z Z J J J J J J J J J J J J J J J J J J J J J f+f+f+f+f+f+f+f+f+f+f+f+f+f+f+f+f+e+e+e+e+Z Z Z Z Z Z Z Z Z J J J J J J J J Z Z Z Z Z Z Z Z Z Z Z Z J f+f+f+f+f+f+f+J J J J J J J J J J J J J Z Z Z Z Z Z Z Z Z J J J J J J J J f+f+f+f+f+f+f+f+e+Z Z Z Z Z Z Z Z J J J J J J J J J J f+f+f+f+f+f+f+f+f+f+J J J J d+f+f+f+J J J J d+s L d+ .>+F.$.C G ",
"A g+, h+i+* j+K v j+k+k+k+k+k+k+k+k+k+k+l+l+l+l+l+l+l+k+k+l+l+l+l+l+l+l+l+l+l+l+l+l+l+l+l+l+l+l+l+l+l+l+k+k+k+k+k+k+k+k+k+k+k+k+k+k+k+k+k+k+k+k+k+k+s m+m+m+m+m+m+m+m+m+m+m+m+m+l+l+l+l+l+l+m+m+m+m+m+m+m+m+m+s s k+k+k+k+k+k+k+k+k+k+k+k+k+k+k+k+k+k+k+k+k+k+k+k+k+k+k+k+k+k+k+k+k+k+k+k+k+k+l+l+l+l+L L L L L L L L L L L L L L L n+n+n+n+n+n+n+n+s s k+k+k+k+k+k+k+s s s s s s s s s s s s s s l+l+l+l+l+l+l+k+k+k+k+k+k+k+k+k+k+k+k+k+k+k+k+k+k+k+k+k+l+l+l+l+l+l+l+l+l+k+k+k+k+k+k+k+k+k+k+k+k+k+k+k+k+k+s s s s s L k+k+s s s s s L o+v L * d.h+, p+A ",
"r 7 q+v.0./.r+i t r+s+s+t+v v v v v v v v v v v v v v v v v v v v v v v v v v v v v v v v v v v v v v v v v v v v v v t+s+s+s+s+s+s+s+s+s+s+s+s+s+o+o+o+o+o+o+o+o+o+o+o+o+o+o+o+o+o+o+o+o+o+o+o+o+o+o+o+o+o+o+o+o+o+o+o+o+o+o+v v v v v v v v v v v v v v v v s+s+s+s+s+s+s+s+s+s+s+s+v v v v v v v v v v v v v v v v v v v v v v v v v v v v v v v v v v v v v v s+s+s+s+s+s+s+s+s+s+o+o+o+o+v v v v v v v v v v v v v v v v s+s+s+s+s+s+s+s+s+o+o+o+o+o+o+o+o+o+o+o+o+o+o+o+o+s+s+s+s+s+s+s+s+s+s+s+s+s+s+s+s+s+s+s+s+r+s+s+s+s+s+s+s+r+u+u+r+v+i+- C w+2 ",
"c 4 x+y+0.J i @ h z+( ( ( ( ( ( ( ( ( ( & & & & & & ( ( ( & & & & & & ( ( ( ( ( A+( ( ( ( ( & & & & & & & & & & & & & & & & & & j j j j j A+A+A+A+A+A+A+( ( ( ( ( ( ( ( ( ( ( ( ( ( ( ( ( ( ( ( ( & & & t t B+B+B+B+B+B+B+B+B+B+B+B+B+B+B+B+B+B+( ( ( ( ( ( ( ( ( ( ( ( ( ( ( ( ( ( ( B+B+B+B+B+B+B+t t t t t t t t t t t t & & & & & & & & & ( ( ( ( ( & & & & & & & & & & & & & & & & & & & & & & & & & & & ( ( ( ( ( ( ( ( ( ( ( ( & & & & & & & & & & & & & & & & & & & & & & & & & & & & & & & & & & & & & & & j j u+& & & & & j j u+< + C+D+E+y+F+4 c ",
"G+H+6 ) e.f 5+f+I+8+* * * * * * * * * * * * * * (.(.(.* * * * * * (.(.(.J+J+J+J+K+* * * * * * * L+L+L+L+L+L+L+L+L+L+L+L+L+L+L+L+L+L+* * * * K+K+K+K+* * * * * * * * * * * * * * * * * * * * * * * * * * * * * * (.(.(.(.(.(.(.(.(.(.(.(.* * * * * * * * * * * * * * * * * * * * * * * * * * (.(.(.(.(.(.(.(.(.(.(.(.* * * * * * L+L+L+L+* * * * * * * * * * * * * * L+L+L+L+L+L+L+L+L+L+L+L+* * * * * * * * * * * * * * * * * / * * * * * * * * * * * * * * * * * * * * * * * * * * * * * * * * * * * * * * L+L+L+L+L+L+M * L+L+L+L+L+L+M x D+M+N+O+) 6 H+G+",
"H+H+H+H+H+H+H+H+H+H+H+H+H+H+H+H+H+H+H+H+H+P+P+P+P+P+P+H+H+H+P+P+P+P+P+P+P+P+P+P+P+P+Q+R+R+R+R+R+R+R+R+R+R+R+R+R+R+R+R+R+R+R+R+R+R+R+R+R+R+H+H+H+H+H+H+H+H+H+H+H+P+P+P+P+P+P+P+P+P+H+H+H+H+H+H+H+H+H+H+H+H+H+H+H+H+H+H+H+H+H+P+P+P+P+P+P+P+P+P+H+H+H+H+H+H+H+H+H+H+H+H+H+H+H+H+H+H+H+H+R+R+R+R+R+R+R+R+R+R+H+H+H+H+H+H+H+R+R+R+R+R+R+R+R+R+R+H+H+H+H+H+H+H+H+H+H+H+R+R+R+R+R+R+R+R+R+R+R+R+R+R+R+R+R+R+H+H+H+H+H+H+H+H+H+H+H+H+H+H+H+H+H+H+H+H+H+H+H+H+H+H+H+H+H+H+H+H+H+H+H+H+H+H+H+H+H+H+H+H+H+H+H+H+H+H+R+R+R+R+R+R+R+R+R+R+R+R+R+R+R+R+R+R+R+R+R+R+R+R+R+"};
