/* XPM */
static char *image[] = {
"32 32 254 2",
"   c None",
"00 c #0e0e0e",
"10 c #a3a3a3",
"20 c #1b1b1b",
"30 c #040404",
"40 c #aeaeae",
"50 c #ebebeb",
"60 c #fdfefe",
"70 c #bfbfbf",
"80 c #0d0d0d",
"90 c #f1f1f1",
":0 c #f3f3f4",
";0 c #eff7fc",
"A0 c #f5fafd",
"B0 c #cfcfcf",
"C0 c #121212",
"D0 c #f1f8fc",
"E0 c #b1d9f4",
"F0 c #c7e4f7",
"G0 c #f9fcfe",
"H0 c #f0f7fd",
"I0 c #cbe5f7",
"J0 c #c2e1f6",
"K0 c #ecf6fc",
"L0 c #cacaca",
"M0 c #8fc9f0",
"N0 c #acd7f4",
"O0 c #aad5f4",
"P0 c #a5d3f3",
"Q0 c #e7f4fc",
"R0 c #c5c5c5",
"S0 c #111111",
"T0 c #545454",
"U0 c #b9b9b9",
"V0 c #d5ebf9",
"W0 c #63b3ea",
"X0 c #6cb8eb",
"Y0 c #78beed",
"Z0 c #82c2ee",
"a0 c #8ec8f0",
"b0 c #e2f1fb",
"c0 c #d1d1d1",
"d0 c #6b6b6b",
"e0 c #f1f5f7",
"f0 c #5bafe8",
"g0 c #5aafe8",
"h0 c #66b5ea",
"i0 c #6fb9eb",
"j0 c #7bbfed",
"k0 c #84c4ee",
"l0 c #b7dcf5",
"m0 c #f1f6fa",
"n0 c #101010",
"o0 c #d0d0d0",
"p0 c #cbe6f8",
"q0 c #3fa2e5",
"r0 c #43a4e5",
"s0 c #4faae7",
"t0 c #58aee8",
"u0 c #64b4ea",
"v0 c #6eb9eb",
"w0 c #7abeed",
"x0 c #94cbf0",
"y0 c #e1f1fb",
"z0 c #ecedee",
"01 c #0f0f0f",
"11 c #4c4c4c",
"21 c #a5a6a6",
"31 c #dcedf9",
"41 c #50abe8",
"51 c #2796e2",
"61 c #309be3",
"71 c #3ca1e5",
"81 c #45a5e6",
"91 c #52abe7",
":1 c #5bb0e8",
";1 c #67b6ea",
"A1 c #70baeb",
"B1 c #dbedfa",
"C1 c #171717",
"D1 c #e9eff3",
"E1 c #47a6e7",
"F1 c #0686dd",
"G1 c #108bdf",
"H1 c #1990e0",
"I1 c #2596e2",
"J1 c #2f9ae3",
"K1 c #3ba0e5",
"L1 c #58aee9",
"M1 c #93cbf0",
"N1 c #c1e1f7",
"O1 c #eef5f9",
"P1 c #ececec",
"Q1 c #5c5c5c",
"R1 c #f0f8fd",
"S1 c #99cef1",
"T1 c #98cef1",
"U1 c #96cdf1",
"V1 c #92cbf0",
"W1 c #1c91e0",
"X1 c #2998e2",
"Y1 c #9dd0f2",
"Z1 c #eeeff0",
"a1 c #c8c8c8",
"b1 c #c0c0c0",
"c1 c #c2c2c2",
"d1 c #e4e4e4",
"e1 c #118cdf",
"f1 c #319ce3",
"g1 c #d2e9f9",
"h1 c #4eaae7",
"i1 c #4ca9e7",
"j1 c #ecf3f7",
"k1 c #6f6f6f",
"l1 c #adadad",
"m1 c #dbebf6",
"n1 c #aad6f4",
"o1 c #c9c9c9",
"p1 c #676767",
"q1 c #565656",
"r1 c #cccccc",
"s1 c #eef0f1",
"t1 c #5a5a5a",
"u1 c #acacac",
"v1 c #e1e1e1",
"w1 c #a8a8a8",
"x1 c #585858",
"y1 c #5d5d5d",
"z1 c #000000",
"02 c #6a6a6a",
"12 c #d7d7d7",
"22 c #f7fbfd",
"32 c #e9eaea",
"42 c #b0b0b0",
"52 c #a9a9a9",
"62 c #686868",
"72 c #010101",
"82 c #666666",
"92 c #b6b6b6",
":2 c #f0f0f0",
";2 c #e8f3fc",
"A2 c #ecf1f4",
"B2 c #eff2f3",
"C2 c #d8d8d8",
"D2 c #a1a1a1",
"E2 c #909090",
"F2 c #626262",
"G2 c #e7e7e7",
"H2 c #eaf5fc",
"I2 c #cde7f8",
"J2 c #add7f4",
"K2 c #a9d5f3",
"L2 c #aed8f4",
"M2 c #e8f3fa",
"N2 c #b5b5b5",
"O2 c #9a9a9a",
"P2 c #9d9d9d",
"Q2 c #9f9f9f",
"R2 c #a0a0a0",
"S2 c #a2a2a2",
"T2 c #5f5f5f",
"U2 c #d6d7d7",
"V2 c #e4f2fb",
"W2 c #abd6f3",
"X2 c #94cbf1",
"Y2 c #90c9f0",
"Z2 c #b4daf5",
"a2 c #e5e7e8",
"b2 c #9b9b9b",
"c2 c #9c9c9c",
"d2 c #9e9e9e",
"e2 c #717171",
"f2 c #5b5b5b",
"g2 c #c6c6c6",
"h2 c #d4eaf9",
"i2 c #7abfed",
"j2 c #8dc8ef",
"k2 c #97cdf1",
"l2 c #e5eff5",
"m2 c #878787",
"n2 c #8b8b8b",
"o2 c #8d8d8d",
"p2 c #969696",
"q2 c #979797",
"r2 c #575757",
"s2 c #a5a5a5",
"t2 c #d4e9f7",
"u2 c #badef5",
"v2 c #e6f1f9",
"w2 c #dfeffb",
"x2 c #f6fbfe",
"y2 c #999999",
"z2 c #8f8f8f",
"03 c #919191",
"13 c #939393",
"23 c #959595",
"33 c #696969",
"43 c #515151",
"53 c #6e6e6e",
"63 c #e8e9e9",
"73 c #c7c7c7",
"83 c #949494",
"93 c #a7a7a7",
":3 c #929292",
";3 c #838383",
"A3 c #858585",
"B3 c #8c8c8c",
"C3 c #8e8e8e",
"D3 c #8a8a8a",
"E3 c #646464",
"F3 c #656565",
"G3 c #989898",
"H3 c #818181",
"I3 c #848484",
"J3 c #868686",
"K3 c #888888",
"L3 c #898989",
"M3 c #616161",
"N3 c #6c6c6c",
"O3 c #7d7d7d",
"P3 c #7e7e7e",
"Q3 c #7f7f7f",
"R3 c #808080",
"S3 c #828282",
"T3 c #636363",
"U3 c #606060",
"V3 c #6d6d6d",
"W3 c #727272",
"X3 c #737373",
"Y3 c #747474",
"Z3 c #757575",
"a3 c #767676",
"b3 c #777777",
"c3 c #797979",
"d3 c #7a7a7a",
"e3 c #7b7b7b",
"f3 c #7c7c7c",
"g3 c #787878",
"h3 c #707070",
"i3 c #5e5e5e",
"j3 c #595959",
"k3 c #404040",
"l3 c #424242",
"m3 c #444444",
"n3 c #454545",
"o3 c #474747",
"p3 c #484848",
"q3 c #494949",
"r3 c #4a4a4a",
"s3 c #4b4b4b",
"t3 c #4d4d4d",
"u3 c #4f4f4f",
"v3 c #505050",
"w3 c #525252",
"                                                                ",
"                w3v3v3u3t3t3s3r3q3p3o3n3n3m3l3l3k3              ",
"            j3i3h3g3f3e3d3c3c3g3b3a3Z3Y3X3X3W3V3U3t3l3          ",
"            T3e3S3R3Q3P3O3f3e3d3d3c3g3b3a3Z3Y3Y3X3N3s3          ",
"          M3f3L3K3J3I3S3H3R3Q3P3O3f3e3d3c3O3G3H3a3Z3F3r3        ",
"          E3D3C3B3D3K3J3A3;3S3H3R3:39383D37363G3c3g35343        ",
"          33231303z2C3B3D3L3J3A3;3y2x2w2v2u2t2s2f3e3Y3r2        ",
"          N3y2q2p283:303z2o2n2L3m2D3l2k2j2i2h2g2R3P3a3f2        ",
"          e2d2c2b2y2q2p283:303z2o2z2a2Z2Y2X2W2V2U2:3d3T2        ",
"          Y3S2R2Q2P2c2O2G3q2231303N2M2L2K2J2I2H2G2d2O3F2        ",
"          v3E2:3G3d2D2Q2P2c2O2G3P2C2B2A2;2h2:292n2m2R382        ",
"          72T2F262V3g3K3d2R2d2c2P2524242322212:3o2n2I302        ",
"          z1U3i3y1f2j3x1f253m213d2d2P2b2w1v1u1831303L353        ",
"          z1T3F2U3T2y1f2t1e2j3M3h3I3c2Q2P2w1b2G3q223o2W3        ",
"          z182F3T3F2U3T2E2s1r1N3r2q1j3Y313d2Q2P2c2O2:3a3        ",
"          z10262p1F3T3F2o1n1m1l1t1j3r2q1U3Z3O2S2R2Q2p2d3        ",
"          z1V3N30233p1k1j1i1h1M2A3y1t1j3r2q1j3W313D2b2P3        ",
"          z1h3k1V3N302y2g1f1e1X2d1c1b1b1u1k1r2q1i3b3b2S3        ",
"          z1Y3Z3o2d2a1Z1Y1X1W1W1V1U1T1S1R1N2f2t1x1r2r2Q1        ",
"          z1e342P1O1N1M1L1K1J1I1H1G1F1E1D1E2i3y1f2t1q3C1        ",
"          z1J3C2B1j2A1;1:19181716151413121F3F2U3i3y11101        ",
"          z1P3O2z0y0x0w0v0u0t0s0r0q0p0o0V3p1F3E3F2U3u3n0        ",
"          z1H3R3n2a1m0l0k0j0i0h0g0f0e0y2d00262p1F3E3w3n0        ",
"          z1I3;3H3A3c0b0k2a0Z0Y0X0W0V0U0k1V3d00262p1T0S0        ",
"          z1K3m2A3I3R0Q0L2P0O0N0M0j0N032Y3e2k153N3d0x1S0        ",
"          z1n2D3K3m2L0K0J0I0H0G0V2F0E0D0L3Y3W3e2k153t1C0        ",
"          z1Q3o2B3D3B0A0;0:0U0E2N212:290m2g3a3Y3X3e2r280        ",
"          z1M303z2o270605040J3I3S3m2b2b2P3e3c3g3a3Z3r330        ",
"            20Z3:303q210z2n2L3K3J3I3;3H3R3P3f3e3c3p100          ",
"            7220T3;3:303z2C3B3n2L3K3J3A3;3S3Q3X3t320z1          ",
"                z1z1z1z1z1z1z1z1z1z1z1z1z1z1z1z1z1              ",
"                                                                "};
