/* XPM */
static char *image[] = {
"41 48 729 2",
"   c None",
"00 c #c2c9d5",
"10 c #a8b2c6",
"20 c #8e9dbb",
"30 c #8a9cc3",
"40 c #97a5c4",
"50 c #a39596",
"60 c #c1aaac",
"70 c #d8adb3",
"80 c #ee99a2",
"90 c #e47687",
":0 c #f37086",
";0 c #f77f92",
"A0 c #f48e9e",
"B0 c #a79cc9",
"C0 c #7499dc",
"D0 c #7b96d8",
"E0 c #88a2df",
"F0 c #97afe5",
"G0 c #9db2e7",
"H0 c #a0b4e9",
"I0 c #89a2e2",
"J0 c #8da5e3",
"K0 c #8ba3dc",
"L0 c #87a1df",
"M0 c #8ba3de",
"N0 c #718fd2",
"O0 c #5d80cd",
"P0 c #325dbe",
"Q0 c #5a7dce",
"R0 c #7b98da",
"S0 c #4b72ca",
"T0 c #456ac4",
"U0 c #7893d8",
"V0 c #7e9ade",
"W0 c #acbfec",
"X0 c #f2acba",
"Y0 c #f77c91",
"Z0 c #f4556e",
"a0 c #f24963",
"b0 c #f05369",
"c0 c #f79ca6",
"d0 c #f47388",
"e0 c #f6879b",
"f0 c #ff6074",
"g0 c #9d5189",
"h0 c #99c0ef",
"i0 c #89a4e3",
"j0 c #93ace5",
"k0 c #d4e1f7",
"l0 c #ccdbf7",
"m0 c #a0b7eb",
"n0 c #9ab3e9",
"o0 c #698bd8",
"p0 c #87a0df",
"q0 c #5177cd",
"r0 c #2959be",
"s0 c #315bc1",
"t0 c #6c8bd4",
"u0 c #a0b5e6",
"v0 c #7594d7",
"w0 c #4a6fc6",
"x0 c #96ace0",
"y0 c #a4b8e7",
"z0 c #89a3df",
"01 c #a2b9e8",
"11 c #fba0af",
"21 c #fda7b5",
"31 c #f98b9f",
"41 c #fa8ea3",
"51 c #fbb8c5",
"61 c #f66c86",
"71 c #fb9db0",
"81 c #f75e6f",
"91 c #d0344e",
":1 c #aaccf9",
";1 c #91abe2",
"A1 c #839ede",
"B1 c #94abe3",
"C1 c #a4b9eb",
"D1 c #a7beed",
"E1 c #8da8e3",
"F1 c #6789d8",
"G1 c #98afe5",
"H1 c #93ade5",
"I1 c #587cd0",
"J1 c #3d64c1",
"K1 c #5d7ece",
"L1 c #809bdc",
"M1 c #6384d0",
"N1 c #3460c0",
"O1 c #819ad9",
"P1 c #9ab0e2",
"Q1 c #d4def3",
"R1 c #b3c3eb",
"S1 c #f35c75",
"T1 c #f98699",
"U1 c #f991a2",
"V1 c #f67a91",
"W1 c #f66980",
"X1 c #f25c77",
"Y1 c #f66d87",
"Z1 c #f78b97",
"a1 c #e33648",
"b1 c #90b5f0",
"c1 c #88a4e1",
"d1 c #a7bbea",
"e1 c #98aee5",
"f1 c #7b98dd",
"g1 c #7897df",
"h1 c #7796dd",
"i1 c #a4b9ea",
"j1 c #6b8eda",
"k1 c #3e6aca",
"l1 c #3e66c5",
"m1 c #5275cb",
"n1 c #5075ca",
"o1 c #3762c1",
"p1 c #4168c1",
"q1 c #6083d1",
"r1 c #859fdb",
"s1 c #6a8ad1",
"t1 c #8ea8df",
"u1 c #bacbee",
"v1 c #a4b9e8",
"w1 c #f44361",
"x1 c #fa899e",
"y1 c #fa93a6",
"z1 c #f992a4",
"02 c #f77f93",
"12 c #f35d77",
"22 c #f25d77",
"32 c #f46985",
"42 c #f26976",
"52 c #dd3549",
"62 c #94b9f3",
"72 c #95aee4",
"82 c #a8bbea",
"92 c #7b97d9",
":2 c #7995dd",
";2 c #8ca7e5",
"A2 c #95ade7",
"B2 c #7593d9",
"C2 c #3b65c7",
"D2 c #446ac6",
"E2 c #6684d0",
"F2 c #6b8bd5",
"G2 c #4971ca",
"H2 c #486ec5",
"I2 c #6b8bd4",
"J2 c #4c74cb",
"K2 c #7290d8",
"L2 c #6285d1",
"M2 c #7895d8",
"N2 c #aec0ea",
"O2 c #adc2ee",
"P2 c #9a9490",
"Q2 c #a4a19e",
"R2 c #a7a4a0",
"S2 c #df3b56",
"T2 c #ff99ab",
"U2 c #fcaab8",
"V2 c #fa96a8",
"W2 c #f5647d",
"X2 c #f5657d",
"Y2 c #f55d77",
"Z2 c #f7899f",
"a2 c #f25567",
"b2 c #da3d55",
"c2 c #97bcf4",
"d2 c #b4c5ed",
"e2 c #8fa8e1",
"f2 c #86a0df",
"g2 c #9bb2e9",
"h2 c #9bb2e8",
"i2 c #7190da",
"j2 c #5579d0",
"k2 c #6181d1",
"l2 c #5f80d1",
"m2 c #5b7ed1",
"n2 c #5377cc",
"o2 c #3d68c6",
"p2 c #567acc",
"q2 c #577cce",
"r2 c #7393d7",
"s2 c #6a8cd4",
"t2 c #84a0dd",
"u2 c #839cdb",
"v2 c #b5c6ee",
"w2 c #b1c4ef",
"x2 c #a8a5a4",
"y2 c #766e6a",
"z2 c #827f7c",
"03 c #655f5b",
"13 c #837c78",
"23 c #f15a71",
"33 c #feabbb",
"43 c #f77b90",
"53 c #f56f89",
"63 c #f55368",
"73 c #d24463",
"83 c #83b2f1",
"93 c #9bb1e4",
":3 c #94aae3",
";3 c #a7baea",
"A3 c #99b1e7",
"B3 c #7491db",
"C3 c #6586d6",
"D3 c #708cd7",
"E3 c #7290d9",
"F3 c #7594db",
"G3 c #6a8bd5",
"H3 c #6787d2",
"I3 c #6a89d3",
"J3 c #92a9e0",
"K3 c #8ca5de",
"L3 c #5a7ece",
"M3 c #8da6df",
"N3 c #94ace3",
"O3 c #adbee9",
"P3 c #a7bcea",
"Q3 c #766f6b",
"R3 c #686664",
"S3 c #7b7674",
"T3 c #f66f85",
"U3 c #ffd2dd",
"V3 c #fb99ab",
"W3 c #f77f95",
"X3 c #fb95a6",
"Y3 c #f98da0",
"Z3 c #f56c82",
"a3 c #f67b93",
"b3 c #f84962",
"c3 c #c54a6e",
"d3 c #88b8f4",
"e3 c #97aee4",
"f3 c #a9bce9",
"g3 c #c2d0f0",
"h3 c #92a9e2",
"i3 c #7a98de",
"j3 c #87a2e2",
"k3 c #87a0e1",
"l3 c #6f8dd8",
"m3 c #7d99dc",
"n3 c #708ed7",
"o3 c #7492d8",
"p3 c #7692d9",
"q3 c #7996d9",
"r3 c #87a2df",
"s3 c #7090d7",
"t3 c #6c8dd5",
"u3 c #859edc",
"v3 c #92aae2",
"w3 c #a6bae9",
"x3 c #4c4642",
"y3 c #8c8884",
"z3 c #f77d92",
"04 c #ffd3db",
"14 c #fda3b2",
"24 c #fda2b1",
"34 c #feadbb",
"44 c #fa889e",
"54 c #f77790",
"64 c #f45273",
"74 c #fa5973",
"84 c #d16e91",
"94 c #9abbee",
":4 c #a5baeb",
";4 c #b7c8f0",
"A4 c #a5b9ea",
"B4 c #859fe0",
"C4 c #829ee3",
"D4 c #8fa9e7",
"E4 c #829fe1",
"F4 c #9bb2e7",
"G4 c #8ca5e3",
"H4 c #8fa9e5",
"I4 c #88a2e1",
"J4 c #87a3e1",
"K4 c #91aae2",
"L4 c #8ba5e1",
"M4 c #7998dc",
"N4 c #7896db",
"O4 c #8fa7df",
"P4 c #95ace4",
"Q4 c #92a8e1",
"R4 c #a4b7df",
"S4 c #59554f",
"T4 c #888482",
"U4 c #ef8c9e",
"V4 c #feaab9",
"W4 c #f76b85",
"X4 c #f78394",
"Y4 c #f56479",
"Z4 c #f24c66",
"a4 c #ef3e59",
"b4 c #ed2749",
"c4 c #f65570",
"d4 c #e6708f",
"e4 c #b8bde0",
"f4 c #90aee8",
"g4 c #809ce0",
"h4 c #7392db",
"i4 c #839fe1",
"j4 c #86a2e3",
"k4 c #a0b6ea",
"l4 c #9db5ea",
"m4 c #abbeed",
"n4 c #8aa4e2",
"o4 c #8da8e5",
"p4 c #708fd8",
"q4 c #5e7fd0",
"r4 c #6686d1",
"s4 c #6082cf",
"t4 c #4169c5",
"u4 c #2958bc",
"v4 c #5074c7",
"w4 c #6b8bd6",
"x4 c #7c99dc",
"y4 c #9eb5e7",
"z4 c #635d59",
"05 c #8b8683",
"15 c #db8493",
"25 c #e76e84",
"35 c #dc6c7d",
"45 c #f0586a",
"55 c #eb4453",
"65 c #d64f5d",
"75 c #bb5560",
"85 c #ac626a",
"95 c #c07a86",
":5 c #b58791",
";5 c #8d99ac",
"A5 c #909cb2",
"B5 c #818ea8",
"C5 c #91a7d5",
"D5 c #95aae1",
"E5 c #889ed2",
"F5 c #6f86b9",
"G5 c #768ab6",
"H5 c #7689b6",
"I5 c #8196c4",
"J5 c #b0c2e7",
"K5 c #b9c8ea",
"L5 c #aab4cb",
"M5 c #6b6561",
"N5 c #96908c",
"O5 c #6e6865",
"P5 c #95918e",
"Q5 c #999693",
"R5 c #7d7874",
"S5 c #9e9b97",
"T5 c #85807d",
"U5 c #969392",
"V5 c #9d9a97",
"W5 c #827e7c",
"X5 c #85837f",
"Y5 c #a09e9a",
"Z5 c #888683",
"a5 c #aaa8a3",
"b5 c #8b8986",
"c5 c #989693",
"d5 c #868482",
"e5 c #7b7a77",
"f5 c #908f8d",
"g5 c #919391",
"h5 c #b0b1ae",
"i5 c #8e8a89",
"j5 c #8a8583",
"k5 c #8c8987",
"l5 c #a29e9c",
"m5 c #a6a29f",
"n5 c #b1b0ae",
"o5 c #858381",
"p5 c #807f7b",
"q5 c #777572",
"r5 c #999895",
"s5 c #4f4a45",
"t5 c #524d48",
"u5 c #6a635f",
"v5 c #706965",
"w5 c #9e9c97",
"x5 c #7c7775",
"y5 c #6e6763",
"z5 c #8d8784",
"06 c #6a6562",
"16 c #6e6864",
"26 c #a5a4a0",
"36 c #848480",
"46 c #757270",
"56 c #9f9d9a",
"66 c #a4a29f",
"76 c #716c69",
"86 c #595250",
"96 c #8e8985",
":6 c #86827e",
";6 c #a19d99",
"A6 c #b0aeab",
"B6 c #726e6a",
"C6 c #7b7672",
"D6 c #504c46",
"E6 c #77736f",
"F6 c #706a69",
"G6 c #67635e",
"H6 c #84817f",
"I6 c #757170",
"J6 c #979592",
"K6 c #7f7f7d",
"L6 c #979390",
"M6 c #92908c",
"N6 c #8c8783",
"O6 c #c0bdba",
"P6 c #aeada9",
"Q6 c #999692",
"R6 c #a5a29e",
"S6 c #77726e",
"T6 c #7b7673",
"U6 c #847f7b",
"V6 c #6f6964",
"W6 c #706b68",
"X6 c #37322f",
"Y6 c #494341",
"Z6 c #b6b1ae",
"a6 c #a4a29d",
"b6 c #807d7b",
"c6 c #7a7977",
"d6 c #726d6c",
"e6 c #979491",
"f6 c #818180",
"g6 c #9a9692",
"h6 c #a5a39f",
"i6 c #a7a49f",
"j6 c #aeaaa8",
"k6 c #c1c0bd",
"l6 c #b5b2ad",
"m6 c #b2afad",
"n6 c #bebbb8",
"o6 c #9b9894",
"p6 c #938e8a",
"q6 c #8f8a87",
"r6 c #6b6663",
"s6 c #524c49",
"t6 c #0c0603",
"u6 c #39302b",
"v6 c #adaaa5",
"w6 c #b8b8b8",
"x6 c #898581",
"y6 c #858482",
"z6 c #71716f",
"07 c #6f6b6a",
"17 c #93908d",
"27 c #888583",
"37 c #b3b2ad",
"47 c #aba9a8",
"57 c #a9a8a5",
"67 c #7c7874",
"77 c #7e7976",
"87 c #9b9997",
"97 c #95928e",
":7 c #94908a",
";7 c #827d7b",
"A7 c #49423e",
"B7 c #39322e",
"C7 c #3d3633",
"D7 c #73706c",
"E7 c #c1c2c1",
"F7 c #716c6b",
"G7 c #979490",
"H7 c #7c7b79",
"I7 c #adaca7",
"J7 c #a8a7a4",
"K7 c #9e9e9c",
"L7 c #807e79",
"M7 c #918c89",
"N7 c #585251",
"O7 c #261f1b",
"P7 c #b3b0ab",
"Q7 c #9f9d9b",
"R7 c #7d7c7b",
"S7 c #6f6d6a",
"T7 c #928d8a",
"U7 c #7f7b77",
"V7 c #a3a19c",
"W7 c #41403f",
"X7 c #857e78",
"Y7 c #aaa8a6",
"Z7 c #84817c",
"a7 c #726e6d",
"b7 c #818181",
"c7 c #8b8883",
"d7 c #898886",
"e7 c #625c59",
"f7 c #080300",
"g7 c #8b8781",
"h7 c #797470",
"i7 c #828381",
"j7 c #8a8885",
"k7 c #87837f",
"l7 c #898987",
"m7 c #464646",
"n7 c #4c4743",
"o7 c #8b8783",
"p7 c #706c69",
"q7 c #8e8b88",
"r7 c #827d79",
"s7 c #989591",
"t7 c #77716e",
"u7 c #9c9994",
"v7 c #88827f",
"w7 c #b1b1af",
"x7 c #5f5e5d",
"y7 c #120d09",
"z7 c #a4a29e",
"08 c #80807d",
"18 c #aeaba6",
"28 c #b6b4af",
"38 c #858382",
"48 c #9e9a98",
"58 c #afafae",
"68 c #87847f",
"78 c #1a1615",
"88 c #716c66",
"98 c #a8a7a6",
":8 c #8c8886",
";8 c #828280",
"A8 c #736e6c",
"B8 c #5a5452",
"C8 c #57534f",
"D8 c #67615d",
"E8 c #7b7470",
"F8 c #82807c",
"G8 c #a8a6a3",
"H8 c #746f6d",
"I8 c #5a5552",
"J8 c #4c4643",
"K8 c #635c59",
"L8 c #67635c",
"M8 c #96938d",
"N8 c #bdbebd",
"O8 c #000000",
"P8 c #42372e",
"Q8 c #ff9584",
"R8 c #d3a799",
"S8 c #a8a8a7",
"T8 c #868581",
"U8 c #bebebb",
"V8 c #d4d4cf",
"W8 c #88958b",
"X8 c #7fb081",
"Y8 c #97a998",
"Z8 c #160f0b",
"a8 c #180c05",
"b8 c #868179",
"c8 c #fca09f",
"d8 c #f8312e",
"e8 c #f62421",
"f8 c #fa6d60",
"g8 c #9d9f9d",
"h8 c #bebeb9",
"i8 c #babab6",
"j8 c #6fad72",
"k8 c #438a44",
"l8 c #4d9751",
"m8 c #7cb57f",
"n8 c #a9bdaa",
"o8 c #180b0a",
"p8 c #645b56",
"q8 c #cfa09a",
"r8 c #f9413b",
"s8 c #f10000",
"t8 c #f20909",
"u8 c #f01315",
"v8 c #ef3f34",
"w8 c #f6e2d5",
"x8 c #9a9d99",
"y8 c #a19c98",
"z8 c #c6c6c6",
"09 c #86af8a",
"19 c #308438",
"29 c #599659",
"39 c #7cb277",
"49 c #68aa69",
"59 c #62a463",
"69 c #548554",
"79 c #c2d2a2",
"89 c #b0b080",
"99 c #cdca89",
":9 c #fff2b2",
";9 c #e7c3b3",
"A9 c #fecdbf",
"B9 c #fc6d66",
"C9 c #fd362c",
"D9 c #fd442f",
"E9 c #f83a2a",
"F9 c #ec0d08",
"G9 c #e20000",
"H9 c #f74c30",
"I9 c #d1c0b5",
"J9 c #928e8d",
"K9 c #bdc8b9",
"L9 c #97c997",
"M9 c #4f9756",
"N9 c #26732d",
"O9 c #589859",
"P9 c #72b072",
"Q9 c #85bc84",
"R9 c #6db279",
"S9 c #e5e98a",
"T9 c #fff24f",
"U9 c #fff84f",
"V9 c #ffc259",
"W9 c #ff6c60",
"X9 c #fe635c",
"Y9 c #fe4f41",
"Z9 c #ff5c3e",
"a9 c #fc4024",
"b9 c #f00d0a",
"c9 c #ea0603",
"d9 c #eb2314",
"e9 c #ff4f37",
"f9 c #766c64",
"g9 c #899082",
"h9 c #a6cfa4",
"i9 c #91c392",
"j9 c #5fa063",
"k9 c #256f2b",
"l9 c #38853d",
"m9 c #67a66d",
"n9 c #81b677",
"o9 c #ffee60",
"p9 c #ffee50",
"q9 c #ffe254",
"r9 c #ffb039",
"s9 c #ff633f",
"t9 c #ff825d",
"u9 c #fe5637",
"v9 c #fd3a1a",
"w9 c #f82214",
"x9 c #f02c37",
"y9 c #ea302b",
"z9 c #ff3f35",
"0: c #9a5653",
"1: c #595d55",
"2: c #b5afae",
"3: c #89a183",
"4: c #8abe8b",
"5: c #90c692",
"6: c #7fb27f",
"7: c #77a775",
"8: c #70b07a",
"9: c #dcdf5d",
":: c #ffee44",
";: c #ffe83d",
"A: c #ffec32",
"B: c #ffe435",
"C: c #ff5c1e",
"D: c #ff360a",
"E: c #ff4414",
"F: c #fc300e",
"G: c #f32a18",
"H: c #e82635",
"I: c #f24146",
"J: c #9a5552",
"K: c #39423e",
"L: c #8d9287",
"M: c #86aa82",
"N: c #a4cea0",
"O: c #98c997",
"P: c #78af7e",
"Q: c #73a66a",
"R: c #ffeb5c",
"S: c #fff260",
"T: c #fff25c",
"U: c #fff83a",
"V: c #ffce46",
"W: c #ff5c35",
"X: c #ff4318",
"Y: c #fc390e",
"Z: c #eb1602",
"a: c #eb190b",
"b: c #e9585c",
"c: c #926866",
"d: c #2a332e",
"e: c #a3a79d",
"f: c #8ea987",
"g: c #a2cb9d",
"h: c #7fba89",
"i: c #accc87",
"j: c #ffe359",
"k: c #f3e168",
"l: c #f4e154",
"m: c #f6eb3e",
"n: c #f7c255",
"o: c #f6542d",
"p: c #ef3c12",
"q: c #f1491d",
"r: c #f83110",
"s: c #de5d46",
"t: c #6a5c53",
"u: c #3c3e39",
"v: c #807e7a",
"w: c #a6a8a1",
"x: c #939f8b",
"y: c #81a885",
"z: c #d2ddb4",
"0; c #fff37d",
"1; c #fff17f",
"2; c #ffec69",
"3; c #fdee5b",
"4; c #f8c670",
"5; c #fd6c42",
"6; c #f84313",
"7; c #e56136",
"8; c #953e20",
"9; c #484037",
":; c #7f7f7c",
";; c #90918a",
"A; c #b2b2b0",
"B; c #c3beae",
"C; c #cabd86",
"D; c #c8b977",
"E; c #c6bc76",
"F; c #c6a87a",
"G; c #ba8c7d",
"H; c #a28273",
"I; c #8e8782",
"J; c #8d9392",
"K; c #9f9e9e",
"L; c #8b8a81",
"                                        L;  K;                                    ",
"                                J;I;H;G;F;E;D;C;B;A;;;                            ",
"                            :;9;8;7;6;5;4;3;2;1;0;z:y:x:w:                        ",
"                        v:u:t:s:r:q:p:o:n:m:l:k:j:i:h:g:f:e:                      ",
"                        d:c:b:a:Z:Y:X:W:V:U:T:S:R:Q:P:O:N:M:L:                    ",
"                      K:J:I:H:G:F:E:D:C:B:A:;:::9:8:7:6:5:4:3:2:                  ",
"                    1:0:z9y9x9w9v9u9t9s9r9q9p9o9n9m9l9k9j9i9h9g9                  ",
"                    f9e9d9c9b9a9Z9Y9X9W9V9U9T9S9R9Q9P9O9N9M9L9K9J9                ",
"                    I9H9G9F9E9D9C9B9A9;9:999897969594939291909z8y8                ",
"                  x8w8v8u8t8s8r8q8            p8o8n8m8l8k8j8    i8h8              ",
"                  g8  f8e8d8c8              b8a8Z8    Y8X8W8    V8U8              ",
"                T8S8  R8Q8                  P8O8Z8              N8M8L8K8J8I8H8G8  ",
"  F8E8D8C8B8A8;8:898                        887868              584838        28  ",
"1808              z7                        y7x7                w7v7          u7  ",
"t7                s7                        O8                    r7          q7  ",
"p7                o7                      n7m7                  l7k7          j7i7",
"h7                g7                      f7                    e7d7          c7b7",
"a7                Z7Y7                  X7W7                  V7U7            T7  ",
"S7                R7Q7                P7O7N7M7L7K7          J7I7H7            G7  ",
"F7                  :8E7        D7C7B7A7;7:79787776757    473727              17  ",
"07z6                y6x6w6  v6u6t6s6r6q6p6o6n6m6l6k6j6i6h6g6f6                e608",
"d6c6                  b6a6Z6Y6X6W6V6U6T6S6R6o6Q6P6O6N6M6L6K6                  J6  ",
"I6H7                    H6G6F6E6D6T6C6B6A6;6:6u796867666                      56  ",
"4636                        261606z5y5x5w5v5u5t5s5H6                          r5  ",
"q5p5                            o5n5m5l5k5j5i5h5g5                            f5  ",
"e5d5                                                                          f5  ",
"  17                                                                          c5  ",
"  b5                                                                          a5  ",
"  Z5                                                                          Y5  ",
"  X5                                                                          z7  ",
"  W5                                                                          V5  ",
"  k7                                                                          U5  ",
"  T5                                                                          S5  ",
"  R5                                                                          Q5  ",
"  t7                                                                          P5  ",
"  O5                                                                          N5  ",
"  M5          L5K5J5I5H5G5F5E5D5C5B5            A5;5  :5958575655545352515    05  ",
"  z4        y4x4w4v4u4t4s4r4q4p4o4n4m4l4k4j4i4h4g4f4e4d4c4b4a4Z4Y4X4W4V4U4    T4  ",
"  S4        R4Q4P4O4N4M4L4K4J4I4H4G4F4E4D4C4B4A4;4:494847464544434241404z3    y3  ",
"  x3        w3v3L4u3t3s3r3q3p3o3n3m3l3k3j3i3h3g3f3e3d3c3b3a3Z3Y3X3W3V3U3T3    S3  ",
"R3Q3        P3O3N3M3L3K3J3I3H3s4G3F3E3D3C3B3A3;3:3938373635343434343343323    13  ",
"  03z2F6y2x2w2v2u2t2s2r2q2p2o2n2m2l2k2j2i2h2g2f2e2d2c2b2a2Z2Y2X2W2V2U2T2S2R2Q2P2  ",
"            O2N2M2L2K2J2I2H2G2F2E2D2C2B2A2;2:292827262524232221202z1y1x1w1        ",
"            v1u1t1s1r1q1p1o1n1m1l1k1j1i1h1g1f1e1d1c1b1a1Z1Y1X1W1z3V1U1T1S1        ",
"            v1R1Q1P1O1N1M1L1K1J1I1H1G1F1E1D1C1B1A1;1:1918171615141y1312111        ",
"            01z0y0x0w0v0u0t0s0r0q0p0o0n0m0l0k0j0i0O3h0g0f0e0d0c0b0a0Z0Y0X0        ",
"            W0V0U0T0S0R0Q0P0O0N0M0L0K0J0I0H0G0F0E0D0C0B0A0;0:09080706050          ",
"              4030201000                                                          "};
