/* XPM */
static char *image[] = {
"48 48 5 1",
"  c None",
"0 c #ffffff",
"1 c #aaaaaa",
"2 c #555555",
"3 c #000000",
"                   333333333333                 ",
"                33333333333333333               ",
"              33232333333333333333              ",
"            3322222223333333333333              ",
"           322212212232333333333333             ",
"          32321211112233333333333333            ",
"         3232211112222233333333333333           ",
"        322221111101122233333333333333          ",
"      32222232210110112333323333333333          ",
"   333222232211111112323232332333333333         ",
"  3222222222111222333333322333333333333         ",
" 332211112212223333323332233323333333333        ",
" 321111222222330333233332233323333333333        ",
" 221012222233323233323332233323333333333        ",
" 211122222222333333332332233223333333333        ",
" 222222222222232232233332233233333333333        ",
"  222223222222232232333223332333333333333       ",
"   22233232222222323333223313332333333333       ",
"    33      22223233232323223333333333333       ",
"                 222232323233323333333333       ",
"                 222223222233233333333333       ",
"                2221222332232233333333333       ",
"               22222223222322333333333333       ",
"             3222112222323223333333333333       ",
"            22221122123222223233333333333       ",
"           222101222222322232333333333333       ",
"          2211012212223222323333333333333       ",
"          211012212222222223323333333333        ",
"         2110122122223232233233333333333        ",
"         210121212122222232233333333333         ",
"         210121012223322323333333333333         ",
"        331111012222323222323333333333          ",
"        23212112222323222323333333333           ",
"       223321112223232322233333333333           ",
"       222333221222323223333333333333           ",
"      22222333333332322333333333333333          ",
"      22122233233233333333333333333333          ",
"      32211112333333333333333333333333          ",
"      22222120122232232333333333333333          ",
"      32121212122233333332333233333333          ",
"       221211122223232333333333333333           ",
"       222101212232323333333333333333           ",
"        21210122222332323323333333333           ",
"         112111222323333233333233333            ",
"         31101212222223233332333333             ",
"           21112222322222223333233              ",
"            32212222222322333323                ",
"               322223232333 3                   "};
