/* XPM */
static char *image[] = {
"48 48 609 2",
"   c None",
"00 c #757c81",
"10 c #656565",
"20 c #242424",
"30 c #030303",
"40 c #3c3c3c",
"50 c #646567",
"60 c #727d86",
"70 c #1a6cae",
"80 c #6588a2",
"90 c #889096",
":0 c #7b7d7d",
";0 c #5e5e5e",
"A0 c #2d2d2d",
"B0 c #040404",
"C0 c #03060b",
"D0 c #4e4e4e",
"E0 c #6a6d6e",
"F0 c #7b8891",
"G0 c #4176a0",
"H0 c #3973a0",
"I0 c #788c9b",
"J0 c #9ba0a4",
"K0 c #969798",
"L0 c #6d6d6d",
"M0 c #3e3e3e",
"N0 c #2b384d",
"O0 c #102138",
"P0 c #010305",
"Q0 c #010101",
"R0 c #1a1a1a",
"S0 c #414141",
"T0 c #6c625e",
"U0 c #8c7163",
"V0 c #a87d67",
"W0 c #68869e",
"X0 c #2971aa",
"Y0 c #186bad",
"Z0 c #196cad",
"a0 c #49799f",
"b0 c #5980a0",
"c0 c #9c8154",
"d0 c #9d8058",
"e0 c #646b74",
"f0 c #959190",
"g0 c #a19b99",
"h0 c #9b9797",
"i0 c #8c8c8c",
"j0 c #767676",
"k0 c #616161",
"l0 c #4d4d4d",
"m0 c #393939",
"n0 c #343434",
"o0 c #444444",
"p0 c #4b4b4b",
"q0 c #555555",
"r0 c #656260",
"s0 c #615b58",
"t0 c #756863",
"u0 c #826c63",
"v0 c #947266",
"w0 c #a47866",
"x0 c #b47d69",
"y0 c #c07455",
"z0 c #d06439",
"01 c #e26125",
"11 c #e56825",
"21 c #ce6532",
"31 c #596c81",
"41 c #186bac",
"51 c #1769aa",
"61 c #1869aa",
"71 c #e59c27",
"81 c #e79225",
"91 c #e78c26",
":1 c #e68126",
";1 c #e27e2d",
"A1 c #d87b33",
"B1 c #d88140",
"C1 c #cd7a3f",
"D1 c #cd7840",
"E1 c #cc763f",
"F1 c #d7763a",
"G1 c #d97034",
"H1 c #e16b29",
"I1 c #e26525",
"J1 c #df5e26",
"K1 c #df5a26",
"L1 c #dd5725",
"M1 c #e05a25",
"N1 c #df5c24",
"O1 c #e66924",
"P1 c #c86636",
"Q1 c #7d6969",
"R1 c #1868a9",
"S1 c #1768a9",
"T1 c #1767a8",
"U1 c #e7a025",
"V1 c #e16a27",
"W1 c #e06626",
"X1 c #e36626",
"Y1 c #e15f26",
"Z1 c #e15d25",
"a1 c #e15b25",
"b1 c #df5925",
"c1 c #df5b26",
"d1 c #e76a24",
"e1 c #d96a2c",
"f1 c #22679f",
"g1 c #1767a7",
"h1 c #1766a6",
"i1 c #1765a6",
"j1 c #1865a6",
"k1 c #1a62a1",
"l1 c #c59738",
"m1 c #e37527",
"n1 c #e16b27",
"o1 c #e16826",
"p1 c #e46726",
"q1 c #e16027",
"r1 c #e25f25",
"s1 c #e05c25",
"t1 c #e05a26",
"u1 c #e25d25",
"v1 c #e36125",
"w1 c #e66724",
"x1 c #e16e2a",
"y1 c #1765a5",
"z1 c #1763a3",
"02 c #1b609e",
"12 c #4c5f80",
"22 c #d77f2a",
"32 c #eca321",
"42 c #e67f27",
"52 c #e26e27",
"62 c #e26c27",
"72 c #e26926",
"82 c #e36726",
"92 c #e36526",
":2 c #e26124",
";2 c #e15e25",
"A2 c #e15c26",
"B2 c #e35f24",
"C2 c #e76825",
"D2 c #e97024",
"E2 c #cc6a34",
"F2 c #1663a3",
"G2 c #1662a2",
"H2 c #1762a2",
"I2 c #1763a2",
"J2 c #1a63a2",
"K2 c #1d62a0",
"L2 c #91736f",
"M2 c #e06d3d",
"N2 c #dc5b28",
"O2 c #eca021",
"P2 c #eca022",
"Q2 c #e99424",
"R2 c #e88e25",
"S2 c #e37227",
"T2 c #e26f27",
"U2 c #e36d27",
"V2 c #e26b26",
"W2 c #e46626",
"X2 c #e36425",
"Y2 c #e35e25",
"Z2 c #e35d25",
"a2 c #e56125",
"b2 c #ea7324",
"c2 c #916758",
"d2 c #1762a0",
"e2 c #1760a0",
"f2 c #17609f",
"g2 c #1962a0",
"h2 c #1d66a4",
"i2 c #446e9b",
"j2 c #da9974",
"k2 c #e79266",
"l2 c #e37c4c",
"m2 c #e06a39",
"n2 c #d76025",
"o2 c #e37327",
"p2 c #e37027",
"q2 c #e26d27",
"r2 c #e36c26",
"s2 c #e56a25",
"t2 c #e26626",
"u2 c #e46625",
"v2 c #e46325",
"w2 c #e35f26",
"x2 c #e45f24",
"y2 c #e66325",
"z2 c #e97425",
"03 c #215f97",
"13 c #165f9e",
"23 c #155e9d",
"33 c #1861a0",
"43 c #2169a7",
"53 c #b59883",
"63 c #ecc39b",
"73 c #f5d9b1",
"83 c #f0c49b",
"93 c #ecab80",
":3 c #e79063",
";3 c #dd6232",
"A3 c #e89d22",
"B3 c #e78726",
"C3 c #e68026",
"D3 c #e47927",
"E3 c #e47627",
"F3 c #e36e27",
"G3 c #e56626",
"H3 c #e46525",
"I3 c #e36225",
"J3 c #e66324",
"K3 c #e76525",
"L3 c #ea7224",
"M3 c #d66c2c",
"N3 c #165e9d",
"O3 c #165e9c",
"P3 c #165d9c",
"Q3 c #165d9b",
"R3 c #175e9b",
"S3 c #3e76a3",
"T3 c #e9bd93",
"U3 c #f8efc2",
"V3 c #e7bd9c",
"W3 c #e4b091",
"X3 c #efc6a0",
"Y3 c #e8a682",
"Z3 c #cd604e",
"a3 c #c03c32",
"b3 c #d67723",
"c3 c #ea9624",
"d3 c #e98f25",
"e3 c #e47a27",
"f3 c #e47727",
"g3 c #e37427",
"h3 c #e37127",
"i3 c #e46e26",
"j3 c #e56d26",
"k3 c #e46926",
"l3 c #e36325",
"m3 c #e56425",
"n3 c #e66524",
"o3 c #e86824",
"p3 c #eb7524",
"q3 c #8a6358",
"r3 c #165c9a",
"s3 c #165b9a",
"t3 c #1c5c97",
"u3 c #bc9e80",
"v3 c #e0a585",
"w3 c #cb5741",
"x3 c #c94227",
"y3 c #ce4727",
"z3 c #cf512f",
"04 c #c53f27",
"14 c #bc3327",
"24 c #b32628",
"34 c #ca5b24",
"44 c #eca521",
"54 c #eb9e23",
"64 c #e78526",
"74 c #e57e27",
"84 c #e57a27",
"94 c #e47527",
":4 c #e47227",
";4 c #e56e27",
"A4 c #e66c26",
"B4 c #e56b26",
"C4 c #e56525",
"D4 c #e66625",
"E4 c #e86725",
"F4 c #eb7025",
"G4 c #e47126",
"H4 c #165a98",
"I4 c #165998",
"J4 c #155997",
"K4 c #695d63",
"L4 c #be7c5f",
"M4 c #dc5c27",
"N4 c #de5f26",
"O4 c #df6027",
"P4 c #da5e26",
"Q4 c #d35526",
"R4 c #ca4826",
"S4 c #c13a26",
"T4 c #c75225",
"U4 c #e88d25",
"V4 c #e78626",
"W4 c #e68027",
"X4 c #e57b27",
"Y4 c #e57527",
"Z4 c #e57227",
"a4 c #e47027",
"b4 c #e56c27",
"c4 c #e76b25",
"d4 c #e66925",
"e4 c #e66725",
"f4 c #e56725",
"g4 c #e76824",
"h4 c #ec7424",
"i4 c #a0634a",
"j4 c #155995",
"k4 c #155895",
"l4 c #165795",
"m4 c #7d4a45",
"n4 c #bf582f",
"o4 c #e26b2b",
"p4 c #e4722c",
"q4 c #e4752b",
"r4 c #e47129",
"s4 c #e26e28",
"t4 c #df6726",
"u4 c #d65825",
"v4 c #cc4926",
"w4 c #ca5524",
"x4 c #edaa20",
"y4 c #eca322",
"z4 c #eb9c23",
"05 c #ea9524",
"15 c #e88f25",
"25 c #e78826",
"35 c #e68226",
"45 c #e47827",
"55 c #e57427",
"65 c #e57126",
"75 c #e66e27",
"85 c #e56e26",
"95 c #e86c25",
":5 c #e66826",
";5 c #e76925",
"A5 c #e86825",
"B5 c #e96b24",
"C5 c #ea7025",
"D5 c #e27027",
"E5 c #185891",
"F5 c #165793",
"G5 c #165693",
"H5 c #165593",
"I5 c #5f5764",
"J5 c #975d41",
"K5 c #d48f3d",
"L5 c #f1a93b",
"M5 c #efa436",
"N5 c #ec962f",
"O5 c #e78429",
"P5 c #e37226",
"Q5 c #de6425",
"R5 c #d25426",
"S5 c #cf5c24",
"T5 c #edac1f",
"U5 c #eca421",
"V5 c #eb9d23",
"W5 c #ea9724",
"X5 c #e99025",
"Y5 c #e78925",
"Z5 c #e68326",
"a5 c #e57c27",
"b5 c #e57827",
"c5 c #e57526",
"d5 c #e57127",
"e5 c #e76e26",
"f5 c #e66b26",
"g5 c #e86925",
"h5 c #e86924",
"i5 c #e87225",
"j5 c #575a6e",
"k5 c #155592",
"l5 c #155492",
"m5 c #155491",
"n5 c #155490",
"o5 c #1d588c",
"p5 c #285d89",
"q5 c #295b87",
"r5 c #335c82",
"s5 c #60686c",
"t5 c #c67033",
"u5 c #d55625",
"v5 c #d46623",
"w5 c #edad1f",
"x5 c #eca621",
"y5 c #eb9f23",
"z5 c #ea9824",
"06 c #e99124",
"16 c #e68426",
"26 c #e67c27",
"36 c #e67826",
"46 c #e67126",
"56 c #e76f26",
"66 c #e66d26",
"76 c #e86b24",
"86 c #e86a26",
"96 c #e96924",
":6 c #e86a25",
";6 c #ea6e25",
"A6 c #cd5027",
"B6 c #15538f",
"C6 c #15528f",
"D6 c #15518d",
"E6 c #16518c",
"F6 c #af643a",
"G6 c #d87323",
"H6 c #eeaf1f",
"I6 c #eda720",
"J6 c #ea9923",
"K6 c #e88c25",
"L6 c #e78426",
"M6 c #e67b27",
"N6 c #e67427",
"O6 c #e67125",
"P6 c #e86e26",
"Q6 c #e96d26",
"R6 c #e76c26",
"S6 c #e96b25",
"T6 c #e96c24",
"U6 c #e96e25",
"V6 c #c54127",
"W6 c #c64628",
"X6 c #14518d",
"Y6 c #14508d",
"Z6 c #15508c",
"a6 c #205388",
"b6 c #cd8d2d",
"c6 c #eeb01e",
"d6 c #eda820",
"e6 c #eca122",
"f6 c #ea9a23",
"g6 c #e99324",
"h6 c #e88b25",
"i6 c #e78326",
"j6 c #e77b27",
"k6 c #e67726",
"l6 c #e77325",
"m6 c #e77026",
"n6 c #e97026",
"o6 c #e76d25",
"p6 c #e86c26",
"q6 c #e86d25",
"r6 c #ea6b24",
"s6 c #e96a25",
"t6 c #c53f26",
"u6 c #b72c27",
"v6 c #cb4e27",
"w6 c #14508b",
"x6 c #144f8a",
"y6 c #144e89",
"z6 c #144e88",
"07 c #1b5a94",
"17 c #daaf29",
"27 c #eca222",
"37 c #eb9b23",
"47 c #ea9224",
"57 c #e88925",
"67 c #e98225",
"77 c #e77b28",
"87 c #e87526",
"97 c #e87326",
":7 c #e97025",
";7 c #e86d26",
"A7 c #e96d25",
"B7 c #ea6d24",
"C7 c #e16125",
"D7 c #c13827",
"E7 c #bd3427",
"F7 c #c23b27",
"G7 c #d45a27",
"H7 c #144d88",
"I7 c #144c88",
"J7 c #154c87",
"K7 c #14508a",
"L7 c #557c7e",
"M7 c #eeb11e",
"N7 c #eca920",
"O7 c #eba022",
"P7 c #ec9923",
"Q7 c #e99224",
"R7 c #e98b24",
"S7 c #e88025",
"T7 c #e87925",
"U7 c #e77427",
"V7 c #e87226",
"W7 c #e96f26",
"X7 c #e96d24",
"Y7 c #e96e26",
"Z7 c #e86b25",
"a7 c #d45127",
"b7 c #c13828",
"c7 c #c33b27",
"d7 c #c74328",
"e7 c #ca4926",
"f7 c #d96527",
"g7 c #144c87",
"h7 c #144c86",
"i7 c #134c86",
"j7 c #144d87",
"k7 c #1a629d",
"l7 c #c1ab3b",
"m7 c #efb91c",
"n7 c #eeae1e",
"o7 c #eda920",
"p7 c #ed9e23",
"q7 c #e59426",
"r7 c #eaab20",
"s7 c #eb9d21",
"t7 c #e98c23",
"u7 c #e87e25",
"v7 c #e87626",
"w7 c #e97226",
"x7 c #e87127",
"y7 c #de6d29",
"z7 c #d95a26",
"08 c #c43d28",
"18 c #c53e27",
"28 c #c84327",
"38 c #cc4927",
"48 c #d05126",
"58 c #d35826",
"68 c #d3682b",
"78 c #134b85",
"88 c #134b86",
"98 c #15609d",
":8 c #6f8c74",
";8 c #f1c01e",
"A8 c #eeb01f",
"B8 c #eda320",
"C8 c #da9728",
"D8 c #616462",
"E8 c #4a616c",
"F8 c #776d57",
"G8 c #826d52",
"H8 c #816853",
"I8 c #685f5e",
"J8 c #3a5372",
"K8 c #534e65",
"L8 c #cd4a27",
"M8 c #cc4827",
"N8 c #d04d26",
"O8 c #d45526",
"P8 c #d75e26",
"Q8 c #b8673b",
"R8 c #134a85",
"S8 c #124a85",
"T8 c #10619d",
"U8 c #427e90",
"V8 c #ebc12b",
"W8 c #f1bb1e",
"X8 c #efb61c",
"Y8 c #eeaa1f",
"Z8 c #dd9b28",
"a8 c #415b6e",
"b8 c #535367",
"c8 c #d45626",
"d8 c #d65926",
"e8 c #da6325",
"f8 c #df6925",
"g8 c #e17024",
"h8 c #43556d",
"i8 c #124a84",
"j8 c #114f89",
"k8 c #43727f",
"l8 c #e6c034",
"m8 c #f2bf25",
"n8 c #f0b91d",
"o8 c #dfa826",
"p8 c #797654",
"q8 c #275279",
"r8 c #9e6148",
"s8 c #dd6626",
"t8 c #e37124",
"u8 c #e67425",
"v8 c #de742b",
"w8 c #114983",
"x8 c #375e77",
"y8 c #c8b044",
"z8 c #dbb633",
"09 c #ad9a40",
"19 c #7e7f51",
"29 c #23507b",
"39 c #d77430",
"49 c #e97b24",
"59 c #eb7f23",
"69 c #836355",
"79 c #114883",
"89 c #114882",
"99 c #104882",
":9 c #104782",
";9 c #7c675c",
"A9 c #ee8523",
"B9 c #d77a2e",
"C9 c #104781",
"D9 c #0f4781",
"E9 c #1a4b7f",
"F9 c #f08824",
"G9 c #585865",
"H9 c #0f4681",
"I9 c #73635e",
"J9 c #0f4680",
"K9 c #0e4680",
"L9 c #0e457f",
"M9 c #0d457f",
"N9 c #0d447f",
"O9 c #0d447e",
"P9 c #0c447e",
"Q9 c #0c437e",
"R9 c #0c437d",
"S9 c #ffffff",
"T9 c #000000",
"T9T9T9T9T9T9T9T9T9T9T9T9T9T9T9T9T9T9T9T9T9T9T9T9T9T9T9T9T9T9T9T9T9T9T9T9T9T9T9T9T9T9T9T9T9T9T9S9",
"T9R9R9R9R9R9R9R9R9R9R9R9R9R9R9R9R9R9R9R9R9R9R9R9R9R9R9R9R9Q9P9P9P9O9O9O9O9O9O9O9O9O9O9O9O9O9O9S9",
"T9O9O9O9O9O9O9O9O9O9O9O9O9N9N9N9N9N9N9N9N9N9N9N9N9N9N9N9N9N9N9N9N9N9N9N9N9N9N9N9N9N9N9N9N9N9N9S9",
"T9N9M9M9M9M9M9M9M9M9M9M9M9M9M9M9M9M9M9L9L9L9L9L9L9L9L9L9L9L9L9L9L9L9L9L9L9L9L9L9L9L9L9L9L9L9L9S9",
"T9K9K9K9K9K9K9K9K9K9K9K9J9J9J9I9J9J9J9J9J9J9J9J9J9J9J9J9J9J9J9J9J9J9J9J9J9J9J9J9J9J9J9J9J9J9J9S9",
"T9H9H9H9H9H9H9H9H9H9H9H9H9H9G9F9E9H9H9H9H9H9H9H9H9H9H9H9H9H9H9H9H9H9H9H9H9H9H9H9H9H9H9H9H9H9D9S9",
"T9C9C9C9C9C9C9C9C9C9C9C9C9C9B9A9;9C9C9:9:9:9:9:9:9:9:9:9:9:9:9:9999999999999999999999999999999S9",
"T989897979797979797979797969594939797979797979797979797979797979291909z8y8x8797979797979797979S9",
"T9797979w8w8w8w8w8w8w8w8w8v8u8t8s8r8w8w8w8w8w8w8w8w8w8w8w8w8q8p8o8n8m8l8k8j8w8w8w8w8w8w8w8w8w8S9",
"T9i8i8i8i8i8i8i8i8i8i8i8h8g8f8e8d8c8b8i8i8i8i8i8i8i8i8i8i8a8Z8Y8X8W8V8U8T8S8i8i8i8S8S8S8S8S8S8S9",
"T9R8R8R8R8R8R8R8R8R8R8R8Q8e8P8O8N8M8L8K8R8J8I8H8G8F8E8R8D8C8B8A8X8;8:89888R8R8R8R8R8R8R8R8R8R8S9",
"T9787878787878787888888868584838281808z7y7x7w7v7u7t7s7r7q7p7o7n7m7l7k7j7i7i7i7i7i7i7i7h7h7h7h7S9",
"T9g7g7g7g7g7g7g7g7g7g7g7f7e7d7c7b7a7Z7Y7X7W7V7U7T7S7R7Q7P7O7N7M7m7L7K7g7J7J7J7J7J7J7J7J7J7J7J7S9",
"T9I7I7I7I7I7I7H7H7H7H7H7G7F7E7D7C7B7A7;7W7:79787776757473727o7M71707z6y6y6y6y6y6y6y6y6y6y6y6y6S9",
"T9x6x6x6x6x6x6x6x6x6x6w6v6u6t6s6r6q6p6o6n6m6l6k6j6i6h6g6f6e6d6c6b6a6Z6Z6Z6Z6Z6Z6Z6Z6Z6Z6Z6Z6Z6S9",
"T9Y6Y6Y6Y6Y6Y6Y6Y6Y6X6X6W6V6U6T6S6Z7R6Q6P6O6N6k6M6L6K6Q7J6O7I6H6G6F6E6D6D6D6D6D6D6D6D6D6D6D6D6S9",
"T9C6C6C6C6C6C6C6C6B6B6B6A6;6B7:6968676665646N6362616h606z5y5x5w5v5u5t5s5r5q5p5o5n5n5n5n5n5n5n5S9",
"T9m5l5l5l5l5l5l5k5k5k5j5i5X7:6h5g576f5e556d5c5b5a5Z5Y5X5W5V5U5T5S5R5Q5P5O5N5M5L5K5J5I5k5k5k5k5S9",
"T9H5H5H5H5H5H5G5G5F5E5D5C5B5A5A5;5:5958575655545a535251505z4y4x4w4v4u4t4s4r4q4p4o4n4m4l4l4l4l4S9",
"T9k4k4k4k4k4j4j4j4j4i4h4A7g5g4f4e4d4c4b4a4Z4Y445X4W4V4U4g6f6e6d6T4S4R4Q4P4O4N4M4a7L4K4J4J4J4J4S9",
"T9I4I4I4H4H4H4H4H4H4G4F4h5E4D4C4f4;5B4A4;4:49445847464h606z5544434241404z3y3x3w3v3u3t3H4H4H4H4S9",
"T9s3s3r3r3r3r3r3r3q3p395o3n3m3l3e4d4k3j3i3h3g3f3e3a5Z5Y5d3c3z4y4b3a3Z3Y3X3W3V3U3T3S3R3Q3Q3Q3Q3S9",
"T9P3O3O3O3O3O3N3N3M3L3:6K3J3I3H3G3:5B4b4F3h3g3E3D3X4C3B3U4g6J6O7A3;3:393837363534333N3N3N323N3S9",
"T91313131313131303z2A7e4y2x2w2v2u2t2s2r2q2p2o294458474L6h606W5V5U5n2m2l2k2j2i2h2g2f2f2f2f2e2e2S9",
"T9d2d2d2d2d2d2d2c2b2:6C4a2Z2Y2I3X2W2k3V2U2T2S2g3f3D3a53525R2Q2f6P2O2N2M2L2K2J2I2H2H2H2G2G2G2G2S9",
"T9F2F2F2F2F2F2F2E2D2C2v2B2A2;2:2I39282726252h3o2E345X44264h606W5V532221202z1z1z1z1z1z1z1z1z1z1S9",
"T9y1y1y1y1y1y1y1x1j3w1v1u1t1s1r1q1p182o1n1q2D5S2m1f3e3a53525R2Q2f6O7l1k1j1j1j1j1i1i1h1h1h1h1h1S9",
"T9g1g1g1g1g1g1f1e1d1C4r1c1b1a1Z1Y1X182W1V162T2h3g3E345X44264h6X5c3z4U1T1T1T1T1T1T1T1T1T1T1T1T1S9",
"T9S1S1S1R1R1R1Q1P1O1l3N1M1L1K1c1J1I1I1W1H1G1F1E1D1C1B1A1;1:1B39181z571616161515151515151515151S9",
"T941414141414131211101z0y0x0w0v0u0t0s0r0q0p0o0n0m0l0k0j0i0h0g0f0e0d0c0b0a0Z0Y0Y0Y0Y0Y0Y0Y0Y0Y0S9",
"T9Y0Y0Y0Y0Y0X0W0V0U0T0S0R0Q0T9T9T9T9T9T9T9T9T9T9T9T9T9T9T9T9T9T9P0O0N0M0L0i0K0J0I0H0Y0Y0Y0Y0Y0S9",
"T9Y0Y0G0F0E0D0R0T9T9T9T9T9T9T9T9T9T9T9T9T9T9T9T9T9T9T9T9T9T9T9T9T9T9C0T9T9T9T9B0A0;0:0908070Y0S9",
"T960504030T9T9T9T9T9T9T9T9T9T9T9T9T9T9T9T9T9T9T9T9T9T9T9T9T9T9T9T9T9T9T9T9T9T9T9T9T9T9T9201000S9",
"T9T9T9T9T9T9T9T9T9T9T9T9T9T9T9T9T9T9T9T9T9T9T9T9T9T9T9T9T9T9T9T9T9T9T9T9T9T9T9T9T9T9T9T9T9T9T9S9",
"T9T9T9T9T9T9T9T9T9T9T9T9T9T9T9T9T9T9T9T9T9T9T9T9T9T9T9T9T9T9T9T9T9T9T9T9T9T9T9T9T9T9T9T9T9T9T9S9",
"T9T9T9T9T9T9T9T9T9T9T9T9T9T9T9T9T9T9T9T9T9T9T9T9T9T9T9T9T9T9T9T9T9T9T9T9T9T9T9T9T9T9T9T9T9T9T9S9",
"T9T9T9T9T9T9T9T9T9T9T9T9T9T9T9T9T9T9T9T9T9T9T9T9T9T9T9T9T9T9T9T9T9T9T9T9T9T9T9T9T9T9T9T9T9T9T9S9",
"T9T9T9T9T9T9T9T9T9T9T9T9T9T9T9T9T9T9T9T9T9T9T9T9T9T9T9T9T9T9T9T9T9T9T9T9T9T9T9T9T9T9T9T9T9T9T9S9",
"T9T9T9T9T9T9T9T9T9T9T9T9T9T9T9T9T9T9T9T9T9T9T9T9T9T9T9T9T9T9T9T9T9T9T9T9T9T9T9T9T9T9T9T9T9T9T9S9",
"T9T9T9T9T9T9T9T9T9T9T9T9T9T9T9T9T9T9T9T9T9T9T9T9T9T9T9T9T9T9T9T9T9T9T9T9T9T9T9T9T9T9T9T9T9T9T9S9",
"T9T9T9T9T9T9T9T9T9T9T9T9T9T9T9T9T9T9T9T9T9T9T9T9T9T9T9T9T9T9T9T9T9T9T9T9T9T9T9T9T9T9T9T9T9T9T9S9",
"T9T9T9T9T9T9T9T9T9T9T9T9T9T9T9T9T9T9T9T9T9T9T9T9T9T9T9T9T9T9T9T9T9T9T9T9T9T9T9T9T9T9T9T9T9T9T9S9",
"T9T9T9T9T9T9T9T9T9T9T9T9T9T9T9T9T9T9T9T9T9T9T9T9T9T9T9T9T9T9T9T9T9T9T9T9T9T9T9T9T9T9T9T9T9T9T9S9",
"T9T9T9T9T9T9T9T9T9T9T9T9T9T9T9T9T9T9T9T9T9T9T9T9T9T9T9T9T9T9T9T9T9T9T9T9T9T9T9T9T9T9T9T9T9T9T9S9",
"T9T9T9T9T9T9T9T9T9T9T9T9T9T9T9T9T9T9T9T9T9T9T9T9T9T9T9T9T9T9T9T9T9T9T9T9T9T9T9T9T9T9T9T9T9T9T9S9",
"T9T9T9T9T9T9T9T9T9T9T9T9T9T9T9T9T9T9T9T9T9T9T9T9T9T9T9T9T9T9T9T9T9T9T9T9T9T9T9T9T9T9T9T9T9T9T9S9",
"T9T9T9T9T9T9T9T9T9T9T9T9T9T9T9T9T9T9T9T9T9T9T9T9T9T9T9T9T9T9T9T9T9T9T9T9T9T9T9T9T9T9T9T9T9T9T9S9",
"S9S9S9S9S9S9S9S9S9S9S9S9S9S9S9S9S9S9S9S9S9S9S9S9S9S9S9S9S9S9S9S9S9S9S9S9S9S9S9S9S9S9S9S9S9S9S9S9"};
