/* XPM */
static char *MPDCon_GNUstep[] = {
/* columns rows colors chars-per-pixel */
"48 48 4 1 ",
"  c None",
". c black",
"X c #4E4E4E",
"o c #ABD6ED",
/* pixels */
"                                                ",
"                                                ",
"                                                ",
"                                                ",
"                                                ",
"                                                ",
"                                                ",
"                                         .      ",
"                    ......               .      ",
"     ...        ............          .   .     ",
"    ..         ......ooooo....    .   .   .     ",
"    .   ..    ...ooooooooooo...   .    .   .    ",
"   .    .    ...ooooooooooooo...  .    .   .    ",
"  .    ..    ..ooo.........ooo..  .    .    .   ",
" ..    .     ..o...XX.XX.X...o..   .    .   .   ",
" .     .     ..o.X.XX.XX.X.X.o..   .    .   .   ",
" .     .     ..o.X.XX.XX.X.X.o..   .    .   ..  ",
" .    .      ..o.X.XX.XX.X.X.o..   .    .    .  ",
"..    .      ..o.X.XX.XX.X.X.o..   .    .    .  ",
".     .      ..o.X.XX.XX.X.X.o..   .    .    .  ",
".     .      ..o.X.XX.XX.X.X.o..   .    .    .  ",
".     .      ..o.X.XX.XX.X.X.o..   .    .    .  ",
".     .      ..o.X.XX.XX.X.X.o..  ..    .    .  ",
" .    ..     ..o.X.XX.XX.X.X.o..  .     .    .  ",
" .     .     ..o.X.XX.XX.X.X.o..  .    .     .  ",
" .     .     ..o.............o..  .    .     .  ",
" ..    .     ..ooooooooooooooo..  .    .     .  ",
"  .    ..    ..ooooooooooooooo..  .   .     ..  ",
"  .     .    ..ooooooooooooooo..  .   .     .   ",
"  ..    .    ..oo..oo..oo..ooo.. ..  ..    ..   ",
"   .    ..   ..oo..oo..oo..ooo.. .   .    ..    ",
"   ..    .   ..ooooooooooooooo..         ..     ",
"    .        ..ooooooooooooooo..         .      ",
"             ...................        .       ",
"             ...................                ",
"                                                ",
"                                                ",
"                                                ",
"                                                ",
"                                                ",
"                                                ",
"                                                ",
"                                                ",
"                                                ",
"                                                ",
"                                                ",
"                                                ",
"                                                "
};
