/* XPM */
static char *image[] = {
"48 48 224 2",
"   c None",
"00 c #141414",
"10 c #0d0d0d",
"20 c #080808",
"30 c #2b2b2b",
"40 c #2e2e2e",
"50 c #313131",
"60 c #262626",
"70 c #3f3f3f",
"80 c #484848",
"90 c #4d4d4d",
":0 c #6a6a6a",
";0 c #565656",
"A0 c #555555",
"B0 c #5d5d5d",
"C0 c #464646",
"D0 c #5e5e5e",
"E0 c #575757",
"F0 c #373737",
"G0 c #737373",
"H0 c #0f0f0f",
"I0 c #656565",
"J0 c #535353",
"K0 c #212121",
"L0 c #434343",
"M0 c #707070",
"N0 c #070707",
"O0 c #202020",
"P0 c #232323",
"Q0 c #7e7e7e",
"R0 c #999999",
"S0 c #2d2d2d",
"T0 c #515151",
"U0 c #818181",
"V0 c #222222",
"W0 c #636363",
"X0 c #111111",
"Y0 c #242424",
"Z0 c #5c5c5c",
"a0 c #7c7c7c",
"b0 c #686868",
"c0 c #cdcdcd",
"d0 c #272727",
"e0 c #2a2a2a",
"f0 c #444444",
"g0 c #717171",
"h0 c #d7d7d7",
"i0 c #292929",
"j0 c #525252",
"k0 c #6e6e6e",
"l0 c #151515",
"m0 c #333333",
"n0 c #5a5a5a",
"o0 c #878787",
"p0 c #dedede",
"q0 c #e2e2e2",
"r0 c #161616",
"s0 c #2f2f2f",
"t0 c #808080",
"u0 c #868686",
"v0 c #171717",
"w0 c #323232",
"x0 c #d0d0d0",
"y0 c #e9e9e9",
"z0 c #191919",
"01 c #353535",
"11 c #404040",
"21 c #6b6b6b",
"31 c #848484",
"41 c #939393",
"51 c #1a1a1a",
"61 c #383838",
"71 c #646464",
"81 c #838383",
"91 c #8b8b8b",
":1 c #ebebeb",
";1 c #9c9c9c",
"A1 c #a0a0a0",
"B1 c #c8c8c8",
"C1 c #414141",
"D1 c #7f7f7f",
"E1 c #8d8d8d",
"F1 c #909090",
"G1 c #b7b0b0",
"H1 c #787878",
"I1 c #494949",
"J1 c #585858",
"K1 c #8e8e8e",
"L1 c #929292",
"M1 c #a9a9a9",
"N1 c #3c3c3c",
"O1 c #252525",
"P1 c #595959",
"Q1 c #8f8f8f",
"R1 c #ff3b2f",
"S1 c #a10702",
"T1 c #dbdbdb",
"U1 c #545454",
"V1 c #5b5b5b",
"W1 c #959595",
"X1 c #540200",
"Y1 c #c0b9b9",
"Z1 c #cbcbcb",
"a1 c #e6e6e6",
"b1 c #424242",
"c1 c #5f5f5f",
"d1 c #6d6d6d",
"e1 c #858585",
"f1 c #9a9a9a",
"g1 c #9d9d9d",
"h1 c #a5a5a5",
"i1 c #adadad",
"j1 c #b3b3b3",
"k1 c #181818",
"l1 c #626262",
"m1 c #6c6c6c",
"n1 c #c4c4c4",
"o1 c #4f4f4f",
"p1 c #6f6f6f",
"q1 c #797979",
"r1 c #8c8c8c",
"s1 c #9b9b9b",
"t1 c #a3a3a3",
"u1 c #3d3d3d",
"v1 c #1c1c1c",
"w1 c #777777",
"x1 c #7d7d7d",
"y1 c #888888",
"z1 c #979797",
"02 c #a2a2a2",
"12 c #a6a6a6",
"22 c #a8a8a8",
"32 c #c9c9c9",
"42 c #1f1f1f",
"52 c #828282",
"62 c #8a8a8a",
"72 c #969696",
"82 c #a1a1a1",
"92 c #b5b5b5",
":2 c #454545",
";2 c #919191",
"A2 c #989898",
"B2 c #9f9f9f",
"C2 c #a7a7a7",
"D2 c #acacac",
"E2 c #aeaeae",
"F2 c #cfcfcf",
"G2 c #e1e1e1",
"H2 c #efefef",
"I2 c #4b4b4b",
"J2 c #9e9e9e",
"K2 c #a4a4a4",
"L2 c #aaaaaa",
"M2 c #afafaf",
"N2 c #b1b1b1",
"O2 c #b2b2b2",
"P2 c #b6b6b6",
"Q2 c #bcb5b5",
"R2 c #c7c7c7",
"S2 c #f3f3f3",
"T2 c #3e3e3e",
"U2 c #282828",
"V2 c #ababab",
"W2 c #b0b0b0",
"X2 c #b4b4b4",
"Y2 c #b8b8b8",
"Z2 c #b9b9b9",
"a2 c #bbbbbb",
"b2 c #bdbdbd",
"c2 c #bebebe",
"d2 c #bfbfbf",
"e2 c #c6c6c6",
"f2 c #ededed",
"g2 c #f7f7f7",
"h2 c #bababa",
"i2 c #2c2c2c",
"j2 c #898989",
"k2 c #bcbcbc",
"l2 c #c2c2c2",
"m2 c #c0c0c0",
"n2 c #c1c1c1",
"o2 c #c3c3c3",
"p2 c #c5c5c5",
"q2 c #cccccc",
"r2 c #dddddd",
"s2 c #e8e8e8",
"t2 c #f1f1f1",
"u2 c #f5f5f5",
"v2 c #f8f8f8",
"w2 c #303030",
"x2 c #949494",
"y2 c #cacaca",
"z2 c #cecece",
"03 c #d1d1d1",
"13 c #d4d4d4",
"23 c #d5d5d5",
"33 c #d2d2d2",
"43 c #d3d3d3",
"53 c #dadada",
"63 c #e5e5e5",
"73 c #ececec",
"83 c #f4f4f4",
"93 c #f6f6f6",
":3 c #7b7b7b",
";3 c #343434",
"A3 c #696969",
"B3 c #d9d9d9",
"C3 c #dcdcdc",
"D3 c #e0e0e0",
"E3 c #e3e3e3",
"F3 c #e4e4e4",
"G3 c #e7e7e7",
"H3 c #eaeaea",
"I3 c #eeeeee",
"J3 c #f0f0f0",
"K3 c #f2f2f2",
"L3 c #b7b7b7",
"M3 c #7a7a7a",
"N3 c #727272",
"O3 c #747474",
"P3 c #757575",
"Q3 c #767676",
"R3 c #3b3b3b",
"S3 c #000000",
"                                                                                                ",
"                                                                                                ",
"                                                                                                ",
"                            S3                                                                  ",
"                                    S3S3S3R3Q3P3O3N3S3S3S3      S3                              ",
"                                S3M3L3K3J3I3H3G3F3E3D3C3B3A3;3S3                                ",
"                            S3:39383J37363D353433323231303z2y2x2w2S3                            ",
"              S3        S3:3v2u2t2s2r223q2p2o2n2m2n2l2o2o2o2o2m2k2j2i2        S3                ",
"                S3    S3h2g2u2f2r2z2e2o2n2d2c2c2b2a2h2Z2Y2L3L3Y2X2W2V2U2                        ",
"                    T2h2g2S2G323R2l2n2m2m2d2c2k2a2Q2Z2L3P2X2O2N2M2L2K2J2I2S3                    ",
"                  S3v293H2G2F2p2l2n2n2m2d2c2b2a2h2Y2L3P2X2O2W2E2D2C2B2A2;2:2                    ",
"                S3h2g2f253y2o2l2n2n2m2d2c2b2a2h2Z2L392X2O2W2E2D2L2C28272625242                  ",
"              S3h2g2S2D332o2l2n2n2m2d2c2k2a2h2Z2L392X2O2W2E2D2L2221202z1y1x1w1v1                ",
"              u19383s2z2o2l2l2n2m2d2c2b2a2h2Y2L392X2O2W2E2D2L2C212t182s1r1q1p1o1S3              ",
"            S3h2937343n1l2n2n2m2d2c2b2a2h2Z2L392X2O2W2E2D2L22212K282J2s1;2x1m1l1k1      S3      ",
"    S3      u193t2C3d2c2c2b2a2d2c2k2a2h2Z2L392j1N2W2i1D2L222h1t182J2g1f1x2e1d1c1b1S3            ",
"            M3S2a1Z1d2Y1X1X1Q2c2k2a2h2Y2L392X2O2W2E2D2L222h1t182B2g1s1A2W1r1N3V1U1S3            ",
"          S383I3T1p2c2X1S1S1R1k2a2h2Y2L392j1O2W2E2D2L2C2h1t182B2g1f1A272x2Q1q1P1o1O1            ",
"          N1K3f223l2b2X1S1S1R1a2h2Y2L392j1O2M2i1V2M122h1t182B2g1f1A272x2L1K1:3J1I1;3S3          ",
"          H1H2G3F2m2a2Q2R1R1G1h2Y2L392j1O2M2i1D2L2C2h1t182B2g1f1A272x2L1F1E1D1V1:2C1S3          ",
"          w1f2G2B1d2c2c2k2a2h2Z2L392j1O2M2E2D2L2C2h1t1A1B2;1f1A272x2L1;2K1r152c1b1u1S3          ",
"        S3f2:1C3n1c2c2k2a2h2Y2L392j1N2M2i1D2M1C2h1t182J2;1f1A272x2L1F1Q1E1918171C16151          ",
"        S3:1s213n2b2k2a2h2Y2L392j1N2M2i1D2M1C2h1t182B2g1f1A272x241F1K1E191j231211101z0          ",
"        S3y063x0d2k2a2h2Y2P292j1N2M2i1V2M1C2h1t1A1J2g1f1A272x2L1F1Q1E191j2y13121u1w0v0          ",
"        S363G243b2a2h2Y2P292j1N2M2i1V2M1C2h1t1A1J2;1f1A272x2L1F1K1E19162y1u0t0l161s0r0          ",
"        S3q0p023d2Z2Y2L392j1N2M2i1V2M1C2h1t1A1J2;1f1A272x2L1F1Q1E19162y1o0u0t0n0m0i2l0          ",
"          k0T103d2Y2L392j1N2M2i1V2M1C2K2t1A1J2;1f1A272x2L1F1K1E19162j2o0u031:3j0s0i0S3          ",
"          m1h0F2m2L392j1N2M2i1V2M1C2h1t1A1J2;1f1A272x2L1F1K1E19162y1o0u03152g0f0e0d0S3          ",
"          0143c0n2P2j1N2M2i1V2M1C2K202A1J2;1f1A272x2L1F1K1E19162y1o0u0e181t0b0R3d0v1S3          ",
"          S3c0B1d2X2N2M2i1V2M1C2K202A1J2;1f1A272x2L1F1K1E19162y1o0e1e18152a0Z0s0Y0X0            ",
"            W0n1k2X2M2i1V2M112K2t1A1J2;1f1z1W141;2F1K1r19162y1o0u0e13152t0d1f0d0V0S3            ",
"            w2d2Z2O2D2L22212h102A1J2;1f1z172x2L1F1K1r19162y1o0u0318152U0H1T0S0V0z0S3            ",
"        S3  S3r1X2E2M1C2C2h1t1A1J2;1R0z1W141L1F1K1E191j2y1o0e1318152U0Q0l101P0O0N0    S3        ",
"              i2E222t102t102A1g1;1R0z17241L1F1K1r19162y1u0e1e18152U0t0M0L0O1K0v0S3              ",
"              S3Q002s1R0;1J2g1s1f1z1W141;2Q1K1r191j2y1o0e1e18152U0t0w1T0e0K042N0                ",
"                S3O372Q1Q1x2A2R0z1W141;2F1K1E191j2y1o0e1318152U0D1g0J0w2K042N0                  ",
"                  S3F1y18152y1L1x241;2Q1E1r191j2y1o0u0318152U0:3I0f0i0O042H0                    ",
"                    V0c1M3P3N3M3u0E1K1E1r162j2y1u0e1318152Q0G0P1F0O1O042H0S3                    ",
"                S3    S3E0k0b071b0N3:3U0e1e1e1e131t0x1Q3d1D0C0S0V0O042N0                        ",
"              S3        S3;3l1B0E0A0;0V1l171:0N3m1D0A0I1N1s0Y0V0O0v0N0        S3                ",
"                            S3i2j09080f0b11111f07001s0e060Y0V0k1N0S3                            ",
"                                S3O1m070N1F001504030U260Y0X020S3                                ",
"                                    S3S3S310z0v0l000S3S3S3                                      ",
"                                                                                                ",
"                                                                                                ",
"                                                                                                ",
"                                                                                                ",
"                                                                                                "};
