/* XPM */
static char *image[] = {
"48 48 517 2",
"   c None",
"00 c #1383b3",
"10 c #1382b3",
"20 c #1382b2",
"30 c #1380b1",
"40 c #137eaf",
"50 c #137fb0",
"60 c #137eae",
"70 c #137cad",
"80 c #137aab",
"90 c #1379ab",
":0 c #1374a6",
";0 c #1374a5",
"A0 c #136fa1",
"B0 c #146b9c",
"C0 c #146b9d",
"D0 c #136698",
"E0 c #136597",
"F0 c #146698",
"G0 c #136193",
"H0 c #095a8f",
"I0 c #0e5d91",
"J0 c #105f92",
"K0 c #0a5b8f",
"L0 c #07598e",
"M0 c #0f5e91",
"N0 c #146294",
"O0 c #155e90",
"P0 c #0d598d",
"Q0 c #0e5a8d",
"R0 c #548aaf",
"S0 c #a1bfd3",
"T0 c #c9dbe7",
"U0 c #d1e0ea",
"V0 c #b8cfde",
"W0 c #7ca5c2",
"X0 c #296c9a",
"Y0 c #08558a",
"Z0 c #145d90",
"a0 c #145e90",
"b0 c #155a8c",
"c0 c #0c5388",
"d0 c #256694",
"e0 c #b8cedd",
"f0 c #edf2f6",
"g0 c #e3ebf1",
"h0 c #eef3f7",
"i0 c #6593b4",
"j0 c #075085",
"k0 c #13598c",
"l0 c #14598c",
"m0 c #0f5285",
"n0 c #1d5b8c",
"o0 c #d0dde8",
"p0 c #adc4d5",
"q0 c #38709a",
"r0 c #115286",
"s0 c #0e5185",
"t0 c #1c5b8c",
"u0 c #6790b1",
"v0 c #ebf0f5",
"w0 c #6d96b5",
"x0 c #074c81",
"y0 c #145588",
"z0 c #09497e",
"01 c #a3bbcf",
"11 c #91adc5",
"21 c #004078",
"31 c #3c6f99",
"41 c #9db7cd",
"51 c #b4c8d8",
"61 c #94b0c8",
"71 c #366b96",
"81 c #326893",
"91 c #dbe4eb",
":1 c #f5f7f9",
";1 c #326894",
"A1 c #0d4c80",
"B1 c #145184",
"C1 c #0d487c",
"D1 c #386994",
"E1 c #fefefe",
"F1 c #c7d4e1",
"G1 c #013e75",
"H1 c #658bac",
"I1 c #bccddb",
"J1 c #b5c7d7",
"K1 c #95afc6",
"L1 c #003d75",
"M1 c #134c80",
"N1 c #144d80",
"O1 c #063f75",
"P1 c #7393b1",
"Q1 c #6387a9",
"R1 c #174c7e",
"S1 c #ecf1f5",
"T1 c #ffffff",
"U1 c #e6ebf1",
"V1 c #426d96",
"W1 c #0b4377",
"X1 c #084075",
"Y1 c #11477b",
"Z1 c #144a7c",
"a1 c #00356c",
"b1 c #89a2bb",
"c1 c #36608c",
"d1 c #50769b",
"e1 c #fbfcfd",
"f1 c #becbda",
"g1 c #5c7fa2",
"h1 c #1a4a7c",
"i1 c #053a70",
"j1 c #0e4175",
"k1 c #144679",
"l1 c #144275",
"m1 c #134174",
"n1 c #05366c",
"o1 c #2f5886",
"p1 c #cbd6e1",
"q1 c #375f8a",
"r1 c #507298",
"s1 c #f8f9fb",
"t1 c #d6dee7",
"u1 c #859eb8",
"v1 c #2e5785",
"w1 c #08386e",
"x1 c #09396e",
"y1 c #0e3a6e",
"z1 c #0a376c",
"02 c #6583a4",
"12 c #e1e7ed",
"22 c #6683a3",
"32 c #154072",
"42 c #e2e8ee",
"52 c #f3f5f8",
"62 c #e6ebef",
"72 c #a3b5c8",
"82 c #517197",
"92 c #143f72",
":2 c #143c6e",
";2 c #073167",
"A2 c #1e4475",
"B2 c #9fafc4",
"C2 c #c3cdda",
"D2 c #052e65",
"E2 c #617b9e",
"F2 c #eaeef2",
"G2 c #eef1f5",
"H2 c #edf0f4",
"I2 c #f1f4f6",
"J2 c #c3ceda",
"K2 c #14386b",
"L2 c #14396c",
"M2 c #113669",
"N2 c #062c62",
"O2 c #4c698f",
"P2 c #cbd2de",
"Q2 c #94a4bc",
"R2 c #042a61",
"S2 c #375782",
"T2 c #9eadc3",
"U2 c #dadfe8",
"V2 c #e7ebf0",
"W2 c #e8ebf0",
"X2 c #f2f4f7",
"Y2 c #143669",
"Z2 c #133568",
"a2 c #123467",
"b2 c #092d62",
"c2 c #113367",
"d2 c #8194ae",
"e2 c #acb8ca",
"f2 c #446088",
"g2 c #15376a",
"h2 c #36537f",
"i2 c #a3b0c4",
"j2 c #e2e6ec",
"k2 c #e1e5ec",
"l2 c #e2e7ed",
"m2 c #eff2f5",
"n2 c #143466",
"o2 c #133365",
"p2 c #0b2c60",
"q2 c #07285d",
"r2 c #0d2d61",
"s2 c #133265",
"t2 c #3b557f",
"u2 c #b0bbcc",
"v2 c #dadfe7",
"w2 c #d0d6e1",
"x2 c #cbd3de",
"y2 c #d7dce6",
"z2 c #bac4d2",
"03 c #a4b0c3",
"13 c #d9dde6",
"23 c #d9dee6",
"33 c #dbe0e8",
"43 c #dce1e8",
"53 c #e6eaef",
"63 c #a0adc1",
"73 c #143163",
"83 c #153164",
"93 c #0d2b5f",
":3 c #0c2a5e",
";3 c #415882",
"A3 c #8494ae",
"B3 c #a8b3c6",
"C3 c #b8c2d1",
"D3 c #d0d6e0",
"E3 c #d5dae3",
"F3 c #cfd5df",
"G3 c #acb6c7",
"H3 c #93a0b7",
"I3 c #5f7395",
"J3 c #193667",
"K3 c #07265b",
"L3 c #3c547e",
"M3 c #8796af",
"N3 c #c3cad7",
"O3 c #d3d8e2",
"P3 c #d4d9e2",
"Q3 c #d6dbe3",
"R3 c #dce0e8",
"S3 c #b3bdcd",
"T3 c #142d60",
"U3 c #142e60",
"V3 c #082358",
"W3 c #273f6c",
"X3 c #95a1b8",
"Y3 c #ced3de",
"Z3 c #ccd2dc",
"a3 c #5a6c90",
"b3 c #001d53",
"c3 c #072357",
"d3 c #112b5e",
"e3 c #132d5f",
"f3 c #0b265a",
"g3 c #052156",
"h3 c #1e3767",
"i3 c #687999",
"j3 c #abb4c6",
"k3 c #cbd1dc",
"l3 c #cdd3dd",
"m3 c #cfd4de",
"n3 c #d4d8e2",
"o3 c #bac1d0",
"p3 c #142b5c",
"q3 c #071f53",
"r3 c #3e5179",
"s3 c #b5bccc",
"t3 c #c6cbd7",
"u3 c #c6cbd8",
"v3 c #c4cad6",
"w3 c #c7ccd8",
"x3 c #c7cdd9",
"y3 c #919bb2",
"z3 c #061f53",
"04 c #12295b",
"14 c #132a5b",
"24 c #132a5c",
"34 c #0f2659",
"44 c #051d52",
"54 c #10285a",
"64 c #43557d",
"74 c #8b96ae",
"84 c #bbc2d0",
"94 c #c3c9d5",
":4 c #c5cad7",
";4 c #cacfdb",
"A4 c #bac0cf",
"B4 c #0b2153",
"C4 c #273a67",
"D4 c #b1b8c8",
"E4 c #bec4d1",
"F4 c #929bb2",
"G4 c #536285",
"H4 c #2e416b",
"I4 c #2d3f6a",
"J4 c #4d5c81",
"K4 c #8b95ad",
"L4 c #bbc1d0",
"M4 c #bdc3d1",
"N4 c #bfc5d2",
"O4 c #bcc2d0",
"P4 c #acb4c5",
"Q4 c #1e3361",
"R4 c #0c2253",
"S4 c #122758",
"T4 c #102657",
"U4 c #081e51",
"V4 c #041a4e",
"W4 c #283b68",
"X4 c #6e7b99",
"Y4 c #a7afc1",
"Z4 c #c1c6d3",
"a4 c #adb4c5",
"b4 c #102454",
"c4 c #0a1e50",
"d4 c #969fb4",
"e4 c #b2b9c8",
"f4 c #aeb5c5",
"g4 c #4b5a7e",
"h4 c #233561",
"i4 c #576587",
"j4 c #596788",
"k4 c #283a65",
"l4 c #000e43",
"m4 c #3c4b73",
"n4 c #abb2c3",
"o4 c #b3bac9",
"p4 c #b7bdcc",
"q4 c #b6bccb",
"r4 c #b5bbca",
"s4 c #48577c",
"t4 c #03184b",
"u4 c #112555",
"v4 c #0b1f51",
"w4 c #02174a",
"x4 c #122555",
"y4 c #4a597e",
"z4 c #7f8aa3",
"05 c #06184a",
"15 c #455479",
"25 c #acb2c3",
"35 c #47567a",
"45 c #011245",
"55 c #7d86a1",
"65 c #abb1c2",
"75 c #aab0c1",
"85 c #828ba4",
"95 c #0a1b4c",
":5 c #36456d",
";5 c #a8afc0",
"A5 c #adb4c4",
"B5 c #aeb4c5",
"C5 c #a9afc1",
"D5 c #7c86a0",
"E5 c #021548",
"F5 c #102252",
"G5 c #102352",
"H5 c #0e2050",
"I5 c #05184a",
"J5 c #071b4c",
"K5 c #021445",
"L5 c #7d869f",
"M5 c #848da5",
"N5 c #00083c",
"O5 c #7a849e",
"P5 c #a5abbd",
"Q5 c #9fa6b9",
"R5 c #8890a8",
"S5 c #00093d",
"T5 c #727c98",
"U5 c #a1a8ba",
"V5 c #a7adbe",
"W5 c #a2a8bb",
"X5 c #969eb2",
"Y5 c #112351",
"Z5 c #0b1c4c",
"a5 c #0f204f",
"b5 c #0e204e",
"c5 c #0c1d4b",
"d5 c #9198ad",
"e5 c #3b496e",
"f5 c #324067",
"g5 c #9da4b6",
"h5 c #99a0b3",
"i5 c #3e4c70",
"j5 c #283760",
"k5 c #9aa1b4",
"l5 c #9ca3b5",
"m5 c #9ba2b5",
"n5 c #98a0b3",
"o5 c #39476d",
"p5 c #021444",
"q5 c #0e1f4d",
"r5 c #0e1f4c",
"s5 c #091a47",
"t5 c #172752",
"u5 c #8f96ab",
"v5 c #9098ac",
"w5 c #0e1f4b",
"x5 c #5f6a88",
"y5 c #929aae",
"z5 c #939baf",
"06 c #8c94a9",
"16 c #051745",
"26 c #9097ac",
"36 c #8e96ab",
"46 c #67718d",
"56 c #00103f",
"66 c #0c1d4a",
"76 c #071845",
"86 c #172751",
"96 c #878fa5",
":6 c #8790a6",
";6 c #091a46",
"A6 c #606b88",
"B6 c #8992a7",
"C6 c #68738d",
"D6 c #021441",
"E6 c #868fa4",
"F6 c #858ea4",
"G6 c #8a92a7",
"H6 c #26355d",
"I6 c #031442",
"J6 c #0b1c48",
"K6 c #071944",
"L6 c #0d1f49",
"M6 c #7e879e",
"N6 c #26355b",
"O6 c #404f6f",
"P6 c #4b5977",
"Q6 c #16264f",
"R6 c #80899f",
"S6 c #1e2e55",
"T6 c #041742",
"U6 c #0a1b46",
"V6 c #081a44",
"W6 c #01103b",
"X6 c #6f7991",
"Y6 c #626d87",
"Z6 c #000b37",
"a6 c #747e95",
"b6 c #757e96",
"c6 c #08133e",
"d6 c #525f7b",
"e6 c #757f96",
"f6 c #051641",
"g6 c #071943",
"h6 c #091a44",
"i6 c #000e38",
"j6 c #495775",
"k6 c #263358",
"l6 c #19264b",
"m6 c #6a768d",
"n6 c #283257",
"o6 c #212e54",
"p6 c #596680",
"q6 c #000c37",
"r6 c #081a43",
"s6 c #081a42",
"t6 c #04173e",
"u6 c #0c1d43",
"v6 c #2f395d",
"w6 c #08173f",
"x6 c #414d6c",
"y6 c #5c6782",
"z6 c #5c6784",
"07 c #445270",
"17 c #152649",
"27 c #2f3c5e",
"37 c #66728b",
"47 c #1a284e",
"57 c #02143d",
"67 c #071941",
"77 c #000e36",
"87 c #344462",
"97 c #4f5a76",
":7 c #1d2b4f",
";7 c #09163d",
"A7 c #16264a",
"B7 c #2f3d5e",
"C7 c #515c79",
"D7 c #3f4d6b",
"E7 c #000c34",
"F7 c #06193f",
"G7 c #000c33",
"H7 c #45536e",
"I7 c #475570",
"J7 c #000e35",
"K7 c #05183d",
"L7 c #06193e",
"M7 c #05193b",
"N7 c #384661",
"O7 c #394561",
"P7 c #05183b",
"Q7 c #06193c",
"R7 c #000d32",
"S7 c #112142",
"T7 c #47546d",
"U7 c #3a4561",
"V7 c #162445",
"W7 c #000c31",
"X7 c #05183a",
"Y7 c #06183b",
"Z7 c #06183a",
"a7 c #021435",
"b7 c #000b2d",
"c7 c #051638",
"d7 c #1e2d4c",
"e7 c #2c3b56",
"f7 c #2a3a55",
"g7 c #1e2e4b",
"h7 c #061637",
"i7 c #000a2d",
"j7 c #031335",
"k7 c #061839",
"l7 c #041736",
"m7 c #001332",
"n7 c #001030",
"o7 c #001232",
"p7 c #041635",
"q7 c #061837",
"r7 c #071836",
"s7 c #081834",
"t7 c #081934",
"u7 c #0b1933",
"v7 c #0a1933",
"w7 c #0c1a32",
"x7 c #0f1b31",
"y7 c #0f1b30",
"z7 c #0e1b31",
"08 c #111c30",
"18 c #141e2f",
"28 c #131e2f",
"38 c #131d2f",
"                                      38382818181818283838                                      ",
"                                08080808080808080808080808080808                                ",
"                          z7y7y7x7x7z7z7z7z7z7z7z7z7z7z7z7z7x7x7y7y7z7                          ",
"                        w7w7w7w7w7w7w7w7w7w7w7w7w7w7w7w7w7w7w7w7w7w7w7w7                        ",
"                    v7u7v7v7v7v7v7v7v7v7v7v7v7v7v7v7v7v7v7v7v7v7v7v7v7v7u7v7                    ",
"                  t7t7s7s7s7s7s7s7s7s7s7s7s7s7s7s7s7s7s7s7s7s7s7s7s7s7s7s7s7t7                  ",
"                r7r7r7r7r7r7r7r7r7r7r7r7r7r7r7r7r7r7r7r7r7r7r7r7r7r7r7r7r7r7r7r7                ",
"              q7q7q7q7q7q7q7q7q7q7q7q7q7q7q7q7q7q7q7q7q7q7p7o7n7n7m7l7q7q7q7q7q7q7              ",
"            k7k7k7k7k7k7k7k7k7k7k7k7k7k7k7k7k7k7k7k7k7j7i7h7g7f7e7d7c7b7a7k7k7k7k7k7            ",
"          Z7Z7Z7Z7Z7Z7Z7Z7Z7Z7Z7Z7Z7Z7Z7Z7Z7Z7Z7Y7X7W7V7U7            T7S7R7Z7Y7Z7Z7Z7          ",
"        Q7Q7Q7Q7Q7Q7Q7Q7Q7Q7Q7Q7Q7Q7Q7Q7Q7Q7Q7Q7P7W7O7                    N7W7M7Q7Q7Q7Q7        ",
"        L7L7L7L7L7L7L7L7L7L7L7L7L7L7L7L7L7L7L7K7J7I7                        H7G7L7L7L7L7        ",
"      F7F7F7F7F7F7F7F7F7F7F7F7F7F7F7F7F7F7F7F7E7D7        C7B7A7;7:797        8777F7F7F7F7      ",
"    67676767676767676767676767676767676767675747      37271707z6y6x6w6v6        u6t667676767    ",
"    s6s6s6s6s6s6s6s6s6s6s6s6s6s6s6s6s6s6s6r6q6p6      o6n6          m6l6k6      j6i6s6s6s6s6    ",
"    h6h6h6h6h6h6h6h6h6h6h6h6h6h6h6h6h6h6h6g6f6e6    d6c6b6            a6Z6Y6    X6W6V6h6h6h6    ",
"  U6U6U6U6U6U6U6U6U6U6U6U6U6U6U6U6U6U6U6U6T6S6R6  R6Q6P6                O6N6    M6L6K6U6U6U6U6  ",
"  J6J6J6J6J6J6J6J6J6J6J6J6J6J6J6J6J6J6J6J6I6H6G6F6E6D6C6  G6B6B6G6G6G6  A6;6:6F6968676J6J6J6J6  ",
"  66666666666666666666666666666666666666665646362636164606z5y5y5y5y5z506x5w5v5u536t5s566666666  ",
"r5r5r5r5r5r5r5r5r5r5r5r5r5r5r5r5r5r5r5q5p5o5n5m5l5k5j5i5h5l5g5g5g5g5l5m5f5e5k5h5d5r5c5r5r5r5r5q5",
"b5a5a5a5a5a5a5a5a5a5a5a5a5a5a5a5a5a5a5Z5Y5X5W5V5V5U5T5S5R5Q5P5V5V5P5Q5O5N5M5U5U5L5K5a5a5a5a5a5a5",
"J5I5H5G5F5F5F5F5F5F5F5F5F5F5F5F5F5F5F5E5D5C5B5B5B5A5;5:59585756565;555453565A5251505F5F5F5F5F5F5",
"z4y4x4w4v4u4u4u4u4u4u4u4u4u4u4u4u4x4t4s4r4q4p4p4p4p4o4n4m4l4k4j4i4h4l4g4f4r4e4d4c4b4u4u4u4u4u4u4",
"a4Z4Y4X4W4V4U4T4S4S4S4S4S4S4S4S4S4R4Q4P4O4N4N4N4N4N4N4M4L4K4J4I4H4G4F4E4M4O4D4C4B4S4S4S4S4S4S4S4",
"A4;4:49484746454443424242424241404z3y394x3x3x3x3x3x3x3x3w3v3v3u3t3v3v3w3v3s3r3q3p324242424242424",
"o3n3m3m3l3k3l3j3i3h3g3f3e3d3c3c3b3a3Z3Y3m3m3m3m3m3m3m3m3m3m3m3l3l3l3Z3l3X3W3V3U3T3T3T3T3T3T3T3T3",
"S3R3Q3Q3Q3Q3Q3P3O3N3M3L3K3J3I3H3G3F3E3Q3Q3Q3Q3Q3Q3Q3Q3Q3Q3Q3E3D3C3B3A3;3:39383737373737373737373",
"63534343434343434333231303z223y2x2w24333434343434343434343v2u2t2s2r2q2p2o2n2n2n2n2n2n2n2n2n2n2n2",
"  m2l2l2l2l2l2l2l2l2l2l2k2j2j2i2h2g2f2e2j2l2l2l2l2l2l2j2k2d2c2b2a2Z2Y2Y2Y2Y2Y2Y2Y2Y2Y2Y2Y2Y2Y2Y2",
"  X2W2W2W2W2W2W2W2W2W2W2W2W2W2V2U2T2S2R2Q2W2W2W2W2W2V2P2O2N2M2L2K2K2K2K2K2K2K2K2K2K2K2K2K2K2K2  ",
"  J2I2H2G2G2G2G2G2G2G2G2G2G2G2G2H2H2F2E2D2C2H2G2G2H2B2A2;2:2:2:2:2:2:2:2:2:2:2:2:2:2:2:2:2:2:2  ",
"  928272625252525252525252525252525252423222X2521202z1y192929292929292929292929292929292929292  ",
"    x1w1v1u1t1s1s1s1s1s1s1s1s1s1s1s1s1s1r1q1s1p1o1n1m1l1l1l1l1l1l1l1l1l1l1l1l1l1l1l1l1l1l1l1l1  ",
"    k1k1j1i1h1g1f1s1e1e1e1e1e1e1e1e1e1e1d1c1e1b1a1k1k1k1k1k1k1k1k1k1k1k1k1k1k1k1k1k1k1k1k1k1    ",
"    Z1Z1Z1Z1Y1X1W1V1U1T1T1T1T1T1T1T1T1S1R1Q1T1P1O1Z1Z1Z1Z1Z1Z1Z1Z1Z1Z1Z1Z1Z1Z1Z1Z1Z1Z1Z1Z1Z1    ",
"      N1N1N1N1N1M1L1K1T1J1I1T1T1T1T1e1H1G1F1E1D1C1N1N1N1N1N1N1N1N1N1N1N1N1N1N1N1N1N1N1N1N1      ",
"      B1B1B1B1B1B1A1;1:1918171615141312111T101z0B1B1B1B1B1B1B1B1B1B1B1B1B1B1B1B1B1B1B1B1B1      ",
"        y0y0y0y0y0y0x0w0T1v0u0t0s0r0q0p0T1o0n0m0y0y0y0y0y0y0y0y0y0y0y0y0y0y0y0y0y0y0y0y0        ",
"          l0l0l0l0l0k0j0i0h0T1E1g0f0T1T1e0d0c0b0l0l0l0l0l0l0l0l0l0l0l0l0l0l0l0l0l0l0l0          ",
"            a0a0a0a0a0Z0Y0X0W0V0U0T0S0R0Q0P0O0a0a0a0a0a0a0a0a0a0a0a0a0a0a0a0a0a0a0a0            ",
"            N0N0N0N0N0N0N0M0L0K0J0I0L0H0G0N0N0N0N0N0N0N0N0N0N0N0N0N0N0N0N0N0N0N0N0N0            ",
"                F0F0F0F0F0F0F0F0E0D0F0F0F0F0F0F0F0F0F0F0F0F0F0F0F0F0F0F0F0F0F0F0                ",
"                  C0B0B0B0B0B0B0B0B0B0B0B0B0B0B0B0B0B0B0B0B0B0B0B0B0B0B0B0B0B0                  ",
"                    A0A0A0A0A0A0A0A0A0A0A0A0A0A0A0A0A0A0A0A0A0A0A0A0A0A0A0A0                    ",
"                      ;0:0:0:0:0:0:0:0:0:0:0:0:0:0:0:0:0:0:0:0:0:0:0:0:0;0                      ",
"                          90808090909090909090909090909090909090808090                          ",
"                              706050504040404040404040404050506070                              ",
"                                      30201000000000102030                                      "};
