/* XPM */
static char *image[] = {
"64 64 2 1",
"0 c #ffffff",
"1 c #000000",
"1111111111111111111111111010101010101011111111111111111111111111",
"1111111111111111111111010101010010010100101111111111111111111111",
"1111111111111111111010010010001010101010101011111111111111111111",
"1111111111111111101001010101010101010010101010111111111111111111",
"1111111111111110101010101001010100101010101010010111111111111111",
"1111111111111101010101001010101010101010101010101111111111111111",
"1111111111111010100100101010100101001010101010110101111111111111",
"1111111111101010010101010101010101010101010101010101111111111111",
"1111111111101001010101010101010101010101010101101101011111111111",
"1111111110101010101010101010101010101010101010101011010111111111",
"1111111110101010101010101010101010101010101101101101111111111111",
"1111111001000100100100100100010010010101010010010010000011111111",
"1111110000000000000000000000000000000000000000000000000000111111",
"1111101000000000000000000000000000000000000000000000000000111111",
"1111100000000000000000000000000000000000000000000000000000011111",
"1111000000000000000000000000000000000000000000000000000100011111",
"1111000000010001000010000000000000000000000000000000000000001111",
"1110101010100100101000000101101101010101010101010101101011010111",
"1110101011011011010000000010110101101101101011011011011101111111",
"1110110101010110110000000101010110110110110101101101110111011111",
"1110101101101101100000000110111010101010101110110110101101110111",
"1101010110110110110000000101010110110111011011011011111111011111",
"1101101010101011010000100000000000000000000000000110101011111011",
"1010110111011101100000000000000000000000000000000101111101101111",
"1101011010110110100000000000000000000000000000000111010111111111",
"1011010111011011100000000000010000000000000000001011111101101011",
"1010111010110110100000000010000000000000000000000110101111111111",
"1011010111011101000000101000001010101010100000001101111010110110",
"1101011010110111000000001111110101101101100000001011101111111111",
"0101101101101101000000010101011110110110100000001110111011011011",
"1110110110111011000000011011101011011011000000001011101111111111",
"0101011011101110000010011101011010110110100000001110111101101101",
"1011101101011010000000010111101111011101000000001111110111111111",
"1101010111110110001000111010111010110111000000101010111101101101",
"0110111010101110000000010111010111101101000000001111101111111111",
"1011010111111010000000111101111101111011000000011010111011010111",
"1101101101011100000000000000000000000000000100001111101111111101",
"1010111011101010000000000000000000000000000000011011111101110111",
"1111010110111100000010000000000000000000000000011110101111011111",
"1010111101101000000000000000000000000000000000010111111011111111",
"1101101011111100000000000000000000000000000000011101101111101101",
"1110111110101000001001010101010100100100000000110111111101111111",
"1101101011110000000011111111101111111110001000011101011111101111",
"1111011101011111110101010101011010101010000000110111110110111111",
"1110110111110110111111111111111111111110000000011110111111111011",
"1111101101011101101010101010101010101010000000111011110111011111",
"1110111111110111111111111111111111111100000010101111011111111111",
"1111100010010100100100100010001000100100001000110101110101011111",
"1111000000000000000000000000000000000000100000000000000010011111",
"1111100000000000000000000000000000000000000000000100101001011111",
"1111110000000000000000001000010000010000000001001001000100111111",
"1111111001000100100100100000000001000010010000010000010010111111",
"1111111000000000000000000001000000000000000101000101001011111111",
"1111111110101010101010101010010101010101010100101010110111111111",
"1111111111111111111111111111111111111111111111111111111111111111",
"1111111111101010101101010101101110110111101111111110111111111111",
"1111111111111111111111111111111011111101111101011011111111111111",
"1111111111111101110110111011011111011111101111111111111111111111",
"1111111111111111011111101111111011110110111111101111111111111111",
"1111111111111111111011111101101111011111111011111111111111111111",
"1111111111111111101110110111111111111101111110111111111111111111",
"1111111111111111111111111111011011011111101111111111111111111111",
"1111111111111111111111011011111111111011111111111111111111111111",
"1111111111111111111111111111011011101111111111111111111111111111"};
