/* XPM */
static char *Terminal_GNUstep[] = {
/* columns rows colors chars-per-pixel */
"48 48 126 2 ",
"   c None",
".  c #010002",
"X  c gray6",
"o  c #0E0D14",
"O  c #0F0F1F",
"+  c #100F13",
"@  c #0F1F1F",
"#  c gray9",
"$  c #161619",
"%  c #18171A",
"&  c #17181B",
"*  c #1D1D1E",
"=  c #23221E",
"-  c #1E1D21",
";  c #232323",
":  c #292726",
">  c #272629",
",  c #2C2B2C",
"<  c #302E2D",
"1  c #30302E",
"2  c #2E2D31",
"3  c #312F30",
"4  c #333333",
"5  c #343539",
"6  c #38373B",
"7  c #3C3C3C",
"8  c #1F1F50",
"9  c #2F2F40",
"0  c #3E3D41",
"q  c #2F2F50",
"w  c #403F43",
"e  c #444445",
"r  c #454846",
"t  c #484846",
"y  c #454649",
"u  c #484749",
"i  c #444849",
"p  c #4A4A4B",
"a  c #4D504D",
"s  c #51514F",
"d  c #4E4E51",
"f  c #514F50",
"g  c #4D5152",
"h  c #545354",
"j  c #57565A",
"k  c #595759",
"l  c #5C5B5D",
"z  c #61615F",
"x  c #5D5C60",
"c  c #507070",
"v  c #636363",
"b  c #676668",
"n  c #686769",
"m  c #6C6C6C",
"M  c #6E6E72",
"N  c #6F7174",
"B  c #727273",
"V  c #737578",
"C  c #787779",
"Z  c #7B7B7C",
"A  c #00FF03",
"S  c #0FFF0F",
"D  c #408960",
"F  c #FFFF04",
"G  c #7E7D81",
"H  c #0F0FFF",
"J  c #FF01FF",
"K  c #FF0FFF",
"L  c #848486",
"P  c #87868A",
"I  c #88878B",
"U  c #8D8C8D",
"Y  c #8F8E92",
"T  c #939395",
"R  c #949499",
"E  c #97999A",
"W  c #9B9A9B",
"Q  c #A0A09E",
"!  c #9D9CA0",
"~  c #A3A3A4",
"^  c #A5A4A8",
"/  c #A8A7AB",
"(  c #ADA9AD",
")  c #AEB1AE",
"_  c #AEAEB1",
"`  c #B0AFB3",
"'  c #AFB1B1",
"]  c #B2B2B5",
"[  c #B6B4B9",
"{  c #B9B7BE",
"}  c #BDBEBE",
"|  c #8DDAAD",
" . c #8DEABD",
".. c #C1C1BF",
"X. c #BEBEC0",
"o. c #C1BFC2",
"O. c #BCC0C0",
"+. c #C3C3C3",
"@. c #C9C9C7",
"#. c #C6C5C9",
"$. c #C8C7C9",
"%. c #CCCBCC",
"&. c #D0D0CE",
"*. c #D0CFD1",
"=. c #D3D3D3",
"-. c #D9D9D6",
";. c #D7D6D8",
":. c #D8D7DC",
">. c #DDDCDD",
",. c #E0E0DE",
"<. c #DEDDE0",
"1. c #E0DFE1",
"2. c #DFE0E3",
"3. c #E2E2E2",
"4. c #E9E9E7",
"5. c #E6E5E8",
"6. c #E8E7EB",
"7. c #ECECED",
"8. c #F1F1EF",
"9. c #EFEEF0",
"0. c #F0EFF1",
"q. c #EFF1F1",
"w. c #F2F1F2",
"e. c #F6F6F8",
"r. c #F8F7FA",
"t. c #FEFDFE",
/* pixels */
"t.r.t.t.t.t.t.r.r.r.r.r.e.w.9.9.6.3.<.>.;.=.%.#.X.{ [ _ / ~ ! R Y Y P L L G Z Z V V B N B B N N ",
"t.w.0.9.q.9.q.q.w.8.0.7.7.7.7.6.6.5.5.1.2.>.>.:.;.=.*.&.*.%.%.#.$.$.#.+.+.O.+.+.o.o.+.+.o.+.} M ",
"t.w.w.w.w.w.q.q.7.9.9.7.7.7.4.6.5.5.5.1.,.<.>.;.;.;.=.&.%.$.%.$.@.+.+.+.#.+.+.O.+...O.+.+.O.+.m ",
"r.w.q.w.9.9.w.w.8.9.9.7.7.7.4.4.4.5.3.1.2.<.>.;.;.=.&.&.&.*.%.$.@.$.#.+.+.+.+.+.o.+.+...+.+.} M ",
"t.e.M M B m b l h u 7 < ; * % % # % - - - - - & % % & & - - - - * $ $ & - > 5 e k b V L U U } m ",
"r.8.W E W W * = - - X - + X X + H S J S t.t.t.t.K S H S H S X X o - X * X - * = = * ,.>.3.>.O.m ",
"r.w.W W W W - t.t.t.t.t.q q q 9 q q q 9 q q q 9 q q q 9 q q q 9 q q q 9 q 5 q q q @ >.2.>.3.} m ",
"r.w.W W W W * t.( ( ( t.9  .9 8 c  .| q  .D 9  .9  .9 8  .8 9 8 9 8 9 8 9 8 9 8 9 * 2.>.,.>.} m ",
"r.e.W W W W * t.( ( ( t.q q  .9  .q q q  .| c  .q | q q | q q q q q q q q q q q q - >.,.>.1.} m ",
"w.8.W E W W X t.( ( ( t.9 q  .9  .q | q  .c |  .q | 9 8 | 8 9 8 9 8 9 8 9 8 9 8 9 * 1.>.,.>.} m ",
"8.8.W W W W X t.( ( ( t.q  .9 8 c  .c 8  .8 D  .9 c | | c q q 9 q q q 9 q 9 q q q X <.1.>.1.} n ",
"7.8.W W ! R X t.( ( ( t.9 8 9 8 9 8 9 8 9 8 9 8 9 8 9 8 9 8 9 8 9 8 9 8 9 8 9 8 9 X 1.>.3.>.} n ",
"4.8.E W W W K r.( ( ( t.q q q q q q q q q q q q q q q q q q q q q q q q q q q q q X <.2.>.1.} v ",
",.8.W W W W X t.( ( ( t.9 8 9 8 9 8 9 8 9 8 9 8 9 8 9 8 9 8 9 8 9 8 9 8 9 8 9 8 9 S 2.:.,.>.} v ",
">.w.W W W W X t.t.( ( t.q q q 9 q q q 9 q q q 9 q q q 9 q q q 9 q q q 9 q 9 q q q K >.2.>.3.} v ",
"=.w.W W W W X t.( t.( t.9  .9 8 c  .| 8  .D 9  .9  .9 8  .8 9 8 9 8 9 8 9 8 9 8 9 S <.,.>.<.} x ",
"%.8.W W W W H r.( ( ( t.q q  .9  .q q q  .| c  .q | q q | q q q q q q q q q q q q K <.>.1.>.X.l ",
"#.8.W ! W W + t.( ( ( t.9 q  .9  .q | q  .c |  .q | 9 8 | 8 9 8 9 8 9 8 9 8 9 8 9 S <.2.>.1.} k ",
"o.0.W R W W K t.( ( ( t.q  .9 8 c  .c 8  .8 D  .9 c | | c q q q q q q q q q q q q X <.>.1.,.} h ",
"[ 0.W W W W t.t.( ( ( r.9 8 9 8 9 8 9 8 9 8 9 8 9 8 9 8 9 8 9 8 9 8 9 8 9 8 9 8 9 X <.>.>.,.} f ",
"( w.W W W W X t.( ( ( t.q q q q q q q q q q q q q q q q q q q q q q q q q q q q q X 3.>.3.>.X.p ",
"^ w.W W W W X t.( ( ( t.9 8 9 8 9 8 9 8 9 8 9 8 9 8 9 8 9 8 9 8 9 8 9 8 9 8 9 8 9 - >.>.3.>.} y ",
"! 0.W W W W O t.t.t.t.t.q q q q q q q q q q q q q q q q q q q q q q q q q q q q q X >.,.>.,.} e ",
"R 0.W W W W + t.t.t.t.t.9  .9 8 c  .| 8  .D 9  .9  .9 8  .8 9 8 9 8 9 8 9 8 9 8 9 = 2.>.,.>.} e ",
"Y w.W W W W * t.( ( ( t.q q  .9  .q q q  .| c  .q | q q | q q q q q q q q q q q q & >.,.-.,.} 0 ",
"I w.W W W W * t.( ( ( t.9 q  .9  .q | q  .c |  .q | 9 8 | 8 9 8 9 8 9 8 9 8 9 8 9 - >.>.,.>.} 7 ",
"P w.W W W W - t.( ( ( t.q  .9 8 c  .c 8  .8 D  .9 c | | c q q q q q q q q q q q q @ >.,.>.,.} 6 ",
"G w.W W W W - t.t.t.t.t.9 q 9 8 9 8 9 8 9 8 9 8 9 8 9 8 9 8 9 8 9 8 9 8 9 8 9 8 9 - ,.>.3.,.} 5 ",
"Z 0.W ! W W F t.t.t.t.t.q q q q q q q q q q q q q q q q q q q q q q q q q q q q q @ <.2.>.,.} 5 ",
"C 0.W R W W F t.( ( ( t.9 8 9 8 9 8 9 8 9 8 9 8 9 8 9 8 9 8 9 8 9 8 9 8 9 8 9 8 9 = ,.>.3.>.O.4 ",
"C 0.W ! W W F t.( ( ( t.q q q 9 q q q 9 q q q 9 q q q 9 q q q 9 q q q 9 q 9 q q q @ >.2.>.,.O.2 ",
"C w.W W W E F t.( ( ( t.9 8 9 8 9 8 9 8 9 8 9 8 9 8 9 8 9 8 9 8 9 8 9 8 9 8 9 8 5 - >.>.2.>.+.2 ",
"M w.W W E W A A F F F - X X X X H S K t.t.t.t.t.t.S K S X X X X X - X = X * = - - = <.,.>.,.} 2 ",
"M w.t.t.t.t.t.r.e.e.0.7.5.>.-.=.%.#.o.{ { [ [ [ ] ] [ [ { X.+.#.%.=.:.<.5.7.q.w.e.r.t.t.t.,.} 2 ",
"B 8.9.9.8.0.w.w.7.7.7.7.7.7.4.4.4.5.5.3.3.>.>.-.-.-.=.=.%.%.%.@.#.#.#.+.+.+.+.O.O.+.+.+.+.O.} 2 ",
"B w.w.9.q.w.9.7.w.7.8.7.7.7.6.4.4.4.1.1.3.>.>.-.-.=.&.%.%.%.%.@.@.$.#.+.+.@.+.+.#.O.+.O.+.+.} , ",
"B w.9.w.9.8.w.w.q.7.q.7.7.7.4.4.3.4.3.3.,.>.-.-.-.=.&.&.%.%.%.@.@.@.@.+.+.+.+.+.+.} +.+.o.o.o.< ",
"u q.w.9.w.w.q.w.7.q.7.q.7.7.6.4.4.4.3.1.,.,.,.-.-.=.=.=.%.%.%.@.@.#.@...+.+.+.+...+.+.+.o.+.} 3 ",
"M M M M m m m m m m n n b b b b z z z z k k h s p p u e e e 7 7 4 6 4 4 4 4 1 1 1 , 2 , 2 2 3 2 ",
"          <.W ' ' ) ' ) ) ( ( / ~ Q W T U L G B m v k f p 7 4 4 : > ; * # # # & # # o           ",
"          2.O.' ' ' ] _ ( ' ( / Q Q W E U L G C m z k s t 7 4 1 : ; ; * % # % & $ o o           ",
"            2.y p t p p u i r r e t e 7 7 7 4 4 1 1 , : = = = = * # # # % % & - $ o             ",
"                        y y e u e e e t t t , : ; ; : ; : = , = ; ; F F A F                     ",
"                          e u g e e r a t e < = > : 1 > > : 4 ; t.F A F F                       ",
"                              T W p r r i ; ; ; , ; ; t.A . t.J t.                              ",
"          R ' ' ] ] _ _ ( / / ~ Q W T T I L Z N m v l h p e 7 4 1 : ; ; * * % % & - y           ",
"        R r.} } } } O.} } O.O.O.X.X.} } O...X.X.} O.} } X.O.X.O.} O.O.W O.O.} O.X.} O.e         ",
"        5 4 i g y e u g e i i g y e e g y e i g e e y g y y y g u e i g i w i g i w u d         "
};
