/* XPM */
static char *image[] = {
"48 48 93 2",
"   c None",
"00 c #ccccbb",
"10 c #666677",
"20 c #bbcccc",
"30 c #9999aa",
"40 c #333344",
"50 c #667777",
"60 c #443333",
"70 c #aa99aa",
"80 c #334433",
"90 c #667766",
":0 c #443344",
";0 c #776677",
"A0 c #777766",
"B0 c #99aaaa",
"C0 c #aaaabb",
"D0 c #ccccdd",
"E0 c #113322",
"F0 c #dd7766",
"G0 c #664455",
"H0 c #222233",
"I0 c #bb7755",
"J0 c #553333",
"K0 c #cc7777",
"L0 c #774455",
"M0 c #223322",
"N0 c #ffaa88",
"O0 c #aa5555",
"P0 c #995566",
"Q0 c #665555",
"R0 c #ffcccc",
"S0 c #ff8866",
"T0 c #332233",
"U0 c #bb4444",
"V0 c #aa4455",
"W0 c #333333",
"X0 c #ccdddd",
"Y0 c #ddddee",
"Z0 c #ddeeee",
"a0 c #774466",
"b0 c #ccbbcc",
"c0 c #ddbbcc",
"d0 c #773377",
"e0 c #773366",
"f0 c #eeeeff",
"g0 c #ddcccc",
"h0 c #cccccc",
"i0 c #ccddcc",
"j0 c #ddccdd",
"k0 c #eedddd",
"l0 c #ddeedd",
"m0 c #eeeedd",
"n0 c #eeddee",
"o0 c #ffeeee",
"p0 c #eeeeee",
"q0 c #ffeeff",
"r0 c #eeffff",
"s0 c #887766",
"t0 c #887755",
"u0 c #996666",
"v0 c #aaaa99",
"w0 c #aabbaa",
"x0 c #aabb99",
"y0 c #ddddcc",
"z0 c #dddddd",
"01 c #bbaa99",
"11 c #ff6677",
"21 c #ccccaa",
"31 c #bbaaaa",
"41 c #ff7766",
"51 c #bbcc99",
"61 c #cccc99",
"71 c #eeddbb",
"81 c #ff77aa",
"91 c #eeccbb",
":1 c #bbbb99",
";1 c #ddddbb",
"A1 c #ccbb99",
"B1 c #ccbbaa",
"C1 c #ffffff",
"D1 c #eeeebb",
"E1 c #eeeecc",
"F1 c #eeddcc",
"G1 c #555555",
"H1 c #666655",
"I1 c #ffffee",
"J1 c #000000",
"K1 c #ffffcc",
"L1 c #776655",
"M1 c #ffeebb",
"N1 c #666666",
"O1 c #ffeecc",
"P1 c #aaaaaa",
"                                                                                                ",
"                                                                                                ",
"                                                P1                                              ",
"                                              P1O1N1                                            ",
"                                            P1M1O1O1L1                                          ",
"                                          P1O1O1K1O1O1N1                                        ",
"                                        P1M1O1O1O1M1O1O1L1                                      ",
"                                      P1O1O1K1O1O1O1K1O1O1N1                                    ",
"                                    P1M1O1O1O1J1O1O1O1M1O1O1L1        I1H1                      ",
"                                  P1O1O1K1O1G1O1K1J1O1F1E1F1D1N1  C1C1C1H1                      ",
"                                P1M1O1O1O1P1O1O1P1D1F1J1B1A1G1I1C1C1C1C1C1H1                    ",
"                              P1O1O1K1O1J1O1K1J1;1B1G1P1G1C1C1C1C1C1C1C1C1N1                    ",
"                            P1M1O1O1O1J1O1O1P1;1B1A1J1I1C1C1C1C1C1C1C1C1C1C1L1                  ",
"                          P1O1O1K1O1G1O1;1J1:1P1G1C1C1C1C1C1C1C1C1C1C1C1C1C1H1                  ",
"                        P1M1O1O1O1G191A1J1P1B1I1C1C1C1C1C1C1C1C1G181C1C1C1C1C1H1                ",
"                      P1O1O1K171P1;161J151C1C1C1C1C1C1C1C1C141G1C1C1C1C1C1C1C1L1                ",
"                    P1M1O1O131J1B1A1B1I1C1C1C1C1C1C1C1C1J1P1C1C1C1C1C1C1G1C1C1C1L1              ",
"                  P1O1O1K131G1B121C1C1C1C1C1C1C1C1C1P111C1C1C1C1C1C1G111C1C1C1C1H1              ",
"                P1M1O10131J1P1I1z0y0z0y0z0y0z0y011J1z0y0z0y0z0y011G1z0y0z0y0z0y0z0H1            ",
"              P1x031w031G1C1z031x031w031x031J111x031w031x031G1G1x031w031x031G131x0N1            ",
"            P1v0u0t0s0v03101s0t0u0t0s0t0J1L1L1L1L1L1L1L1J1G1L1L1L1L1L1L1J1J1L1L1L1L1L1          ",
"    r0C1r0C1r0C1r0C1r0C1r0C1r0C1r0C1r0C1r0C1r0C1r0C1r0C1r0C1r0C1r0C1r0C1r0C1r0C1r0C1r0C1P1      ",
"    q0p0o0p0o0p0p0p0n0p0n0m0n0m0n0l0n0z0n0z0k0z0z0z0k0z0z0z0j0z0j0y0j0y0j0i0j0h0j0h0g0r0G1      ",
"    r0f0e0d0c0d0b0d0a0p0Z0p0Z0p0l0n0l0n0l0Y0l0z0z0Y0l0z0z0z0z0z0X0z0X0z0j0i0j0h0j0g0i0r0J1      ",
"    C1p0o0p0p0p0p0p0p0m0n0m0n0l0n0l0n0l0k0z0k0z0k0z0z0z0z0z0z0y0j0y0j0i0i0W0V0U0V0T0g0r0J1      ",
"    r0f0e0d0e0p0e0p0e0d0Z0p0l0n0l0n0l0Y0l0Y0z0Y0l0z0z0z0z0z0X0z0X0z0i0j0j0S0R0Q0P0O0h0r0J1J1    ",
"    q0p0p0p0p0p0p0m0n0m0n0l0n0l0n0l0k0z0k0z0k0z0z0z0z0z0z0y0j0y0j0i0j0i0i0N0M0L0K0J0g0r0J1J1    ",
"    r0p0e0d0a0p0e0p0a0d0e0d0l0n0l0Y0l0Y0l0Y0l0z0z0z0z0z0X0z0X0z0i0j0i0j0j0I0H0M0G0F0i0r0J1J1    ",
"    C1p0o0p0p0m0n0m0n0m0n0m0n0l0k0z0k0z0k0z0z0z0z0z0z0y0j0y0j0y0j0y0j0i0i0H0M0H0M0E0h0r0J1J1    ",
"    r0f0p0p0p0p0p0p0Z0n0Z0n0l0n0l0n0l0Y0l0z0z0Y0z0z0z0z0z0z0X0j0X0j0i0D0i0j0i0D0i0h0h0r0J1J1    ",
"    q0p0p0p0n0p0n0m0n0m0n0l0n0z0n0z0k0z0z0z0z0z0z0z0j0z0j0y0j0y0j0i0j0h0j0h0g0h0h0h0j0r0J1J1    ",
"    r0p0Z0p0p0p0Z0p0Z0p0w0C0l0n0P1Y0P1z0B0Y0l0z0X0z0z0z0X0z0X0z0i0j0i0D0i0D0i0h0h0h0z0r0J1J1    ",
"    C1p0p0p0p0m0n0m0n0l0J1A0;0i0g0A0:090J1h0;080;0z0z0y0j0y0j0i0j0i0j0i0g0h0g0h0g0h0z0r0J1J1    ",
"    r0p0p0p0Z0p0Z0p0l0Y0l0Y0l0Y0l0Y0l0Y0l0Y0l0Y0z0z0X0z0X0z0i0j0i0j0i0D0i0D0h0D0h0h0z0r0J1J1    ",
"    q0p0p0m0n0m0n0l0n0l0;090k0z0:0P170W0z0z060z070y0j0y0:0i0j0i0j0i0g0h0h0h0g0h0h0h0j0r0J1J1    ",
"    r0p0Z0p0Z0p0l0n0l0n050D050:0B0J1i04080;0J1z09070J1z08030i0j0i0D0i0h0i0D0i0h020h0z0r0J1J1    ",
"    C1m0n0m0n0l0n0l0n0z0k0z0k0z0k0z0k0z0k0z0k0z0k0z0k0z0k0i0j0i0g0h0g0h0g0h0h0h0h0i0z0r0J1J1    ",
"    r0p0Z0p0l0n0l0n0l0Y050j0J1P1i0:0i0P1i0;0B0z0X0;0l010X0;0W0D090j0W0D0i0h0h0h0h0j0z0r0J1J1    ",
"    q0m0n0l0n0l0n0l0k0z0;090g090P190;0W0;0i0J1N1j09060N1j0W060N1N1N160h0h0h0b0h0h0i0j0r0J1J1    ",
"    r0p0l0n0l0n0l0Y0l0Y0l0Y0l0Y0z0z0z0z0X0z0X0Y0i0j0i0j0i0D0i0D0i0D0i0h0h0h0h0h020D0z0r0J1J1    ",
"    C1m0n0m0n0l0k0z0k0z0k0z0z0z0z0z0z0y0j0y0j0y0j0y0j0i0g0h0g0h0g0h0h0h0h0h0h000b0i0z0r0J1J1    ",
"    r0n0Z0n0l0n0l0n0l0Y0l0z0z0Y0z0z0z0z0z0z0X0j0X0j0i0j0i0j0i0D0i0h0h0h0h0h020h020j0z0r0J1J1    ",
"    q0m0n0l0n0z0n0z0k0z0z0z0z0z0z0z0j0z0j0i0j0y0j0i0j0h0j0h0g0h0h0h0h0h0j0i0j0h0j0i0j0r0J1J1    ",
"    r0p0l0n0l0n0l0Y0l0z0z0z0l0z0X0z0z0z0X0z0z0z0X0z0z0z0X0z0z0z0X0z0z0z0X0z0z0z0X0z0z0r0J1J1    ",
"    C1r0r0r0r0r0r0r0r0r0r0r0r0r0r0r0r0r0r0r0r0r0r0r0r0r0r0r0r0r0r0r0r0r0r0r0r0r0r0r0r0r0J1J1    ",
"    P1J1J1J1J1J1J1J1J1J1J1J1J1J1J1J1J1J1J1J1J1J1J1J1J1J1J1J1J1J1J1J1J1J1J1J1J1J1J1J1J1J1J1J1    ",
"          J1J1J1J1J1J1J1J1J1J1J1J1J1J1J1J1J1J1J1J1J1J1J1J1J1J1J1J1J1J1J1J1J1J1J1J1J1J1J1J1      ",
"                                                                                                "};
