/* XPM */
static char *TimeMon_GNUstep[] = {
/* columns rows colors chars-per-pixel */
"61 60 195 2 ",
"   c None",
".  c #04050B",
"X  c #0D0F17",
"o  c #141415",
"O  c #14151B",
"+  c #17181B",
"@  c #191A1D",
"#  c #0E171E",
"$  c #1A1D26",
"%  c #030B3A",
"&  c #1D2732",
"*  c #242424",
"=  c #202229",
"-  c #2A2E3B",
";  c #25293A",
":  c #2E323E",
">  c #35373C",
",  c #0B1659",
"<  c #07114F",
"1  c #1A344D",
"2  c #1A3351",
"3  c #2E3342",
"4  c #263649",
"5  c #313544",
"6  c #353A4C",
"7  c #393D4B",
"8  c #30364C",
"9  c #2D3456",
"0  c #363B50",
"q  c #393E52",
"w  c #232742",
"e  c #05146C",
"r  c #0E1A62",
"t  c #111E6E",
"y  c #0F1F7C",
"u  c #1B2765",
"i  c #17257A",
"p  c #2B3870",
"a  c #3E424D",
"s  c #3E4047",
"d  c #3B4256",
"f  c #3D445A",
"g  c #2A425E",
"h  c #1F466D",
"j  c #3D4573",
"k  c #344C70",
"l  c #324F73",
"z  c #41434B",
"x  c #4C4C4C",
"c  c #414140",
"v  c #424552",
"b  c #4C4D52",
"n  c #484B58",
"m  c #42485A",
"M  c #545454",
"N  c #53555C",
"B  c #5B5B5B",
"V  c #4F5156",
"C  c #464D65",
"Z  c #494F6B",
"A  c #4B526C",
"S  c #5A5C64",
"D  c #414978",
"F  c #5E616D",
"G  c #646464",
"H  c #6B6B6B",
"J  c #636671",
"K  c #6B6E75",
"L  c #6F7075",
"P  c #6F767E",
"I  c #737373",
"U  c #73757B",
"Y  c #76787F",
"T  c #7D7D7D",
"R  c #0A1B84",
"E  c #0C219A",
"W  c #1A2B8A",
"Q  c #2E3C8E",
"!  c #071FB0",
"~  c #081FAE",
"^  c #0B21A3",
"/  c #1429A6",
"(  c #1E35AD",
")  c #0921B1",
"_  c #0B24BB",
"`  c #0720B0",
"'  c #1930BB",
"]  c #2638A7",
"[  c #2237B6",
"{  c #2E5986",
"}  c #37659A",
"|  c #37608B",
" . c #3D58AB",
".. c #2D50B9",
"X. c #3F74AC",
"o. c #5C6485",
"O. c #5E6789",
"+. c #5F6889",
"@. c #43698F",
"#. c #616A8C",
"$. c #7A7D84",
"%. c #646D91",
"&. c #667194",
"*. c #687397",
"=. c #647585",
"-. c #4173A6",
";. c #717FA9",
":. c #1B33CA",
">. c #0F2BDF",
",. c #1834D8",
"<. c #0A25C2",
"1. c #2239CA",
"2. c #0D2DE3",
"3. c #1231EB",
"4. c #1B39E8",
"5. c #0F31FD",
"6. c #0F30F7",
"7. c #1133FD",
"8. c #1A3CFB",
"9. c #1334F7",
"0. c #223EE9",
"q. c #2746CF",
"w. c #3B7DC1",
"e. c #1D41FB",
"r. c #2548F7",
"t. c #2B53F4",
"y. c #365CF1",
"u. c #3E6AF1",
"i. c #3A66EE",
"p. c #477BD0",
"a. c #4173E9",
"s. c #7F828C",
"d. c #3B82CA",
"f. c #3F82C5",
"g. c #3E89D5",
"h. c #4888C8",
"j. c #428AD4",
"k. c #4B8AD9",
"l. c #518DD1",
"z. c #4B92DA",
"x. c #5D9BDB",
"c. c #629DDC",
"v. c #6299D4",
"b. c #5188E2",
"n. c #638FE8",
"m. c #7AACE1",
"M. c #848484",
"N. c #83858A",
"B. c #8A8A8A",
"V. c #87888C",
"C. c #8E8F93",
"Z. c #939494",
"A. c #94969B",
"S. c #9A9B9B",
"D. c #97989A",
"F. c #9B9DA2",
"G. c #A3A3A3",
"H. c #A5A6AA",
"J. c #ACACAC",
"K. c #ADAEB2",
"L. c #AFB0B4",
"P. c #AEB0B8",
"I. c #B4B4B4",
"U. c #B5B6BA",
"Y. c #BBBBBB",
"T. c #B9B9B7",
"R. c #C0C0BD",
"E. c #97B8D9",
"W. c #BEBFC1",
"Q. c #BEC0C3",
"!. c #ABCBEC",
"~. c #A6C4E8",
"^. c #B3CFED",
"/. c #C3C3C4",
"(. c #C5C6C9",
"). c #CBCBCB",
"_. c #CDCED2",
"`. c #CFD0D3",
"'. c #D2D3D3",
"]. c #DDDDDD",
"[. c #C8D8E8",
"{. c #DDDEE1",
"}. c #DFE0E3",
"|. c #D0E2F5",
" X c #E3E3E4",
".X c #EBEBEB",
"XX c #E7E9EB",
"oX c #EEEEF0",
"OX c #E4ECF7",
"+X c #EDF3FA",
"@X c #E7F0F9",
"#X c #F4F4F5",
"$X c #F5F7F9",
"%X c #FEFEFE",
"&X c #F6F9FC",
/* pixels */
"                                                                                                                          ",
"                                                                                                                          ",
"                                                                                                                          ",
"                                                &.A 6 - = + X . . X $ ; 0 A *.                                            ",
"                                          #.A q > d F $.A.G.M.9 y ( ] Q p 9 ; 6 A %.                                      ",
"                                      O.d : v K S.T.). X#X&XY.D ) 8.8.0.,.' ^ W 9 w q o.                                  ",
"                                  #.d : S D.W.{.&X%X%X%X%X%XT.j ` 5.7.7.7.7.7.4.:./ u 3 f +.                              ",
"                                A 6 N N.(.$X%X%X%X%X%X%X%X%XY.j ) 7.7.7.7.7.7.7.7.8.,.W u 8 A                             ",
"                            *.C 7 L /.#X%X%X%X%X%X%X%X%X%X%XR.D ) 7.7.7.7.7.5.5.5.7.5.9.q.k 3 m &.                        ",
"                          %.q s A..X%X%X%X%X%X%X%X%X X/.I.H.I ; e ^ ) <.2.7.8.7.7.7.5.8.a.l.} 4 q #.                      ",
"                        #.7 z K.#X%X%X%X%X%X%X X/.G.M.I G B > O % , r t R ^ _ 2.7.7.8.y.k.k.h.X.4 8 O.                    ",
"                      #.7 b Y.#X%X%X%X%X%X XY.M.B M I G.Y.).G.j E :.:.] i < , R _ 2.r.a.j.j.j.j.X.4 8 %.                  ",
"                    *.d b W.&X%X%X%X%X#X).M.x H I.]..X#X%X$XT.D ) 9.9.9.6.,.[ u < R ..k.j.j.j.j.g.X.1 7 %.                ",
"                    m 7 K.#X%X%X%X%X#XG.M G T.XX$X%X%X%X%X%XT.D ` 5.7.7.5.5.5.3.[ u 1 { d.j.j.j.j.j.X.- f                 ",
"                  A 7 A.oX%X%X%X%X.XB.B B.].#X%X%X%X%X%X%X%XT.D ` 9.7.7.5.7.6.7.y.p.l 1 h f.g.g.j.g.j.@.a Z               ",
"                #.6 I .X%X%X%X%XXXI * M..X%X%X%X%X%X%X%X%X$XI.C ` 5.5.7.7.7.6.r.u.z.f.{ 1 2 d.g.j.j.x.~.P 3 O.            ",
"                f V /.%X%X%X%XoXB.x Z. X%X%X%X%X%X%X XY.B.H c X < e y _ 2.5.7.u.z.j.g.v.=.# h d.j.m.[.&X(.N d             ",
"              O.: N.#X%X%X%X#XG.B S.oX%X%X%X%X&X].G.I H T M.G ; , W i t e E q.a.z.g.x.!.'.s.4 | E.|.&X%X#XC.5 o.          ",
"              d S (.%X%X%X$X).M B.XX%X%X%X%X$XR.I G T G.'..XI.D / 0.1./ R r p } d.x.~.+X%XXXs.a Q.&X%X%X%X_.S 6           ",
"            #.: A.$X%X%X%X XM.G ].%X%X%X%X$XJ.B H I.#X%X%X%XY.j ! 7.7.7.r. .g 1 } ~.+X%X%X%X].H s.}.%X%X%X&XA.- #.        ",
"            A v W.%X%X%X$XY.M T.#X%X%X%X#XI.B I ].%X%X%X%X%XT.j ` 9.7.7.t.b.h.k a H.#X%X%X%X$XT.x I.&X%X%X%XQ.n Z         ",
"            q K {.%X%X%X XB.H  X%X%X%X$XR.G I  X%X%X%X%X%X%XT.j ` 7.5.8.a.l.c.E.L B T.$X%X%X%X.XH T  X%X%X%X XU 6         ",
"          *.: S.%X%X%X%XR.B T.$X%X%X%X].I H  X%X%X%X%X%X%X%XT.D ) 7.7.t.b.x.^.+X XH H ].%X%X%X&XT.B I.%X%X%X&XG.: %.      ",
"          A a U.%X%X%X%XG.x ].%X%X%X%XG.G T.%X%X%X%X%X%X%X%XT.j ) 7.r.b.c.!.&X%X%XT.H D.%X%X%X%X XB D.&X%X%X%XW.a A       ",
"          6 S `.%X%X%X XM.I .X%X%X%X XI T #X%X%X%X%X%X%X%X%XT.j ! 8.i.c.!.+X%X%X%X#XB.G  X%X%X%X.XT M. X%X%X%X'.J 6       ",
"          - $.{.%X%X%XR.I H.#X%X%X%XY.H G.%X%X%X%X%X%X%X%X%XT.j ) r.n.!.+X%X%X%X%X%XJ.H Y.%X%X%X%XJ.H R.%X%X%X XN.-       ",
"          $ F.oX%X%X%XI.G R.$X%X%X%XM.T '.%X%X%X%X%X%X%X%X%XT.j ( n.!.@X%X%X%X%X%X%X'.T B.$X%X%X%XR.G I.%X%X%X#XF.=       ",
"          O H.&X%X%X%XH.B ).%X%X%X&XH M..X%X%X%X%X%X%X%X%X%XT.j  .~.@X%X%X%X%X%X%X%X.XB.H $X%X%X%X).G J.%X%X%X&XK.$       ",
"          O I.&X%X%X%XG.x ].%X%X%X%XB M.&X%X%X%X%X%X%X%X%X%XI.C s.OX%X%X%X%X%X%X%X%X#XZ.B $X%X%X%X XM G.%X%X%X%XT.+       ",
"          o I.%X%X%X%XD.x  X%X%X%X$Xx B.%X%X%X%X%X%X%X%X%X%X].L._.%X%X%X%X%X%X%X%X%X%XZ.M #X%X%X%X XM S.%X%X%X%XQ.+       ",
"          o I.%X%X%X%XG.x ].%X%X%X%XB B.&X%X%X%X%X%X%X%X%X%X%X%X%X%X%X%X%X%X%X%X%X%X$XZ.B $X%X%X%X XB G.%X%X%X%XY.O       ",
"          + H.$X%X%X%XJ.B ).%X%X%X$XH M..X%X%X%X%X%X%X%X%X%X%X%X%X%X%X%X%X%X%X%X%X%X.XB.H #X%X%X%X`.B J.%X%X%X&XI.@       ",
"          $ A.#X&X%X%XI.G Y.%X%X%X%XM.T '.%X%X%X%X%X%X%X%X%X%X%X%X%X%X%X%X%X%X%X%X%X'.M.M.&X%X%X%X/.G T.%X%X%X#XF.=       ",
"          - $. X%X%X%XR.H H.#X%X%X%XT.H G.%X%X%X%X%X%X%X%X%X%X%X%X%X%X%X%X%X%X%X%X%XJ.H T.%X%X%X#XJ.H R.%X%X%X Xs.-       ",
"          6 J '.%X%X%X XM.I .X%X%X%X XH T #X%X%X%X%X%X%X%X%X%X%X%X%X%X%X%X%X%X%X%X&XB.G  X%X%X%XoXM.T ].%X%X%X'.J 6       ",
"          A 7 T.%X%X%X%XG.M  X%X%X%X%XG.G Y.%X%X%X%X%X%X%X%X%X%X%X%X%X%X%X%X%X%X%XT.H Z.&X%X%X%X XB D.&X%X%X%X/.z A       ",
"          &.: S.&X%X%X%XY.B I.&X%X%X%X].I H ].%X%X%X%X%X%X%X%X%X%X%X%X%X%X%X%X%X XH H ].%X%X%X&XT.G I.%X%X%X&XG.: %.      ",
"            q K  X%X%X%X XM.I XX%X%X%X$XY.B I  X%X%X%X%X%X%X%X%X%X%X%X%X%X%X%XXXB.G I.&X%X%X%X.XH T ].%X%X%X X$.6         ",
"            A n /.%X%X%X%XY.x T.#X%X%X%X$XH.M M. X%X%X%X%X%X%X%X%X%X%X%X%X%XXXT x J.#X%X%X%X$XY.x I.%X%X%X%XQ.n C         ",
"            #.- S.$X%X%X%X XM.G ].%X%X%X%X$XI.G H I.&X%X%X%X%X%X%X%X%X%X&XY.H M J.$X%X%X%X%X].H T ].%X%X%X&XS.- O.        ",
"              q S ).%X%X%X&X(.M Z..X%X%X%X%X#XY.H H M.J.'..X#X%X#XXX'.J.B.H H T.#X%X%X%X%X.XS.B /.$X%X%X%X'.S 0           ",
"              o.5 V.#X%X%X%X#XG.B B.XX%X%X%X%X$X].S.G H T B.Z.D.Z.B.M.H G Z.].$X%X%X%X%X#XH.B S.#X%X%X%X#XZ.3 o.          ",
"                d N Q.%X%X%X%XoXB.* Z.oX%X%X%X%X%X%X XT.B.H B M B H M.T. X%X%X%X%X%X%XXXZ.c M..X%X%X%X%X(.S d             ",
"                O.6 U .X%X%X%X%X.XH c G..X%X%X%X%X%X%X%X%X#X#X#X#X#X#X%X%X%X%X%X%X%X.XZ.* G  X%X%X%X%X.X$.5 o.            ",
"                  Z 7 F.#X%X%X%X%X XB.B Z. X#X%X%X%X%X%X%X%X%X%X%X%X%X%X%X%X%X%X#X].D.B M. X%X%X%X%X#XF.z C               ",
"                    m z L.#X%X%X%X%X.XG.M H T. X$X%X%X%X%X%X%X%X%X%X%X%X%X%X$X.XY.H B S.oX%X%X%X%X&XU.z f                 ",
"                    *.6 z Q.&X%X%X%X%X#X).T x H T. XoX#X%X%X%X%X%X%X%X#XoX XT.I x T /.#X%X%X%X%X&X(.V q %.                ",
"                      #.7 M /.$X%X%X%X%X$X].I.M.B B T J./.'.].XX X'.R.I.T B B T I.].$X%X%X%X%X$X(.B 5 #.                  ",
"                        O.5 b U.#X%X%X%X%X%X%X{.T.A.M.H G B B M M B G H T Z.T.].%X%X%X%X%X%X#XU.x 8 o.                    ",
"                          #.q z A.oX%X%X%X%X%X%X%X%X]./.T.J.G.S.G.J.I./. X&X%X%X%X%X%X%X%XoXS.z 6 O.                      ",
"                            %.f a $./.oX%X%X%X%X%X%X%X%X%X%X%X%X%X%X%X%X%X%X%X%X%X%X%X#X(.$.v f %.                        ",
"                                C 5 S C._.&X%X%X%X%X%X%X%X%X%X%X%X%X%X%X%X%X%X%X%X&X_.Z.N 5 C                             ",
"                                  O.d 5 S D.W.}.&X%X%X%X%X%X%X%X%X%X%X%X%X%X&X XY.S.S 5 d o.                              ",
"                                      o.q - n U G.W.'. X#X&X%X%X%X&X#X}.'./.H.Y n - 6 o.                                  ",
"                                          #.C 6 : z J N.F.K.Y.R.Y.L.F.N.J z : 7 Z #.                                      ",
"                                                %.A 6 - = @ O o o $ = - 6 A #.                                            ",
"                                                                                                                          ",
"                                                                                                                          ",
"                                                                                                                          ",
"                                                                                                                          "
};
